<svg width="196" height="189" viewBox="0 0 196 189" fill="none" xmlns="http://www.w3.org/2000/svg">
    <!-- <g filter="url(#filter0_d_54_5)"> -->
    <path
        d="M32.7176 98.1791C32.7176 106.938 25.6724 108.69 20.3886 109.566C13.5795 109.566 8.5 104.951 8.5 98.1791C8.5 91.4067 13.1392 87.2305 19.9483 87.2305C24.3515 87.2305 32.7176 90.734 32.7176 98.1791Z"
        fill="url(#paint0_linear_54_5)" />
    <ellipse cx="17.3064" cy="98.1791" rx="8.80638" ry="9.6348" fill="url(#paint1_radial_54_5)"
        stroke="#28314D" stroke-width="2" />
    <!-- </g> -->
    <path
        d="M170.282 98.1791C170.282 106.938 177.328 108.69 182.611 109.566C189.42 109.566 194.5 104.951 194.5 98.1791C194.5 91.4067 189.861 87.2305 183.052 87.2305C178.649 87.2305 170.282 90.734 170.282 98.1791Z"
        fill="url(#paint2_linear_54_5)" />
    <ellipse cx="8.80638" cy="9.6348" rx="8.80638" ry="9.6348"
        transform="matrix(-1 0 0 1 194.5 88.5443)" fill="url(#paint3_radial_54_5)" stroke="#28314D"
        stroke-width="2" />
    <path
        d="M101.671 163.413C110.477 163.413 112.238 170.42 113.119 175.675C113.119 182.448 108.48 187.5 101.671 187.5C94.8615 187.5 90.6626 182.886 90.6626 176.113C90.6626 171.734 94.1852 163.413 101.671 163.413Z"
        fill="url(#paint4_linear_54_5)" />
    <ellipse cx="101.671" cy="178.741" rx="8.75891" ry="9.68702"
        transform="rotate(-90 101.671 178.741)" fill="url(#paint5_radial_54_5)" stroke="#28314D"
        stroke-width="2" />
    <path
        d="M101.671 25.587C110.477 25.587 112.238 18.5799 113.119 13.3245C113.119 6.55215 108.48 1.5 101.671 1.5C94.8615 1.5 90.6626 6.11421 90.6626 12.8866C90.6626 17.266 94.1852 25.587 101.671 25.587Z"
        fill="url(#paint6_linear_54_5)" />
    <ellipse cx="8.75891" cy="9.68702" rx="8.75891" ry="9.68702"
        transform="matrix(4.40668e-08 1 1 -4.33589e-08 91.9836 1.5)" fill="url(#paint7_radial_54_5)"
        stroke="#28314D" stroke-width="2" />
    <defs>
        <!-- <filter id="filter0_d_54_5" x="0" y="76.7305" width="46.2176" height="43.3352"
            filterUnits="userSpaceOnUse" color-interpolation-filters="sRGB">
            <feFlood flood-opacity="0" result="BackgroundImageFix" />
            <feColorMatrix in="SourceAlpha" type="matrix"
                values="0 0 0 0 0 0 0 0 0 0 0 0 0 0 0 0 0 0 127 0" result="hardAlpha" />
            <feOffset dx="3" />
            <feGaussianBlur stdDeviation="5.25" />
            <feComposite in2="hardAlpha" operator="out" />
            <feColorMatrix type="matrix" values="0 0 0 0 0 0 0 0 0 0 0 0 0 0 0 0 0 0 0.25 0" />
            <feBlend mode="normal" in2="BackgroundImageFix" result="effect1_dropShadow_54_5" />
            <feBlend mode="normal" in="SourceGraphic" in2="effect1_dropShadow_54_5" result="shape" />
        </filter> -->
        <linearGradient id="paint0_linear_54_5" x1="21.7096" y1="87.2305" x2="20.6206" y2="110.442"
            gradientUnits="userSpaceOnUse">
            <stop offset="0.0673077" stop-color="#475353" />
            <stop offset="0.475962" stop-color="#BDDA48" />
            <stop offset="0.519231" stop-color="#B1E52F" />
            <stop offset="0.576923" stop-color="#B3D648" />
            <stop offset="0.923077" stop-color="#4A5651" />
        </linearGradient>
        <radialGradient id="paint1_radial_54_5" cx="0" cy="0" r="1" gradientUnits="userSpaceOnUse"
            gradientTransform="translate(17.3064 98.6609) rotate(90) scale(9.15306 8.36606)">
            <stop offset="0.365385" stop-color="#9ACB1D" />
            <stop offset="0.576923" stop-color="#B1E72A" />
            <stop offset="0.78537" stop-color="#E3F326" />
        </radialGradient>
        <linearGradient id="paint2_linear_54_5" x1="181.29" y1="87.2305" x2="182.379" y2="110.442"
            gradientUnits="userSpaceOnUse">
            <stop offset="0.0673077" stop-color="#475353" />
            <stop offset="0.475962" stop-color="#BDDA48" />
            <stop offset="0.519231" stop-color="#B1E52F" />
            <stop offset="0.576923" stop-color="#B3D648" />
            <stop offset="0.923077" stop-color="#4A5651" />
        </linearGradient>
        <radialGradient id="paint3_radial_54_5" cx="0" cy="0" r="1" gradientUnits="userSpaceOnUse"
            gradientTransform="translate(8.80638 10.1165) rotate(90) scale(9.15306 8.36606)">
            <stop offset="0.365385" stop-color="#9ACB1D" />
            <stop offset="0.576923" stop-color="#B1E72A" />
            <stop offset="0.78537" stop-color="#E3F326" />
        </radialGradient>
        <linearGradient id="paint4_linear_54_5" x1="90.6626" y1="174.362" x2="113.999" y2="175.468"
            gradientUnits="userSpaceOnUse">
            <stop offset="0.0673077" stop-color="#475353" />
            <stop offset="0.475962" stop-color="#BDDA48" />
            <stop offset="0.519231" stop-color="#B1E52F" />
            <stop offset="0.576923" stop-color="#B3D648" />
            <stop offset="0.923077" stop-color="#4A5651" />
        </linearGradient>
        <radialGradient id="paint5_radial_54_5" cx="0" cy="0" r="1" gradientUnits="userSpaceOnUse"
            gradientTransform="translate(101.671 179.225) rotate(90) scale(9.20267 8.32096)">
            <stop offset="0.365385" stop-color="#9ACB1D" />
            <stop offset="0.576923" stop-color="#B1E72A" />
            <stop offset="0.78537" stop-color="#E3F326" />
        </radialGradient>
        <linearGradient id="paint6_linear_54_5" x1="90.6626" y1="14.6384" x2="113.999" y2="13.5316"
            gradientUnits="userSpaceOnUse">
            <stop offset="0.0673077" stop-color="#475353" />
            <stop offset="0.475962" stop-color="#BDDA48" />
            <stop offset="0.519231" stop-color="#B1E52F" />
            <stop offset="0.576923" stop-color="#B3D648" />
            <stop offset="0.923077" stop-color="#4A5651" />
        </linearGradient>
        <radialGradient id="paint7_radial_54_5" cx="0" cy="0" r="1" gradientUnits="userSpaceOnUse"
            gradientTransform="translate(8.75891 10.1714) rotate(90) scale(9.20267 8.32096)">
            <stop offset="0.365385" stop-color="#9ACB1D" />
            <stop offset="0.576923" stop-color="#B1E72A" />
            <stop offset="0.78537" stop-color="#E3F326" />
        </radialGradient>
    </defs>
</svg>