<svg width="189" height="188" viewBox="0 0 189 188" fill="none" xmlns="http://www.w3.org/2000/svg">
    <path
        d="M94.1706 162.913C102.977 162.913 104.738 169.92 105.619 175.175C105.619 181.948 100.98 187 94.1706 187C87.3615 187 83.1626 182.386 83.1626 175.613C83.1626 171.234 86.6851 162.913 94.1706 162.913Z"
        fill="url(#paint0_linear_66_35)" />
    <ellipse cx="94.1706" cy="178.241" rx="8.75891" ry="9.68702"
        transform="rotate(-90 94.1706 178.241)" fill="url(#paint1_radial_66_35)" stroke="#28314D"
        stroke-width="2" />
    <path
        d="M94.1706 25.087C102.977 25.087 104.738 18.0799 105.619 12.8245C105.619 6.05215 100.98 0.999999 94.1706 1C87.3615 1 83.1626 5.61421 83.1626 12.3866C83.1626 16.766 86.6852 25.087 94.1706 25.087Z"
        fill="url(#paint2_linear_66_35)" />
    <ellipse cx="8.75891" cy="9.68702" rx="8.75891" ry="9.68702"
        transform="matrix(4.40668e-08 1 1 -4.33589e-08 84.4836 1)" fill="url(#paint3_radial_66_35)"
        stroke="#28314D" stroke-width="2" />
    <path
        d="M163.304 94.2202C163.304 85.4138 170.311 83.6525 175.566 82.7719C182.339 82.7719 187.391 87.4111 187.391 94.2202C187.391 101.029 182.777 105.228 176.004 105.228C171.625 105.228 163.304 101.706 163.304 94.2202Z"
        fill="url(#paint8_linear_66_35)" />
    <ellipse cx="178.632" cy="94.2202" rx="8.75891" ry="9.68702"
        transform="rotate(180 178.632 94.2202)" fill="url(#paint9_radial_66_35)" stroke="#28314D"
        stroke-width="2" />
    <path
        d="M25.4777 94.2202C25.4777 85.4138 18.4706 83.6525 13.2153 82.7719C6.4429 82.7719 1.39075 87.4111 1.39075 94.2202C1.39075 101.029 6.00495 105.228 12.7773 105.228C17.1568 105.228 25.4777 101.706 25.4777 94.2202Z"
        fill="url(#paint10_linear_66_35)" />
    <ellipse cx="8.75891" cy="9.68702" rx="8.75891" ry="9.68702"
        transform="matrix(1 -8.77782e-08 -8.70703e-08 -1 1.39075 103.907)"
        fill="url(#paint11_radial_66_35)" stroke="#28314D" stroke-width="2" />

    <defs>
        <linearGradient id="paint0_linear_66_35" x1="83.1626" y1="173.862" x2="106.499" y2="174.968"
            gradientUnits="userSpaceOnUse">
            <stop offset="0.0673077" stop-color="#475353" />
            <stop offset="0.475962" stop-color="#BDDA48" />
            <stop offset="0.519231" stop-color="#B1E52F" />
            <stop offset="0.576923" stop-color="#B3D648" />
            <stop offset="0.923077" stop-color="#4A5651" />
        </linearGradient>
        <radialGradient id="paint1_radial_66_35" cx="0" cy="0" r="1" gradientUnits="userSpaceOnUse"
            gradientTransform="translate(94.1706 178.725) rotate(90) scale(9.20267 8.32096)">
            <stop offset="0.365385" stop-color="#9ACB1D" />
            <stop offset="0.576923" stop-color="#B1E72A" />
            <stop offset="0.78537" stop-color="#E3F326" />
        </radialGradient>
        <linearGradient id="paint2_linear_66_35" x1="83.1626" y1="14.1384" x2="106.499" y2="13.0316"
            gradientUnits="userSpaceOnUse">
            <stop offset="0.0673077" stop-color="#475353" />
            <stop offset="0.475962" stop-color="#BDDA48" />
            <stop offset="0.519231" stop-color="#B1E52F" />
            <stop offset="0.576923" stop-color="#B3D648" />
            <stop offset="0.923077" stop-color="#4A5651" />
        </linearGradient>
        <radialGradient id="paint3_radial_66_35" cx="0" cy="0" r="1" gradientUnits="userSpaceOnUse"
            gradientTransform="translate(8.75891 10.1714) rotate(90) scale(9.20267 8.32096)">
            <stop offset="0.365385" stop-color="#9ACB1D" />
            <stop offset="0.576923" stop-color="#B1E72A" />
            <stop offset="0.78537" stop-color="#E3F326" />
        </radialGradient>
        <linearGradient id="paint8_linear_66_35" x1="174.252" y1="105.228" x2="175.359" y2="81.8918"
            gradientUnits="userSpaceOnUse">
            <stop offset="0.0673077" stop-color="#475353" />
            <stop offset="0.475962" stop-color="#BDDA48" />
            <stop offset="0.519231" stop-color="#B1E52F" />
            <stop offset="0.576923" stop-color="#B3D648" />
            <stop offset="0.923077" stop-color="#4A5651" />
        </linearGradient>
        <radialGradient id="paint9_radial_66_35" cx="0" cy="0" r="1" gradientUnits="userSpaceOnUse"
            gradientTransform="translate(178.632 94.7046) rotate(90) scale(9.20267 8.32096)">
            <stop offset="0.365385" stop-color="#9ACB1D" />
            <stop offset="0.576923" stop-color="#B1E72A" />
            <stop offset="0.78537" stop-color="#E3F326" />
        </radialGradient>
        <linearGradient id="paint10_linear_66_35" x1="14.5291" y1="105.228" x2="13.4224"
            y2="81.8918" gradientUnits="userSpaceOnUse">
            <stop offset="0.0673077" stop-color="#475353" />
            <stop offset="0.475962" stop-color="#BDDA48" />
            <stop offset="0.519231" stop-color="#B1E52F" />
            <stop offset="0.576923" stop-color="#B3D648" />
            <stop offset="0.923077" stop-color="#4A5651" />
        </linearGradient>
        <radialGradient id="paint11_radial_66_35" cx="0" cy="0" r="1" gradientUnits="userSpaceOnUse"
            gradientTransform="translate(8.75891 10.1714) rotate(90) scale(9.20267 8.32096)">
            <stop offset="0.365385" stop-color="#9ACB1D" />
            <stop offset="0.576923" stop-color="#B1E72A" />
            <stop offset="0.78537" stop-color="#E3F326" />
        </radialGradient>

    </defs>
</svg>