<svg width="426" height="1188" viewBox="0 0 426 1188" fill="currentColor"
    xmlns="http://www.w3.org/2000/svg">
    <path
        d="M176.25 0.0693359C179.409 0.0293364 185.04 0.639935 188.75 1.41992C192.459 2.20991 198.419 3.83981 202 5.0498C205.579 6.25977 211.649 8.81928 215.5 10.7393C219.35 12.6593 224.98 15.93 228 18C231.019 20.0799 235.549 23.7396 238.049 26.1396C240.559 28.5396 244.47 32.98 246.74 36C249.01 39.0301 252.25 44.7601 253.94 48.75C255.62 52.7399 257 56.9 257 58C257 59.1003 259.36 62.37 262.25 65.2598C265.14 68.1498 268.51 71.75 272 76L273.509 73.75C274.439 72.35 275.01 69.2199 274.99 65.5C274.98 62.2001 274.419 57.7001 273.759 55.5C273.099 53.3 271.579 49.48 270.379 47C269.19 44.5304 268.37 42.2806 268.57 42C268.76 41.73 271.26 43.53 274.11 46C276.96 48.48 280.48 52.3001 281.93 54.5C283.38 56.7 285.22 59.8103 286.03 61.4102C286.93 63.1803 287.479 67.0805 287.459 71.4102C287.429 76.8698 286.88 79.5301 285.06 83C283.76 85.47 281.81 88.63 280.74 90C278.96 92.2699 278.88 93.0601 279.89 98.5C280.51 101.8 281.009 108.78 281.009 114C280.999 119.22 280.329 127.32 279.509 132C278.689 136.68 276.43 147.03 274.48 155C272.52 162.97 270.52 171.3 270.03 173.5C269.54 175.7 268.55 179.66 267.82 182.29C267 185.27 265.839 187.26 264.75 187.54C263.5 187.87 263 189.01 263 191.5C263 193.43 263.67 198.15 264.5 202C265.33 205.85 266.39 209.79 266.86 210.75C267.33 211.71 269.7 213.56 272.11 214.859C274.52 216.159 278.75 218.109 281.5 219.189C284.249 220.269 287.849 221.739 289.5 222.449C291.15 223.159 295.42 224.98 299 226.5C302.579 228.02 307.3 230.06 309.5 231.04C311.7 232.01 324.98 237.4 339 243C353.019 248.6 370.349 256.1 377.5 259.67C384.65 263.23 392.23 267.579 394.35 269.319C396.47 271.069 399.24 274.75 400.52 277.5C401.79 280.25 404.17 286.32 405.82 291C407.46 295.68 409.829 303.55 411.089 308.5C412.709 314.9 413.39 320.53 413.44 328C413.47 333.77 412.87 341.2 412.11 344.5C411.34 347.8 409.48 354.55 405.23 368.5L405.64 451.5L408.969 459C410.799 463.12 413.62 470.1 415.24 474.5C416.85 478.9 419.05 485.43 420.11 489C421.17 492.57 422.74 498.43 423.6 502C424.56 505.96 425.199 513.39 425.259 521C425.309 528.85 424.86 534.99 424.03 537.5C423.31 539.7 421.839 543.98 420.759 547C419.689 550.02 416.82 556.55 414.4 561.5C411.98 566.45 407.859 574.36 405.25 579.08C402.64 583.8 399.78 588.75 398.89 590.08C398 591.41 395 597.23 392.2 603C389.41 608.77 386.019 616.88 384.669 621C383.319 625.13 381.46 632.33 380.53 637C379.17 643.82 378.95 648.76 379.4 662C379.72 671.08 380.21 680.86 380.49 683.75C380.95 688.52 380.709 689.38 377.75 693.25C375.96 695.58 373.97 698.17 373.32 699C372.67 699.82 369.879 703.2 367.129 706.5C363.2 711.21 361.78 713.9 360.56 719C359.16 724.84 358.359 726.12 352.75 731.55C349.31 734.88 343.579 739.949 340 742.819C336.42 745.679 332.83 748.03 332 748.04C331.169 748.04 329.489 747.129 328.25 746.02C326.24 744.21 326.15 743.82 327.469 742.25C328.289 741.29 328.97 740.05 328.99 739.5C329 738.95 328.11 737.83 327 737C325.89 736.17 324.969 734.83 324.969 734C324.959 733.17 326.28 731.15 327.9 729.5C330.42 726.93 330.77 725.93 330.35 722.5C329.94 719.23 330.28 718.099 332.18 716.319C333.451 715.119 336.88 711.969 339.79 709.319C344.519 705.01 345.07 704.08 345.04 700.5C345.02 698.3 344.309 692.67 343.469 688C342.629 683.33 341.75 679.271 341.5 679C341.26 678.73 339.74 681.42 338.14 685C336.53 688.58 334.27 693.64 333.11 696.25C331.95 698.86 331 701.45 331 702C330.999 702.55 329.869 703.45 328.5 704C327.119 704.55 324.649 705 323 705C321.26 705 320 704.47 320.009 703.75C320.019 703.06 320.93 698.9 322.04 694.5C323.139 690.1 324.479 684.48 325.009 682C325.529 679.52 326.59 674.58 327.36 671C328.13 667.42 329.34 661.13 330.04 657C331.13 650.62 331.88 648.9 335.04 645.5C337.08 643.3 340.17 639.25 345.03 631.5L345.009 613.5C344.989 603.58 344.33 590.56 343.53 584.5C342.73 578.45 341.59 570.35 341 566.5C340.41 562.65 339.529 557.02 339.049 554C338.569 550.98 337.459 545.13 336.589 541C335.719 536.88 335 529 335 523.5C334.99 516.89 335.81 509.43 337.4 501.5C338.73 494.9 341.01 485.45 342.48 480.5C343.94 475.55 344.88 470.491 344.57 469.25C344.26 468.01 343.509 467.11 342.919 467.25C342.319 467.391 340.27 471.321 338.36 476C336.46 480.68 333.569 488.55 331.959 493.5C330.349 498.45 328.27 506.33 327.35 511C325.95 518.12 325.559 529.751 324.959 582.5C324.569 617.15 323.77 649.1 323.18 653.5C322.6 657.9 321.819 663.08 321.459 665C321.089 666.921 318.409 675.7 315.5 684.5C312.59 693.3 309.52 702.08 308.7 704C307.87 705.92 305.959 710.42 304.459 714C302.969 717.58 300.84 722.52 299.74 725C298.63 727.48 294.13 736.92 289.74 746C285.34 755.08 279.96 766.33 277.78 771C275.6 775.67 273.07 781.52 272.16 784C270.89 787.45 270.489 792.13 270.459 804C270.429 812.52 270.029 820.85 269.549 822.5C269.079 824.15 268.42 825.73 268.1 826C267.77 826.27 266.94 827.51 266.25 828.75C265.4 830.28 265 835.911 265 846.25C265 854.64 264.55 865.33 263.99 870C263.44 874.67 262.51 881.65 261.94 885.5C261.36 889.35 260.43 894.98 259.87 898C259.31 901.02 258.46 905.08 257.99 907C257.51 908.92 256.639 912.52 256.049 915C255.459 917.48 253.379 925.35 251.419 932.5C249.469 939.65 247.04 948.42 246.03 952C245.02 955.58 243.24 961.88 242.06 966C240.89 970.13 239.269 975.86 238.459 978.75C237.659 981.64 236.29 986.59 235.43 989.75C234.56 992.91 232.96 999.55 231.86 1004.5C230.77 1009.45 228.98 1018.22 227.9 1024C226.82 1029.78 225.649 1040.13 225.299 1047C224.719 1058.49 224.84 1059.87 226.82 1064C228 1066.47 230.67 1070.47 232.74 1072.88C234.81 1075.29 240.1 1080.76 244.5 1085.05C248.899 1089.33 257 1096.54 262.5 1101.07C267.999 1105.6 276.549 1112.33 281.5 1116.02C286.45 1119.72 291.249 1123.59 292.169 1124.62C293.09 1125.65 297.03 1131.22 300.919 1137C305.789 1144.22 307.67 1147.81 306.95 1148.5C306.369 1149.05 299.959 1149.65 292.7 1149.84C284.29 1150.06 278.05 1149.75 275.5 1148.98C273.3 1148.32 270.599 1147.43 269.5 1147.01C268.399 1146.59 265.019 1145.49 262 1144.56C258.979 1143.63 253.27 1141.66 249.32 1140.18C244.4 1138.34 240.63 1136.07 237.32 1132.94C234.67 1130.43 227.099 1124.32 220.5 1119.36C213.9 1114.39 204.899 1107.94 200.5 1105.02C196.103 1102.09 192.426 1099.65 192.31 1099.6C192.21 1099.54 192.53 1095.45 193.02 1090.5C193.52 1085.55 194.59 1075.2 195.41 1067.5C196.23 1059.8 197.48 1047.2 198.19 1039.5C198.97 1030.89 199.46 1010.67 199.44 987C199.41 957.42 199.009 944.79 197.669 932.5C196.719 923.7 195.53 913.13 195.03 909C194.53 904.88 193.6 897 192.98 891.5C192.35 886 192.11 878.35 192.45 874.5C192.78 870.65 193.56 865.25 194.18 862.5C194.8 859.75 196.31 853.9 197.54 849.5C198.77 845.1 201.57 836.33 203.77 830C205.97 823.67 209.19 814.67 210.93 810C213.95 801.88 214.059 801.1 213.299 792.64C212.859 787.77 212.16 783.61 211.75 783.39C211.339 783.18 210.209 784.91 209.25 787.25C208.289 789.591 203.159 800.271 188.209 830.5L189.2 843.5C189.75 850.65 189.919 862.13 189.589 869C189.249 875.87 188.33 885.33 187.54 890C186.76 894.67 185.4 902.33 184.53 907C183.66 911.67 182.5 917.75 181.95 920.5C181.39 923.25 180.499 927.75 179.969 930.5C179.439 933.25 177.89 942.48 176.53 951C175.17 959.52 173.39 971.23 172.58 977C171.76 982.77 170.6 992 170 997.5C169.39 1003 168.45 1010.65 167.89 1014.5C167.34 1018.35 166.639 1035.45 166.339 1052.5C165.989 1071.82 166.23 1090.66 166.98 1102.5C167.63 1112.95 168.42 1126.9 168.73 1133.5C169.25 1144.72 169.11 1146.02 166.57 1153.5C165.07 1157.9 161.299 1166.61 158.169 1172.86C155.05 1179.1 151.71 1185.07 150.75 1186.11C149.25 1187.73 147.52 1188 128.5 1188.01L126.11 1179.75C124.8 1175.21 122.21 1165.76 120.36 1158.75C118.51 1151.74 116.92 1143.86 116.82 1141.25C116.73 1138.64 116.919 1136.05 117.259 1135.5C117.599 1134.95 119.299 1130 121.049 1124.5C122.789 1119 124.589 1112.92 125.04 1111C125.49 1109.08 127.389 1101.42 129.259 1094C131.129 1086.58 133.229 1077.8 133.919 1074.5C134.599 1071.2 135.58 1066.59 136.08 1064.25C136.59 1061.91 136.999 1055.84 137.009 1050.75C137.009 1045.66 136.37 1037.22 135.58 1032C134.8 1026.78 131.619 1010.13 128.509 995C125.409 979.88 121.339 960.08 119.459 951C117.58 941.92 115.36 930.23 114.52 925C113.67 919.77 112.44 912.13 111.79 908C111.13 903.88 110.57 892.63 110.54 883C110.51 869.37 110.86 864.4 112.14 860.5C113.05 857.75 115.369 852.13 117.299 848C119.239 843.88 122.58 837.35 124.74 833.5C126.9 829.65 129.69 824.7 130.95 822.5C132.21 820.3 134.029 817.38 135.009 816C135.979 814.63 138.13 810.8 139.77 807.5C141.61 803.83 143 799.17 143.36 795.5C143.69 792.2 144.19 781.74 145 755L141.25 751.38C139.189 749.39 133.229 745.76 128 743.3C122.77 740.84 117.149 738.21 115.5 737.46C113.4 736.5 111.979 734.73 110.75 731.54C109.79 729.04 108.66 727.01 108.25 727.02C107.839 727.039 103.959 723.779 99.6196 719.77C95.2899 715.77 91.1299 711.26 90.3696 709.75C89.5896 708.17 88.9993 703.91 89.0093 699.75C89.0093 695.76 88.5392 687.77 87.9692 682C87.3893 676.23 86.4399 668.58 85.8599 665C85.2699 661.38 82.9995 654.73 80.7495 650C78.5295 645.33 73.9897 637.45 70.6597 632.5C67.3298 627.55 63.0898 621.48 61.2397 619C59.3898 616.52 57.3295 613.83 56.6694 613C56.0095 612.17 54.3698 609.92 53.0298 608C51.6898 606.08 50.3296 604.27 49.9995 604C49.6595 603.73 47.3897 600.58 44.9497 597C42.4997 593.42 40.2592 590.27 39.9692 590C39.6685 589.729 36.2493 584.769 32.3599 579C28.4699 573.23 23.2493 565.13 20.7593 561C18.2793 556.88 14.6598 550.13 12.7397 546C10.8098 541.88 8.3195 535.8 7.20947 532.5C6.08952 529.2 4.60017 524.02 3.89014 521C2.83015 516.49 2.82971 513.89 3.90967 506.5C4.62964 501.55 5.80955 494.8 6.53955 491.5C7.25952 488.2 8.57924 482.8 9.46924 479.5C10.3592 476.2 12.4594 469.68 14.1294 465C15.7993 460.32 17.3998 455.6 17.6899 454.5C17.9699 453.4 17.0694 445.52 15.6694 437C14.2795 428.48 12.6797 418.13 12.1196 414C11.5596 409.88 10.6501 402.68 10.1001 398C9.55011 393.32 8.84932 383.99 8.54932 377.25C8.24933 370.51 7.37961 363.09 6.61963 360.75C5.85965 358.41 4.75944 353.8 4.16943 350.5C3.57945 347.2 2.58947 341.57 1.95947 338C1.33948 334.43 0.820072 324.98 0.810059 317C0.790059 305.41 1.18944 301 2.83936 295C3.96931 290.88 5.5398 285.7 6.31982 283.5C7.1098 281.3 8.67983 277.7 9.81982 275.5C10.9598 273.3 13.6293 269.48 15.7593 267C18.1793 264.2 22.0699 261.32 26.0698 259.37C29.6098 257.65 34.9795 255.229 37.9995 253.989C41.0193 252.749 44.3992 251.41 45.4995 251C46.5994 250.6 48.6195 249.79 49.9995 249.21C51.3695 248.63 61.7296 244.54 72.9995 240.12C84.2692 235.7 94.8491 231.44 96.4995 230.64C98.1495 229.84 101.64 228.25 104.25 227.1C106.859 225.94 111.139 224.06 113.75 222.92C116.359 221.78 126.15 217.04 135.5 212.39C144.85 207.74 153.22 203.38 154.11 202.72C154.99 202.05 157.3 198.35 159.25 194.5C161.189 190.65 164.439 183.22 166.469 178C168.509 172.78 171.429 164.68 172.969 160C174.519 155.32 176.559 148.35 177.509 144.5C178.819 139.18 179.09 135.35 178.61 128.5C178.27 123.55 177.71 114.1 177.37 107.5C176.82 96.7202 176.99 94.7397 179.08 88C180.36 83.8802 181.97 79.3803 182.66 78C183.84 75.64 183.55 75.1599 177.45 69.25C173.9 65.8101 168.96 59.96 166.48 56.25C163.99 52.5401 161.05 46.58 159.95 43C158.86 39.4204 157.959 35.8306 157.969 35C157.979 34.1 158.89 34.7 160.24 36.5C161.48 38.1502 165.42 42.4299 169 46.0098C172.57 49.5898 176.85 53.65 178.5 55.04C180.149 56.43 183.64 59.0093 186.25 60.7793C188.859 62.5491 191.449 63.9997 192 64C192.55 64 195.36 62.1993 198.25 59.9893C201.139 57.7893 205.98 55.0201 209 53.8301C213.209 52.1901 216.8 51.6599 224.299 51.5898C233.929 51.4998 234.079 51.4598 233.549 49.25C233.249 48.01 231.34 44.4099 229.32 41.25C227.29 38.0901 222.68 32.5399 219.07 28.9199C215.46 25.2999 209.58 20.3795 206 17.9795C202.419 15.5795 194.099 11.0692 187.5 7.94922C180.9 4.83927 174.379 1.79995 173 1.20996C170.82 0.269996 171.23 0.129337 176.25 0.0693359ZM145.94 677.5C145.3 676.84 144.999 677.7 145.049 680C145.099 681.92 145.53 684.4 146 685.5C146.799 687.35 146.879 687.32 147.089 685C147.209 683.62 147.23 681.6 147.12 680.5C147.01 679.4 146.48 678.05 145.94 677.5ZM102.969 425.18C102.569 425.001 101.899 426.13 101.5 427.68C101.09 429.23 100.109 432.75 99.2993 435.5C98.4993 438.25 96.7093 443.87 95.3394 448C93.9594 452.12 92.4593 456.4 92.0093 457.5C91.5692 458.6 90.6592 460.85 90.0093 462.5C89.3494 464.15 89.0293 466.62 89.2993 468C89.5795 469.37 92.1499 475.68 95.0298 482C97.8998 488.32 101.129 496.2 102.209 499.5C103.279 502.8 104.8 507.86 105.58 510.75C106.48 514.07 107.009 521.05 107.009 529.75C107.019 537.31 107.69 552.5 108.49 563.5C109.29 574.5 110.4 587.1 110.94 591.5C111.49 595.9 112.399 601.98 112.959 605C113.529 608.02 114.409 612.52 114.919 615C115.429 617.48 116.6 621.75 117.52 624.5C118.43 627.25 120.2 631.3 121.45 633.5C122.71 635.73 126.76 639.8 130.61 642.71C134.4 645.57 140.2 649.33 143.5 651.05C148.21 653.52 149.66 653.9 150.23 652.85C150.64 652.109 150.98 650.04 150.98 648.25C150.99 646.46 151.46 641.74 152.02 637.75C152.58 633.76 153.5 626.9 154.06 622.5C154.63 618.1 155.52 611.8 156.03 608.5C156.54 605.2 158.159 595.3 159.629 586.5C161.099 577.7 162.64 568.48 163.06 566C163.48 563.52 164.3 558.8 164.87 555.5C165.44 552.2 166.41 547.02 167.02 544C167.63 540.98 168.38 533.77 168.69 528C169 522.07 168.74 513.8 168.08 509C167.44 504.32 166.51 498.7 166.03 496.5C165.54 494.3 163.87 486.48 162.32 479.12C159.9 467.65 159.139 465.48 157 464C155.62 463.05 150 459.91 144.5 457.02C139 454.14 132.019 450.4 129 448.71C125.98 447.03 121.28 443.82 118.57 441.58C115.86 439.33 111.409 434.8 108.679 431.5C105.949 428.2 103.379 425.36 102.969 425.18Z"
        fill="currentColor" />
</svg>