<svg width="610" height="474" viewBox="0 0 610 474" fill="currentColor"
    xmlns="http://www.w3.org/2000/svg">
    <path
        d="M0 1C0 1.55 0.79 2.21001 1.75 2.46001C2.71 2.71001 7.1 5.25001 11.5 8.10001C15.9 10.96 24.04 17.83 29.61 23.39C35.16 28.95 41.93 36.88 44.64 41C48.11 46.28 49.92 50.28 50.75 54.5C51.4 57.8 52.18 63.65 52.48 67.5C52.79 71.35 53.53 85.3 54.13 98.5C54.73 111.7 55.5 125.88 55.86 130C56.49 137.35 56.56 137.52 59.7 138.5C61.45 139.05 63.7 140.3 64.7 141.28C66.43 143 66.38 143.29 63.17 149.28L59.84 155.5C63.27 169.45 65.28 176.2 66.5 179.5C67.73 182.8 71.01 190.23 73.8 196C76.58 201.77 80.24 208.41 81.93 210.75C83.96 213.56 85.76 215.01 87.25 215.02C88.49 215.03 91.3 215.51 93.5 216.1C95.7 216.68 99.3 217.64 101.5 218.24C103.7 218.83 107.3 220.32 109.5 221.56C111.7 222.79 114.41 225.09 115.51 226.65C116.62 228.22 118.06 230.63 118.7 232C119.35 233.38 120.78 237.2 121.88 240.5C122.98 243.8 124.13 248.19 124.44 250.25C124.88 253.17 125.39 253.91 126.75 253.58C127.71 253.36 130.97 252.21 134 251.04C137.4 249.72 142.18 248.83 146.5 248.7C152.52 248.53 153.78 248.17 155.5 246.11C156.6 244.79 158.29 243.33 159.25 242.86C160.28 242.35 161.92 242.42 163.25 243.03C164.49 243.6 166.06 244.95 166.75 246.03C167.68 247.5 167.75 249.2 167 252.75C166.327 255.923 166.327 257.923 167 258.75C167.76 259.7 169.03 258.98 172.29 255.75C174.66 253.41 178.59 250.49 181.04 249.25C183.49 248.01 185.61 247.45 185.75 248C185.89 248.55 184.78 250.69 183.28 252.75C181.79 254.81 176.28 260.78 171.03 266.01C165.79 271.24 159.7 277.11 157.5 279.05C155.3 280.99 147.87 287.06 141 292.53C134.12 298.01 125.34 305.65 121.48 309.5C115.62 315.33 113.52 318.42 108.84 328C105.76 334.32 102.54 341.07 101.69 343C100.84 344.93 98.57 350.77 96.66 356C94.74 361.23 92.25 369.33 91.13 374C90.01 378.67 88.62 384.64 88.05 387.25C87.47 389.86 86.53 395.04 85.95 398.75C85.38 402.46 84.27 411.13 83.48 418C82.7 424.88 82.05 433.31 82.03 436.75C82.01 440.19 82.45 443.23 83 443.5C83.55 443.77 84.45 443.44 84.99 442.75C85.54 442.06 86.65 438.13 87.46 434C88.27 429.88 89.34 424.7 89.85 422.5C90.36 420.3 91.52 416.48 92.44 414C93.36 411.52 95.54 406.8 97.28 403.5C99.03 400.2 100.69 397.27 100.98 397C101.27 396.73 102.85 394.52 104.5 392.11C106.15 389.7 109.97 385.4 113 382.57C116.03 379.74 119.74 377.1 121.25 376.71C123.16 376.22 124.81 376.54 126.63 377.75C128.07 378.71 129.65 380.29 130.13 381.25C130.61 382.21 131.45 383 132 383C132.55 383 135.36 380.48 138.25 377.39C141.14 374.31 144.85 371.1 146.5 370.27C148.15 369.43 151.3 368.63 153.5 368.48C155.7 368.33 158.74 368.83 160.25 369.6C161.76 370.37 163.22 371 163.5 371C163.78 371 164 370.33 164 369.5C164 368.67 165.53 364.74 167.4 360.75C169.27 356.76 172.49 351.25 174.55 348.5C176.62 345.75 179.7 342.2 181.4 340.62C184.07 338.14 184.98 337.84 188 338.48C189.93 338.89 192.06 339.39 192.75 339.61C193.5 339.84 194 339.09 194 337.75C194 336.51 194.62 332.57 195.39 329C196.15 325.43 197.73 320.02 198.89 317C200.06 313.98 201.43 310.82 201.95 310C202.47 309.18 203.25 308.88 203.69 309.34C204.14 309.81 204.36 315.21 204.19 321.34C203.95 330.16 203.5 333.02 202.07 335C201.08 336.38 199.42 339.07 198.38 341C196.86 343.83 196.37 347.65 195.81 361C195.44 370.08 194.73 380.2 194.24 383.5C193.75 386.8 192.49 390.68 191.43 392.13C190.37 393.58 187.93 395.79 186 397.06C183.22 398.88 180.95 399.39 175 399.52C169.05 399.66 166.68 400.19 163.54 402.1C161.36 403.42 159 405.06 158.29 405.75C157.58 406.44 157.11 407.21 157.25 407.46C157.39 407.71 160.76 406.81 164.75 405.46C168.74 404.11 173.8 403 176 403C178.2 403 180.23 403.45 180.5 404C180.77 404.55 179.54 405.64 177.75 406.42C175.96 407.21 172.92 409.57 170.98 411.67C169.04 413.78 166.34 416.74 164.98 418.25C163.62 419.76 162.83 421.33 163.22 421.75C163.62 422.16 165.2 421.63 166.72 420.56C168.25 419.5 170.85 417.35 172.5 415.79C174.15 414.23 180.23 410.63 186 407.79C191.77 404.96 197.4 402.32 198.5 401.92C199.6 401.53 201.85 400.73 203.5 400.16C205.15 399.59 208.07 398.81 210 398.43C211.93 398.05 215.52 397.78 218 397.82C222.19 397.89 222.36 397.8 220.5 396.43C219.4 395.63 217.6 394.92 216.5 394.85C215.4 394.79 211.57 394.69 208 394.62L201.5 394.5C201.75 385.98 202.96 380.13 204.36 376C205.75 371.88 208.49 364.79 210.45 360.25C213.54 353.06 214.01 350.94 214.04 343.75C214.06 339.21 214.69 332.35 215.44 328.5C216.18 324.65 218.37 315.2 220.31 307.5C222.25 299.8 224.43 290.23 225.17 286.24C225.9 282.25 226.73 278.99 227 278.99C227.27 278.99 228.12 283.15 228.89 288.24C229.65 293.33 231.3 302.45 232.56 308.5C233.82 314.55 235.58 321.75 236.48 324.5C237.37 327.25 238.47 330.4 238.93 331.5C239.38 332.6 240.26 334.74 240.88 336.25C241.49 337.76 242.01 341.14 242.02 343.75C242.03 346.36 242.48 351.54 243.02 355.25C243.65 359.56 245.4 364.81 247.87 369.75C250.01 374.01 252.67 380.65 253.79 384.5C254.91 388.35 256.31 393.3 256.9 395.5C257.49 397.7 257.98 401.08 258 403C258.01 404.92 257.07 409.42 255.91 413C254.74 416.58 253.16 420.74 252.4 422.25C251.63 423.76 249.99 425.94 248.75 427.08C247.51 428.23 245.94 430.81 245.27 432.83C244.59 434.85 244.02 438.41 244.02 440.75C244.01 443.09 244.45 445 245 445C245.55 445 246.01 444.21 246.03 443.25C246.04 442.29 247.39 438.91 249.03 435.75C250.66 432.59 253.46 428.42 255.25 426.5C257.04 424.57 259.18 422.98 260 422.95C260.82 422.93 262.07 423.49 262.76 424.21C263.46 424.92 264.29 428.2 264.6 431.5C264.92 434.8 264.72 439.52 264.15 442C263.59 444.48 263.32 446.61 263.56 446.75C263.8 446.89 264.79 446.08 265.75 444.95C266.71 443.83 268.06 441.01 268.73 438.7C269.41 436.39 269.98 433.49 269.98 432.25C269.99 431.01 269.06 427.86 267.91 425.25C266.4 421.83 265.7 417.77 265.41 410.75C265.18 405.39 264.27 397.51 263.39 393.25C262.2 387.53 261.9 382.23 262.26 373C262.53 366.13 262.36 358.93 261.88 357C261.41 355.07 258.78 350.13 256.03 346L251.03 338.5C251.01 315.73 251.4 309.8 252 309.5C252.55 309.23 254.56 311.14 256.46 313.75C258.75 316.9 259.95 319.68 260.01 322C260.05 323.93 260.71 326.85 261.46 328.5C262.22 330.15 262.89 330.82 262.96 330C263.03 329.12 263.69 329.64 264.54 331.25C265.34 332.76 266.49 337.26 267.09 341.25C267.69 345.24 268.48 348.81 268.84 349.2C269.2 349.58 271.52 349.46 274 348.92C276.48 348.39 279.4 348.26 280.5 348.64C281.6 349.03 284.47 351.18 286.88 353.42C289.29 355.66 293.17 360.2 295.51 363.5C297.85 366.8 301.17 372.31 302.88 375.75C304.6 379.19 306 382.67 306 383.5C306 384.33 306.45 385.23 307 385.5C307.55 385.77 309.91 385.28 312.25 384.39C315.06 383.33 317.94 382.99 320.75 383.39C323.09 383.73 327.25 385.13 330 386.5C332.75 387.88 337.96 392.04 341.58 395.75C347.17 401.48 348.35 402.27 349.33 400.98C349.98 400.15 352.3 398.05 354.5 396.33C358.19 393.44 358.77 393.28 362 394.31C363.93 394.92 365.73 395.68 366 396.01C366.27 396.33 368.07 397.67 370 398.98C371.93 400.3 376.39 404.33 379.91 407.94C383.44 411.55 387.99 416.98 390.03 420C392.06 423.02 395.36 428.76 397.36 432.75C399.36 436.74 402.08 443.26 403.39 447.25C404.7 451.24 406.37 457.65 407.08 461.5C407.8 465.35 409.31 469.71 410.44 471.19C411.57 472.68 412.84 473.91 413.25 473.94C413.66 473.98 414 470.17 414 465.5C414 460.83 413.56 452.61 413.01 447.25C412.47 441.89 411.52 434.35 410.9 430.5C410.29 426.65 409.12 420.35 408.32 416.5C407.52 412.65 406.44 407.81 405.93 405.75C405.42 403.69 404.6 400.31 404.11 398.25C403.63 396.19 402.23 391.35 401.02 387.5C399.8 383.65 397.47 377.35 395.83 373.5C394.2 369.65 390.46 361.55 387.53 355.5C384.6 349.45 379.86 340.68 377 336C374.13 331.32 369.48 325.21 366.65 322.42C363.82 319.62 357 313.95 351.5 309.81C346 305.68 338.35 300.12 334.5 297.46C330.65 294.81 321.91 288.1 315.07 282.57C308.23 277.03 298.42 268.45 293.28 263.5C288.13 258.55 283.93 254.16 283.96 253.75C283.98 253.34 285.01 253.01 286.25 253.01C287.49 253.02 291.2 253.99 294.5 255.18C297.8 256.36 302.07 258.26 304 259.39C305.93 260.51 308.06 262.01 308.75 262.72C309.62 263.61 310.46 263.7 311.5 263C312.62 262.25 312.84 260.93 312.38 257.75C311.9 254.4 312.14 253.18 313.54 252C314.57 251.12 317.29 250.5 320.07 250.5C323.64 250.5 325.43 251.06 327.17 252.73C328.85 254.34 330.75 254.97 334 255C336.48 255.02 342.1 255.68 346.5 256.47C350.9 257.27 356.98 258.63 360 259.51C363.02 260.39 365.78 260.75 366.13 260.31C366.47 259.86 367.98 257.25 369.49 254.5C370.99 251.75 374.53 247.21 377.36 244.42C380.19 241.62 384.52 238.55 387 237.58C389.48 236.61 395.32 235.41 400 234.91C404.68 234.41 411.65 233.65 415.5 233.23C421.71 232.55 423.18 231.94 428.5 227.89C431.8 225.37 438.77 218.7 444 213.05C449.23 207.41 455.41 199.92 457.75 196.4C460.09 192.88 462 189.77 462 189.5C462 189.23 463.35 186.98 465 184.5L468 180C464.9 173.8 463.99 170.54 463.98 168.75C463.96 165.87 464.38 165.36 467.73 164.27C469.8 163.59 472.4 163.04 473.5 163.04C474.69 163.05 476.06 161.94 476.88 160.28C477.64 158.75 478.62 156.6 479.06 155.5C479.49 154.4 482.1 147.65 484.85 140.5C487.59 133.35 491.9 121.31 494.42 113.75C496.94 106.19 500.17 96.96 501.6 93.25C503.03 89.54 505.77 83.12 507.69 79C509.61 74.87 512.83 69.51 514.84 67.08C516.85 64.64 521.65 60.1 525.5 56.98C529.35 53.87 536.55 48.61 541.5 45.3C546.45 41.99 556.13 36.57 563 33.26C569.88 29.96 577.64 26.29 580.25 25.12C582.86 23.96 585.9 23 587 23C588.1 23 589.23 22.55 589.5 22C589.77 21.45 591.46 20.8 593.25 20.55C595.04 20.3 599.2 19.63 602.5 19.06C605.8 18.48 608.73 17.8 609 17.53C609.27 17.26 608.83 16.3 608 15.4C606.78 14.06 605.37 13.87 600.5 14.4C597.2 14.75 592.92 15.45 591 15.95C589.08 16.45 584.8 17.41 581.5 18.09C578.2 18.77 569.65 20.79 562.5 22.57C555.35 24.36 545.23 27.24 540 28.97C534.77 30.71 529.15 32.73 527.5 33.46C525.85 34.2 517.98 37.37 510 40.5C502.02 43.63 489.2 49.3 481.5 53.11C473.8 56.92 464.56 61.71 460.97 63.77C457.38 65.82 450.86 69.75 446.47 72.49C442.09 75.24 437.65 78.16 436.61 78.99C435.56 79.82 431.51 83.22 427.61 86.55C423.7 89.88 417.13 95.28 413 98.55C408.87 101.82 403.02 106.41 400 108.75C396.98 111.09 390 116.25 384.5 120.22C379 124.19 374.27 127.72 374 128.05C373.73 128.39 370.11 130.87 365.97 133.58C361.83 136.29 357.56 139.04 356.47 139.71C355.39 140.37 350.26 143.52 345.08 146.71C339.9 149.89 333.83 153.57 331.58 154.89C329.34 156.2 322.32 159.93 316 163.17C309.68 166.41 303.94 169.04 303.25 169.03C302.56 169.01 302 169.45 302 170C302 170.55 301.44 170.99 300.75 170.98C300.06 170.96 296.57 172.27 293 173.87C289.43 175.48 281.55 178.45 275.5 180.47C269.45 182.49 262.36 184.56 259.75 185.07C255.21 185.96 254.68 185.81 247.89 181.75C243.98 179.41 240.6 177.16 240.39 176.75C240.17 176.34 241.46 174.09 243.25 171.75C245.04 169.42 248.3 165.7 250.51 163.5C252.71 161.3 257.15 157.7 260.37 155.5C263.58 153.3 268.08 149.44 270.36 146.93C272.64 144.41 275.18 141.48 276 140.42C276.82 139.35 278.81 136.01 280.42 132.99C282.02 129.97 283.74 126.15 284.24 124.5C284.74 122.85 285.79 118.57 286.57 115C287.36 111.43 288.01 104.22 288.03 99C288.05 89.68 287.98 89.39 284.22 83.5C282.12 80.2 277.59 74.57 274.17 71C270.74 67.43 267.71 64.72 267.43 65C267.15 65.28 267.69 68.65 268.64 72.5C269.86 77.43 270.37 83.63 270.37 93.5C270.38 101.34 269.82 109.92 269.1 113C268.4 116.02 266.87 121.65 265.71 125.5C264.54 129.35 261.88 135.88 259.8 140C257.72 144.12 255.45 148.39 254.76 149.48C254.07 150.57 252.18 153.5 250.57 155.98C248.95 158.47 247.37 160.73 247.06 161C246.75 161.27 245.3 163.07 243.86 165C242.41 166.93 240.16 169.79 238.86 171.37C236.53 174.2 236.46 174.21 233.5 172.53C231.85 171.6 228.59 168.17 226.25 164.92C223.15 160.6 222.28 158.66 223.04 157.75C223.61 157.06 224.17 153.98 224.29 150.91C224.42 147.51 223.91 144.18 223 142.41C222.18 140.81 220.94 138.94 220.25 138.25C219.56 137.56 218.66 137 218.25 136.99C217.84 136.99 215.93 136.56 214 136.02C210.74 135.13 210.41 134.66 209.25 129.28C208.56 126.1 207.56 119.9 207.03 115.5C206.4 110.25 206.41 104.4 207.08 98.5C207.63 93.55 208.79 86.57 209.65 83C210.51 79.43 211.89 74.7 212.7 72.5C213.52 70.3 214.69 67.37 215.3 66C215.91 64.62 216.65 63.06 216.95 62.52C217.25 61.98 215.97 62.43 214.11 63.52C212.25 64.61 207.06 69.1 202.59 73.5C198.11 77.9 193.57 83.3 192.49 85.5C191.02 88.49 190.43 92.16 190.16 100C189.95 105.82 190.35 113.62 191.04 117.5C191.74 121.39 194.03 128.06 196.19 132.5L200.09 140.5C197.04 145.93 195.86 149.52 195.49 152C194.89 156.1 195.11 156.79 197.92 159.75C199.61 161.54 201.29 164.24 201.64 165.75C201.99 167.26 202.78 169.08 203.39 169.79C204 170.51 205.96 171.07 207.75 171.04C210.46 171.01 211 171.37 211.01 173.25C211.02 174.49 210.68 176.97 210.26 178.77C209.84 180.57 209.05 182.04 208.5 182.03C207.95 182.01 203.68 179.45 199 176.33C194.32 173.22 188.23 168.83 185.47 166.58C182.7 164.34 177.55 160.02 174.02 157C170.49 153.98 161.51 145.52 154.05 138.21C146.6 130.9 139.07 123.03 137.32 120.71C135.57 118.4 133.31 115.6 132.31 114.5C131.3 113.4 128.92 110.48 127.02 108C125.11 105.53 123.3 103.28 123 103C122.7 102.72 120.9 100.47 119 98C117.1 95.53 115.3 93.28 114.99 93C114.69 92.72 110.4 87.12 105.47 80.54C100.54 73.95 91.32 63.36 85 57C78.68 50.63 71.03 43.42 68 40.98C64.97 38.53 62.28 36.27 62 35.97C61.72 35.66 59.93 34.32 58 33C56.07 31.68 54.28 30.33 54 30C53.72 29.67 51.93 28.32 50 27C48.07 25.68 46.28 24.35 46 24.05C45.72 23.74 43.7 22.33 41.5 20.92C39.3 19.5 35.47 17.06 33 15.51C30.53 13.95 22.99 9.82 16.25 6.34C9.51 2.85 3.1 0 2 0C0.9 0 0 0.45 0 1Z"
        fill="currentColor" />
</svg>