<svg width="640" height="484" viewBox="0 0 640 484" fill="currentColor"
    xmlns="http://www.w3.org/2000/svg">
    <path
        d="M309 0.149902C312.02 0.0999222 316.52 0.500539 319 1.04053C321.48 1.59048 324.539 2.59005 325.82 3.27002C327.659 4.24999 329.1 4.23965 332.82 3.23975C336.7 2.18975 338.86 2.23021 345.5 3.47021C349.9 4.29021 355.19 5.41999 357.25 5.97998C359.31 6.53998 362.46 7.38988 364.25 7.85986C366.04 8.33993 372 10.3998 377.5 12.4497C383 14.4997 393.56 19.1803 400.97 22.8403C408.38 26.5003 420.08 33.2696 426.97 37.8696C433.86 42.4696 441.52 47.9595 444 50.0796C446.48 52.1896 449.06 53.9304 449.75 53.9604C450.44 53.9801 451.34 52.3701 451.75 50.3804C452.16 48.3804 452.95 46.53 453.5 46.27C454.05 46.0001 454.82 46.1702 455.21 46.6401C455.61 47.1107 456.2 50.6508 456.53 54.5005C457.06 60.7401 457.5 61.8807 464 68.5005L467.39 65.0005C469.7 62.6305 470.98 61.9005 471.39 62.7505C471.73 63.4411 471.529 66.5917 469.9 75.5005L474.95 82.2505C477.73 85.9606 481.77 92.7107 483.92 97.2505C486.08 101.79 488.41 107.531 489.09 110C489.77 112.47 491.38 115.631 492.65 117C493.92 118.38 494.97 120.51 494.98 121.75C495 123.89 494.72 123.97 489.25 123.44C486.09 123.13 482.6 122.61 481.5 122.27C479.71 121.73 479.58 121.97 480.29 124.58C480.73 126.19 481.55 129.52 482.11 132C482.699 134.581 482.86 140.561 482.5 146C482.15 151.231 480.74 160.901 479.37 167.5C478 174.1 476.24 183.321 475.45 188C474.65 192.68 474.01 199.651 474 203.5C474 207.351 474.67 216.131 475.48 223C476.3 229.88 478.11 240.231 479.51 246C480.91 251.77 482.93 258.981 483.98 262C485.5 266.34 487.13 268.561 491.7 272.5C494.89 275.251 499.98 279.991 503 283.041C506.02 286.081 510.54 291.711 513.04 295.541C515.54 299.371 519.55 306.551 521.96 311.5C524.38 316.45 528.02 322.981 530.06 326C532.1 329.02 535.73 333.71 538.13 336.4C540.54 339.1 544.86 342.81 547.75 344.65C550.9 346.66 554.3 348.01 556.25 348.02C558.18 348.03 560.93 346.99 563 345.48C564.92 344.07 567.75 341.48 569.27 339.71C570.8 337.95 574.37 333.13 577.2 329C580.04 324.881 584.57 318.801 587.28 315.5C589.98 312.2 594.06 307.98 596.35 306.12C598.63 304.26 602.3 301.91 604.5 300.89C606.7 299.88 610.52 299.03 613 299.02C615.5 299 619.05 299.82 621 300.84C622.92 301.86 626.19 304.9 628.26 307.6C630.33 310.29 633.32 315.88 634.91 320C636.5 324.131 638.35 330.881 639.02 335C639.74 339.421 640.02 346.821 639.71 353C639.43 358.77 638.49 365.981 637.63 369C636.77 372.02 635.61 374.951 635.04 375.5C634.347 376.167 633.703 376.167 633.11 375.5C632.62 374.951 631.92 371.57 631.57 368C631.21 364.431 630.67 359.701 630.37 357.5C630.07 355.301 629.38 351.931 628.85 350C628.31 348.071 627.11 344.76 626.19 342.63C625.24 340.461 623.29 338.141 621.75 337.38C620.24 336.62 617.65 336.001 616 336C614.35 336 611.31 336.84 609.25 337.86C607.19 338.89 603.7 341.76 601.5 344.25C599.3 346.741 596.04 351.19 594.26 354.14C592.47 357.09 589.83 362.431 588.39 366C586.87 369.75 585.53 375.461 585.21 379.5C584.71 385.67 584.96 387.181 587.32 392.25C588.8 395.41 591.14 398.791 592.54 399.75C595.05 401.48 595.161 401.449 603.29 396.33C607.8 393.49 611.87 391.47 612.33 391.83C612.78 392.2 612.38 394.08 611.44 396C610.499 397.921 606.3 402.881 602.12 407C597.37 411.68 592.34 415.54 588.75 417.25C585.59 418.76 581.42 420 579.5 420C577.58 420 574.76 419.39 573.25 418.63C571.74 417.88 569.21 415.74 567.63 413.88C566.05 412.02 563.85 408.7 562.75 406.5C561.65 404.301 559.85 399.58 558.75 396C557.66 392.421 555.69 385.23 554.37 380C553.06 374.771 551.43 369.2 550.74 367.61C549.92 365.7 545.44 361.91 537.5 356.39C530.9 351.8 520.33 344.03 514 339.12C507.67 334.21 497.77 325.54 491.99 319.85C484.491 312.47 479.26 306.13 473.74 297.75C469.481 291.292 465.551 285.773 465 285.5C464.45 285.231 464 283.09 464.01 280.75C464.01 278.411 463.34 271.77 462.53 266C461.72 260.231 459.93 251.231 458.56 246C457.19 240.771 455.22 234.021 454.17 231C453.13 227.98 450.3 221.52 447.89 216.65C445.47 211.78 442.28 206.38 440.79 204.65C438.24 201.68 438.08 201.63 438.04 203.75C438.02 204.99 437.55 206 437 206C436.45 206 434.63 204.31 429.91 198.5L420.7 204.45C415.64 207.72 406.32 212.84 400 215.84C393.68 218.83 386.02 222.06 383 223.02C379.98 223.98 374.57 225.47 371 226.33C367.43 227.19 362.02 228.39 359 228.99C354.46 229.89 352.54 231 348 235.31C344.98 238.18 340.2 243.22 337.39 246.51C334.59 249.81 330.42 255.311 328.14 258.75C325.86 262.19 324 265.901 324 267C324 268.101 323.3 270.691 322.43 272.75C321.57 274.811 319.37 278.301 317.54 280.5C315.71 282.701 312.59 287.881 310.6 292C307.74 297.94 307.12 300.231 307.61 303C307.94 304.931 310.461 312.351 313.2 319.5C316.01 326.83 318.54 332.06 318.99 331.5C319.43 330.951 322.1 326.9 324.93 322.5C327.759 318.101 330.209 314.052 330.37 313.5C330.54 312.94 331.46 313.16 332.46 314C333.45 314.821 335.04 317.301 336 319.5C336.96 321.701 338.25 325.861 338.87 328.75C339.49 331.641 340 337.041 340.01 340.75C340.02 344.46 340.35 349.16 340.76 351.18C341.33 354.03 341.84 354.68 343 354.05C343.82 353.61 347.01 350.15 350.08 346.37C353.15 342.59 357.43 336.9 359.58 333.71C361.74 330.53 364.06 327.94 364.75 327.96C365.441 327.981 368.59 330.88 371.75 334.39C374.91 337.91 378.96 343.65 380.75 347.14C382.53 350.64 384.91 356.201 386.02 359.5C387.13 362.801 388.69 368.651 389.48 372.5C390.28 376.351 391.62 386.021 392.46 394C393.31 401.981 394 414.691 394 422.25C394 429.81 393.52 439.261 392.94 443.25C392.35 447.24 391.45 451.961 390.94 453.75C390.42 455.54 389.55 457 389 457C388.45 457 387.8 455.99 387.56 454.75C387.32 453.511 386.87 445.86 386.56 437.75C386.19 428.011 385.169 419.01 383.57 411.25C382.23 404.791 380.27 396.801 379.2 393.5C378.13 390.201 376.25 385.251 375.02 382.5C373.79 379.751 372.07 375.931 371.2 374C370.321 372.071 369.351 370.272 369.04 370C368.73 369.73 367.66 367.93 366.65 366C365.64 364.071 363.92 361.38 360.84 357.5L357.83 361C356.18 362.931 352.95 366.53 350.66 369.01C348.37 371.48 344.89 375.31 342.93 377.51C340.28 380.47 339.17 382.791 338.64 386.5C338.25 389.251 337 395.771 335.88 401C334.75 406.23 332.94 413.651 331.86 417.5C330.78 421.35 329.02 426.861 327.95 429.75C326.881 432.64 325.55 435 325 435C324.45 435 323.831 434.66 323.62 434.25C323.41 433.84 323.88 428.1 324.67 421.5C325.59 413.841 326 402.81 325.5 372.5L320 364.23C316.971 359.69 314.051 355.981 313.5 356.01C312.95 356.03 310.02 358.18 307 360.78C303.98 363.39 300.66 366.19 299.64 367.01C297.92 368.38 297.469 368.15 290.06 359.5L290.03 364.75C290.01 367.641 289.55 374.391 288.99 379.75C288.44 385.11 287.52 392.421 286.95 396C286.39 399.581 285.45 405.201 284.87 408.5C284.29 411.8 283.3 415.759 282.66 417.29C282.02 418.819 281.16 420.059 280.75 420.04C280.34 420.02 280.05 409.76 280.11 397.25C280.18 384.741 279.709 370.001 279.07 364.5C278.43 359.001 277.17 351.131 276.25 347C275.19 342.241 273.84 338.85 272.54 337.73C271.42 336.76 270.16 335.97 269.75 335.98C269.34 335.99 269.01 336.34 269.02 336.75C269.04 337.162 269.491 339.301 270.03 341.5C270.571 343.701 271.69 348.881 272.51 353C273.46 357.801 273.99 366.271 273.98 376.5C273.97 386.85 273.44 394.971 272.47 399.5C271.65 403.35 270.31 407.171 269.49 408C268.531 408.98 267.71 409.15 267.14 408.5C266.66 407.95 265.32 401.2 264.17 393.5C263.02 385.801 260.94 375.901 259.55 371.5C258.17 367.101 256.13 362.041 255.02 360.25C253.61 357.991 252.24 357.001 250.5 357C248.85 357 246.38 358.62 243.25 361.75C240.64 364.361 237.08 369.201 235.34 372.5C233.59 375.801 231.27 381.431 230.16 385C229.06 388.581 227.61 394.651 226.94 398.5C226.27 402.35 225.97 408.201 226.28 411.5C226.591 414.8 227.67 419.491 228.67 421.92C229.68 424.34 231.63 427.17 233 428.2C234.38 429.23 236.29 430.05 237.25 430.03C238.21 430.02 240.8 429.1 243 428C245.2 426.9 247.9 426 249 426C250.11 426.001 251 426.671 251 427.5C251 428.331 249.75 430.241 248.22 431.75C246.7 433.261 244 435.741 242.22 437.25C240.45 438.76 237.31 440.85 235.25 441.88C233.19 442.91 229.93 444.08 228 444.47C226.07 444.86 222.7 444.83 220.5 444.41C217.87 443.9 215.32 442.41 213.06 440.07C211.17 438.11 208.61 434.25 207.38 431.5C206.14 428.751 203.28 419.52 201.02 411C198.76 402.481 195.74 391.671 194.3 387C192.87 382.321 190.41 375.571 188.85 372C187.28 368.43 185.78 365.73 185.5 366C185.23 366.272 183.539 371.102 178.5 386.95L167 381.5C160.24 378.301 154.06 376.03 152 375.99C148.69 375.93 148.35 376.24 145.84 381.71C144.37 384.901 142.21 390.651 141.03 394.5C139.85 398.35 138.43 403.751 137.87 406.5C137.32 409.251 136.24 415.771 135.47 421C134.69 426.231 134.06 437.021 134.06 445C134.06 452.98 134.71 464.231 135.5 470C136.29 475.77 136.95 481.291 136.97 482.25C136.99 483.21 136.32 484 135.5 484C134.68 484 133.35 482.54 132.55 480.75C131.75 478.961 129.98 472.1 128.63 465.5C127.27 458.901 125.56 449.671 124.83 445C124 439.671 123.5 427.54 123.5 412.5C123.5 396.661 123.96 385.951 124.86 381C125.6 376.881 126.82 371.251 127.56 368.5C128.3 365.751 129.15 362.491 129.45 361.25C129.89 359.471 129.42 358.77 127.25 357.93C125.74 357.34 120.68 356.42 107.5 354.91L103.63 359.21C101.51 361.571 97.2197 367.321 94.0998 372C90.9798 376.68 87.2502 382.981 85.8303 386C84.4003 389.02 82.3096 393.521 81.1896 396C80.0696 398.481 77.9894 403.881 76.5695 408C75.1396 412.13 73.5504 416.851 73.0305 418.5C72.5104 420.151 71.3403 424.201 70.4504 427.5C69.5504 430.801 68.04 437.331 67.09 442C65.8901 447.93 64.9396 450.5 63.9396 450.5C62.9299 450.5 62.3996 449.02 62.1496 445.5C61.9596 442.751 62.3404 436 62.9904 430.5C63.6504 425.001 64.7797 416.901 65.5197 412.5C66.2496 408.101 67.1396 403.151 67.4797 401.5C67.8297 399.851 68.5796 396.48 69.1496 394C69.7196 391.521 71.93 384.1 74.05 377.5C76.18 370.901 80.1802 360.891 82.9601 355.25C85.7276 349.616 88.0161 344.899 88.0402 344.75C88.0602 344.61 85.8101 343.49 83.0402 342.25C80.2704 341.011 77.1004 340.001 76.0002 340C74.9002 340 71.8602 341.43 69.2502 343.17C66.6402 344.91 60.2898 350.43 55.1398 355.42C49.9898 360.41 42.3302 368.771 38.1203 374C33.9103 379.23 28.61 385.981 26.34 389C24.0699 392.021 18.7298 399.901 14.4699 406.5C10.21 413.1 5.62043 420.301 4.28046 422.5C2.37053 425.62 1.57008 426.23 0.670105 425.27C-0.229895 424.33 0.0402613 422.57 1.83026 417.77C3.11017 414.32 4.74008 410.151 5.46014 408.5C6.17011 406.851 8.03983 402.58 9.59979 399C11.1597 395.421 13.6195 390.251 15.0695 387.5C16.5195 384.751 19.2 379.8 21.0099 376.5C22.8299 373.201 27.91 365.1 32.3 358.5C36.6998 351.901 42.1394 344.261 44.3996 341.51C46.6496 338.77 51.2002 333.66 54.5002 330.15C57.8002 326.64 63.0902 322.02 66.2502 319.89C69.4102 317.75 73.3104 315.66 74.9103 315.25C77.5402 314.571 78.4805 315.121 84.4103 320.75C88.0402 324.19 92.5697 327.79 94.4797 328.75C97.8696 330.45 98.0198 330.44 100.23 328.4C101.48 327.24 103.06 326.01 103.75 325.65C104.461 325.28 107.271 326.93 115.5 333.95L118.53 330.73C120.2 328.95 122.92 325.7 124.58 323.5C126.24 321.301 128.87 317.25 130.42 314.5C132.09 311.541 133.02 308.681 132.7 307.5C132.4 306.401 131.16 302.57 129.95 299C128.731 295.431 127.401 291.601 126.99 290.5C126.58 289.401 125.25 285.13 121.84 273.5L126.84 263C129.58 257.231 132.59 250.251 133.51 247.5C134.44 244.751 136.25 238.45 137.53 233.5C138.82 228.551 140.39 220.681 141.02 216C141.66 211.261 141.87 204.621 141.49 201C141.11 197.431 139.88 192.481 138.76 190C137.63 187.521 135.39 182.57 133.77 179C132.15 175.431 130.24 170.701 129.51 168.5C128.78 166.301 127.69 162.14 127.09 159.25C126.49 156.361 126.01 152.091 126.02 149.75C126.02 147.41 126.59 142.92 127.27 139.77C127.94 136.631 128.28 134.051 128 134.05C127.72 134.04 125.25 135.18 122.5 136.58C119.75 137.97 116.38 138.97 115 138.8C112.97 138.56 112.45 137.89 112.25 135.25C112.05 132.691 112.81 131.1 115.86 127.75C117.989 125.411 120.269 121.701 120.94 119.5C121.6 117.301 123.11 113.03 124.28 110C125.45 106.981 128.61 100.68 131.3 96.0005C133.98 91.3206 139.48 83.4505 143.51 78.5005C147.55 73.5505 153.02 67.4301 155.67 64.8901C158.33 62.3601 163.54 57.7501 167.25 54.6401C173.08 49.7706 173.79 48.8304 172.46 47.7505C171.61 47.0606 170.93 45.9405 170.96 45.2505C170.98 44.5605 171.68 44.0005 172.5 44.0005C173.32 44.0006 175.01 44.3999 176.25 44.8999C178 45.5998 179.39 45.2003 182.5 43.0903C184.7 41.6003 190.55 37.9898 195.5 35.0698C200.45 32.1498 208.44 27.7903 213.25 25.3804C218.06 22.9704 225.49 19.5896 229.75 17.8696C234.01 16.1496 241.55 13.4095 246.5 11.7896C251.45 10.1596 259.77 7.78999 265 6.52002C270.23 5.25003 277.65 3.69029 281.5 3.05029C285.35 2.41029 291.87 1.51982 296 1.06982C300.12 0.619833 305.98 0.209901 309 0.149902ZM158.75 338.04C158.34 338.02 158 338.11 158.01 338.25C158.01 338.39 157.11 340.97 156 344C154.9 347.019 154 350.289 154 351.25C154 352.21 155.47 354.25 157.25 355.78C159.04 357.32 162.67 359.9 165.31 361.53C168.4 363.44 170.43 364.14 170.98 363.5C171.46 362.949 172.741 360.249 173.82 357.5L175.8 352.5C170.92 347.75 167.25 344.5 164.5 342.23C161.751 339.95 159.171 338.07 158.75 338.04ZM201.91 338.39C198.83 338.02 196.26 337.9 196.18 338.11C196.11 338.32 195.37 340.19 194.53 342.25L193 346C202.69 355.46 206.63 358.82 208 359.56C210.29 360.81 210.73 360.689 213.15 358.209C214.6 356.719 217.42 352.24 219.4 348.25C221.379 344.26 222.899 340.841 222.77 340.64C222.64 340.45 219.15 340.01 215.02 339.68C210.89 339.34 204.99 338.76 201.91 338.39ZM291.31 324C290.71 324 289.73 324.67 289.12 325.5C288.5 326.319 288.22 328.01 288.48 329.25C288.74 330.489 291.22 335.32 294 340C296.77 344.669 299.479 348.949 300.01 349.5C300.65 350.16 301.84 349.65 303.52 348C304.91 346.62 306.03 345.05 306 344.5C305.959 343.948 302.89 339.109 299.16 333.75C295.44 328.39 291.9 324 291.31 324ZM138.3 325.82C136.82 327.84 135.34 329.73 135.02 330C134.7 330.27 132.77 332.52 130.75 335C128.721 337.479 127.051 340.059 127.03 340.75C127.01 341.44 128.35 342.9 130 344C131.65 345.1 133.56 346.01 134.25 346.03C134.94 346.04 136.17 344.92 137 343.53C138.1 341.69 139.1 341.14 140.75 341.51C142.57 341.91 143.46 341.199 145.42 337.75C146.75 335.41 147.99 332.78 148.17 331.91C148.35 331.03 146.81 328.47 144.75 326.22L140.99 322.14L138.3 325.82ZM191.07 193C190.55 193 188.17 194.69 185.77 196.75C183.37 198.809 179.27 202.3 176.67 204.5C173.1 207.519 171.31 210.09 169.37 215C167.96 218.569 166.211 223.299 165.49 225.5C164.76 227.699 163.25 233.1 162.14 237.5C161.03 241.899 159.68 247.749 159.14 250.5C158.59 253.249 157.64 258.43 157.01 262C156.37 265.569 155.67 269.289 155.43 270.25C155.19 271.21 155.11 272.01 155.25 272.01C155.393 272.019 158.202 271.18 161.5 270.14C164.8 269.11 169.52 267.78 172 267.19C174.47 266.6 178.52 265.68 181 265.14C183.47 264.6 188.6 263.78 192.39 263.33C198.04 262.65 199.63 262.05 201.17 260C202.21 258.629 203.831 255.019 204.78 252C205.96 248.21 206.49 243.239 206.46 236C206.43 227.33 205.94 224.019 203.66 217C202.14 212.32 199.7 206.249 198.24 203.5C196.78 200.75 194.78 197.259 193.79 195.75C192.811 194.24 191.581 193 191.07 193Z"
        fill="currentColor" />
</svg>