<svg width="739" height="1181" viewBox="0 0 739 1181" fill="currentColor"
    xmlns="http://www.w3.org/2000/svg">
    <path
        d="M452.16 0.0096585C456.62 -0.0903399 461.7 0.589816 466.16 1.87978C470.01 2.98974 475.64 5.03935 478.66 6.43935C481.68 7.8393 486.41 10.7293 489.16 12.8593C491.91 14.9893 495.96 19.0997 498.16 22.0097C500.36 24.9095 503.85 30.569 505.91 34.579C508.67 39.9289 509.67 43.1193 509.68 46.6093C509.7 49.839 509.14 51.929 507.93 53.1591C506.96 54.139 505.32 55.489 504.3 56.1591C502.61 57.239 502.57 57.6494 503.82 60.3593C504.58 62.0092 505.19 64.0292 505.16 64.8593C505.13 65.6892 504.71 67.0293 504.22 67.8593C503.73 68.6893 503.43 72.9593 503.54 77.3593C503.65 81.7585 504.17 85.468 504.7 85.6093C505.23 85.7493 505.65 86.8693 505.64 88.1093C505.63 90.0193 507.83 91.4297 520.39 97.5097C528.51 101.44 541.24 107.62 548.66 111.25C556.079 114.87 563.739 118.759 565.66 119.899C567.58 121.039 570.96 122.96 573.16 124.17C576.24 125.86 579.45 126.48 587.16 126.89C594.299 127.26 598.28 127.97 601.08 129.39C603.24 130.47 607.07 133.45 609.58 136C612.1 138.55 615.57 142.6 617.3 145C619.03 147.4 621.73 151.829 623.3 154.859C624.87 157.888 626.499 160.468 626.91 160.609C627.32 160.749 627.66 161.309 627.66 161.859C627.66 162.409 629.21 166.119 631.1 170.109C633 174.099 635.25 180.059 636.11 183.359C636.97 186.659 637.67 193.069 637.67 197.609C637.66 204.679 637.27 206.599 634.91 211.039C633.39 213.899 629.39 218.709 625.95 221.789C621.55 225.739 619.73 228.089 619.7 229.859C619.68 231.239 620.29 235.289 621.07 238.859C621.84 242.429 623.24 247.839 624.18 250.859C625.11 253.879 626.24 257.259 626.68 258.359C627.12 259.459 628.39 263.289 629.51 266.859C630.62 270.429 635.27 284.829 648.16 324.329L658.66 334.88C664.43 340.69 674.33 350.4 680.66 356.47C687.01 362.56 693.21 369.48 694.51 371.93C695.81 374.37 698.46 381.31 700.41 387.359C702.36 393.409 704.23 398.729 704.56 399.189C704.89 399.649 707.18 398.799 709.66 397.309C712.14 395.82 715.29 394.55 716.66 394.479C719.09 394.359 719.17 394.559 719.42 401.859C719.64 408.049 719.16 410.889 716.67 418.109C715.021 422.919 713.66 427.539 713.66 428.359C713.66 429.179 713.1 430.759 712.41 431.859C711.41 433.459 711.41 437.109 712.42 450.109C713.12 459.049 713.721 469.959 713.751 474.359C713.781 478.759 714.11 484.289 715.16 490.949L718.66 488.399C720.58 486.989 723.41 485.29 724.94 484.6C727.17 483.61 727.97 483.61 728.94 484.63C729.9 485.62 729.87 486.69 728.79 489.63C728.029 491.68 726.07 496.29 724.44 499.859C722.8 503.439 721.1 507.259 720.66 508.359C720.22 509.459 719.38 511.709 718.79 513.359C718.2 515.009 717.51 518.379 717.26 520.859C717.01 523.339 716.54 529.629 716.23 534.859C715.92 540.089 715.42 550.659 715.11 558.359C714.81 566.059 714.55 583.159 714.55 596.359C714.55 609.559 715.02 625.529 715.59 631.859C716.16 638.189 717.35 647.189 718.23 651.859C719.11 656.529 721.18 664.859 722.84 670.359C724.5 675.859 726.23 681.259 726.69 682.359C727.14 683.459 728.411 686.839 729.501 689.859C730.591 692.879 733.12 699.189 738.78 712.359L737.14 719.859C736.23 723.979 734.66 730.059 733.65 733.359C732.63 736.659 731.531 740.939 731.211 742.859C730.741 745.639 729.29 747.439 724.14 751.609C720.58 754.499 717.43 756.859 717.16 756.859C716.888 756.861 714.068 758.62 710.91 760.769C707.75 762.909 703.58 765.44 701.66 766.38C698.33 768.01 697.98 767.999 690.57 764.359L681.73 773.359L674.2 769.609C670.05 767.549 666.32 765.159 665.91 764.309C665.38 763.229 666.55 761.369 669.83 758.059C672.39 755.479 676.89 750.139 679.83 746.199C682.76 742.269 686.5 736.869 688.14 734.199C689.78 731.539 691.41 728.229 691.77 726.859C692.12 725.479 692.81 723.49 693.29 722.42C693.97 720.91 693.83 720.59 692.66 721C691.83 721.28 690.71 722.4 690.16 723.479C689.61 724.56 687.14 728.76 684.66 732.8C681.85 737.4 677.15 742.94 672.16 747.55C666.17 753.079 663.47 754.929 661.41 754.899C659.9 754.879 658.43 754.409 658.16 753.859C657.89 753.309 656.87 752.859 655.91 752.859C654.95 752.849 652.809 751.749 648.16 747.979L658.26 737.67C663.82 732 669.41 725.779 670.69 723.859C672.78 720.709 672.94 719.669 672.31 713.359C671.92 709.509 671.04 704.339 670.34 701.859C669.65 699.379 667.85 694.879 666.34 691.859C664.84 688.839 662.48 684.779 661.1 682.859C659.72 680.939 658.02 678.689 657.32 677.859C656.62 677.029 655.51 675.349 654.85 674.109C654.2 672.869 653.65 669.719 653.65 667.109C653.64 664.499 654.48 659.659 655.51 656.359C656.54 653.059 658.84 645.629 660.62 639.859C663.19 631.519 663.64 628.849 662.83 626.859C662.27 625.489 661.33 621.439 660.74 617.859C660.14 614.279 659.45 610.239 659.2 608.859C658.95 607.489 657.61 601.629 656.22 595.859C654.84 590.089 652.99 582.439 652.11 578.859C651.24 575.279 650.15 571.009 649.68 569.359C649.22 567.709 647.66 562.309 646.23 557.359C644.8 552.409 643.18 547.569 642.64 546.609C642.1 545.649 641.65 544.069 641.63 543.109C641.62 542.149 640.16 538.529 638.38 535.069C636.61 531.609 634.82 528.799 634.41 528.819C634 528.839 633.67 528.299 633.69 527.609C633.71 526.919 632.8 525.459 631.66 524.359C630.52 523.259 629.61 522.019 629.63 521.609C629.65 521.199 628.06 518.719 626.09 516.109C624.13 513.499 621.97 510.689 621.29 509.859C620.6 509.029 619.51 507.349 618.85 506.109C618.2 504.869 616.65 502.65 615.41 501.18C614.17 499.71 611.76 496.89 610.05 494.93C608.34 492.97 603.94 487.759 600.27 483.359C596.6 478.959 592.03 473.109 590.12 470.359C588.21 467.609 585.34 461.539 583.74 456.859C582.14 452.179 579.71 444.089 578.33 438.859C576.96 433.629 574.85 424.859 573.65 419.359C572.44 413.859 571.08 408.459 570.62 407.359C570.16 406.259 569.19 402.129 568.47 398.18C567.75 394.23 566.93 391.139 566.66 391.319C566.39 391.49 565.81 394.271 565.38 397.5C564.95 400.76 565.04 406.249 565.58 409.859C566.12 413.429 567.06 419.059 567.67 422.359C568.27 425.659 569.211 431.959 569.751 436.359C570.301 440.759 571.13 448.179 571.61 452.859C572.09 457.539 573.14 464.729 573.94 468.859C574.84 473.459 576.74 478.679 578.85 482.359C580.75 485.659 584.9 492.629 588.09 497.859C591.27 503.089 594.67 508.709 595.64 510.359C596.61 512.009 599.251 516.509 601.501 520.359C603.751 524.209 606.3 529.839 607.18 532.859C608.05 535.879 608.97 538.919 609.211 539.609C609.521 540.459 610.53 540.059 612.41 538.359C613.92 536.979 616.17 535.849 617.41 535.859C619.55 535.859 619.64 536.179 619.33 542.609C619.14 546.319 617.97 552.959 616.73 557.359C614.49 565.269 614.48 565.499 616.06 577.359C616.93 583.959 617.64 592.509 617.62 596.359C617.6 600.209 616.93 606.279 616.12 609.859C615.32 613.439 614.22 619.729 613.69 623.859C613.16 627.979 612.02 635.859 611.17 641.359C610.3 646.949 609.36 661.709 609.04 674.859C608.7 688.449 608.89 702.789 609.49 708.859C610.06 714.629 611.65 724.529 613.03 730.859C614.4 737.189 617.39 747.759 619.66 754.359C621.93 760.959 624.32 768.159 624.961 770.359C625.6 772.559 626.36 774.589 626.65 774.859C626.94 775.129 627.96 777.609 628.92 780.359C629.88 783.109 630.67 786.939 630.67 788.859C630.67 790.779 629.6 795.729 628.3 799.859C627 803.979 625.12 810.059 624.11 813.359C622.61 818.289 621.3 820.269 616.72 824.449C613.66 827.249 609.47 830.969 603.66 835.859L595.16 832.71L590.16 839.1L582.66 838.54C578.54 838.23 574.81 837.62 574.37 837.17C573.94 836.72 574.16 835.09 574.87 833.54C575.96 831.16 575.93 830.589 574.66 829.809C573.83 829.3 572.26 828.89 571.16 828.89C570.06 828.889 568.319 828.32 567.29 827.63C565.52 826.43 565.65 825.999 569.68 819.359C572.02 815.509 575.26 809.879 576.88 806.859C578.49 803.839 580.04 799.339 580.32 796.859C580.7 793.509 580.03 789.939 577.711 782.859C575.241 775.349 572.82 770.739 566.15 760.859C561.48 753.949 557.42 746.799 557.06 744.859C556.67 742.749 557.01 739.369 557.92 736.359C558.76 733.609 560.38 728.209 561.53 724.359C562.69 720.51 563.75 715.94 563.9 714.21C564.04 712.48 564.51 710.68 564.94 710.21C565.37 709.74 565.7 704.969 565.69 699.609C565.67 694.249 565.17 686.599 564.57 682.609C563.97 678.619 562.58 671.759 561.48 667.359C560.39 662.959 558.54 656.209 557.39 652.359C556.23 648.509 553.98 642.659 552.38 639.359C550.79 636.059 548.98 632.459 548.37 631.359C547.75 630.259 545.94 626.879 544.35 623.859C542.76 620.839 540.6 617.119 539.56 615.609C538.51 614.099 537.65 612.519 537.64 612.109C537.62 611.699 535.71 608.559 533.39 605.14C531.06 601.72 528.93 598.91 528.66 598.89C528.39 598.884 528.7 603.482 529.36 609.109C530.03 614.749 531.081 636.009 531.711 656.359C532.331 676.709 532.62 702.129 532.33 712.859C531.98 726.559 531.33 734.149 530.17 738.359C529.26 741.659 528.15 745.939 527.7 747.859C527.26 749.779 525.53 755.409 523.87 760.359C522.21 765.309 518.19 774.529 514.94 780.859C511.69 787.189 507.26 795.019 505.1 798.269C502.93 801.509 499.82 806.239 495.22 813.359L495.16 847.609L490.16 854.84C487.41 858.82 482.78 864.84 479.87 868.22C476.95 871.599 473.97 875.479 473.22 876.859C472.48 878.229 471.57 882.959 471.19 887.359C470.81 891.759 469.44 903.689 468.14 913.859C466.83 924.029 465.45 939.559 465.07 948.359C464.69 957.159 464.38 969.309 464.38 975.359C464.39 981.409 464.68 991.529 465.04 997.859C465.51 1006.19 466.11 1009.77 467.22 1010.86C468.06 1011.69 468.73 1012.92 468.7 1013.61C468.68 1014.3 471.47 1016.93 474.91 1019.47C478.35 1022 484.76 1025.79 489.16 1027.9C493.56 1030 499.64 1032.69 502.66 1033.88C505.68 1035.07 511.53 1037.08 515.66 1038.35C519.78 1039.62 525.64 1041.17 528.66 1041.79C531.68 1042.41 536.41 1043.34 539.16 1043.84C541.91 1044.35 548.21 1045.26 553.16 1045.86C558.11 1046.46 564.75 1047.49 567.92 1048.15C571.09 1048.82 573.67 1049.7 573.67 1050.11C573.66 1050.52 574.33 1050.86 575.16 1050.86C575.99 1050.86 578.57 1051.77 580.91 1052.87C583.249 1053.98 585.609 1054.88 586.16 1054.86C586.71 1054.85 589.91 1057.66 593.27 1061.1C596.63 1064.54 601.03 1069.61 603.06 1072.36C605.08 1075.11 608.1 1080.73 609.77 1084.86C611.43 1088.98 612.42 1092.7 611.98 1093.11C611.53 1093.52 608.68 1094.53 605.66 1095.35C602.64 1096.17 598.25 1096.84 595.91 1096.85C592.3 1096.86 591.75 1097.13 592.26 1098.61C592.59 1099.57 593.51 1102.61 594.3 1105.36C595.1 1108.11 595.62 1110.46 595.45 1110.58C595.29 1110.7 590.66 1111.22 585.16 1111.73C579.66 1112.24 569.76 1112.51 563.16 1112.34C556.56 1112.16 547.11 1111.73 542.16 1111.39C537.21 1111.05 529.33 1110.33 524.66 1109.79C519.99 1109.24 513.46 1108.33 510.16 1107.74C506.86 1107.16 500.56 1105.83 496.16 1104.79C491.76 1103.76 485.01 1101.71 481.16 1100.26C477.31 1098.8 469.21 1096.09 463.16 1094.24C457.11 1092.39 451.15 1090.87 449.91 1090.87C448.67 1090.86 447.43 1090.41 447.16 1089.86C446.889 1089.31 445.199 1088.86 443.41 1088.85C441.619 1088.85 434.989 1087.98 428.66 1086.94C422.33 1085.89 414.46 1084.76 411.16 1084.43C407.86 1084.1 403.36 1083.44 401.16 1082.95C398.959 1082.46 393.329 1080.89 388.66 1079.45C383.99 1078.02 379.56 1076.29 378.83 1075.6C378.1 1074.92 376.88 1072.11 376.12 1069.36C375.36 1066.61 374.2 1058.73 372.34 1039.36L378.63 1026.36C382.1 1019.21 385.63 1011.78 386.47 1009.86C387.32 1007.94 388.24 1005.69 388.53 1004.86C388.81 1004.03 389.2 993.008 389.77 957.359L386.18 943.359C384.21 935.659 382.4 928.459 382.17 927.359C381.94 926.259 380.84 923.339 379.72 920.859C378.61 918.379 377.69 915.689 377.68 914.859C377.66 914.029 376.69 910.879 375.52 907.859C374.35 904.839 373.06 901.459 372.66 900.359C372.26 899.259 370.99 895.879 369.85 892.859C368.71 889.839 366.84 884.439 365.711 880.859C364.571 877.279 363.64 873.799 363.65 873.109C363.65 872.419 364.06 871.069 364.55 870.109C365.051 869.149 367.181 864.309 369.3 859.369C371.42 854.419 374.24 848.799 375.55 846.869C376.86 844.939 379.49 840.439 381.39 836.859C383.28 833.279 385.19 829.909 385.62 829.359C386.06 828.809 386.76 827.229 387.18 825.859C387.6 824.479 389.62 820.879 391.66 817.859C393.71 814.839 396.69 809.969 398.27 807.059C399.86 804.139 401.71 800.769 402.39 799.559C403.14 798.199 403.42 795.259 403.11 791.859C402.84 788.839 402.14 782.759 401.57 778.359C401 773.959 400.14 766.529 399.65 761.859C399.17 757.19 398.41 751.44 397.97 749.09C397.52 746.75 396.82 744.84 396.41 744.84C396 744.85 395.661 745.42 395.67 746.109C395.67 746.799 393.24 753.659 390.26 761.359C387.29 769.059 383.62 778.279 382.12 781.859C380.61 785.439 376.66 792.409 373.34 797.359C370.03 802.309 364.97 808.839 362.11 811.859C359.25 814.879 355.28 819.159 353.29 821.359C349.69 825.329 349.67 825.42 349.67 834.359C349.67 839.309 349.22 849.209 348.67 856.359C348.13 863.509 347.19 873.189 346.6 877.859C346.01 882.529 345.06 888.159 344.48 890.359C343.9 892.559 342.5 896.839 341.38 899.859C340.25 902.879 339.01 905.809 338.62 906.359C338.23 906.909 337.56 908.479 337.14 909.859C336.72 911.229 334.51 916.189 332.22 920.859C329.94 925.529 327.09 932.509 325.88 936.359C324.68 940.209 322.99 948.529 322.12 954.859C321.25 961.189 320.01 971.979 319.37 978.859C318.72 985.729 318.28 999.009 318.38 1008.36C318.48 1017.71 319.3 1032.56 320.2 1041.36C321.09 1050.16 322.39 1062.98 323.07 1069.86C323.75 1076.73 324.98 1083.94 325.81 1085.86C326.63 1087.78 329.09 1091.16 331.26 1093.36C333.42 1095.56 336.77 1098.73 338.68 1100.4C340.59 1102.07 343.85 1105.56 345.91 1108.15C347.97 1110.74 349.659 1113.31 349.66 1113.86C349.66 1114.41 350 1114.85 350.41 1114.84C350.82 1114.82 352.16 1116.51 353.38 1118.59C355.08 1121.48 355.6 1123.99 355.64 1129.36C355.67 1133.8 354.93 1138.74 353.62 1142.86C352.48 1146.44 350.03 1152.51 348.18 1156.36C346.33 1160.21 344.08 1164.03 343.19 1164.86C342.3 1165.69 341.59 1166.7 341.62 1167.11C341.64 1167.52 340.65 1168.89 339.41 1170.15C338.17 1171.4 335.14 1173.79 332.66 1175.44C330.18 1177.09 327.03 1178.96 325.66 1179.58C323.22 1180.69 323.009 1180.44 316.62 1169.04C313.02 1162.61 309.02 1154.66 307.74 1151.36C306.46 1148.06 305.02 1144.35 304.54 1143.11C303.7 1140.97 303.129 1140.86 292.91 1140.85C287 1140.85 281.67 1141.19 281.06 1141.6C280.46 1142.02 279.68 1145.06 279.34 1148.36C278.99 1151.66 278 1157.06 277.13 1160.36C276.27 1163.66 273.87 1169.51 271.8 1173.36C268.61 1179.3 267.6 1180.41 265.1 1180.7C263.48 1180.89 260.36 1180.16 258.16 1179.08C255.96 1178 251.46 1175.64 248.16 1173.83C244.86 1172.02 239.4 1167.8 236.03 1164.45C232.39 1160.84 228.56 1155.72 226.61 1151.86C223.69 1146.09 223.31 1144.4 223.24 1136.86C223.18 1129.5 223.52 1127.69 225.81 1123.36C227.27 1120.61 230.65 1115.39 233.31 1111.75C235.98 1108.12 239.73 1102.95 241.65 1100.25C243.56 1097.56 246.6 1093.22 248.4 1090.61C250.19 1088 251.66 1085.64 251.66 1085.36C251.66 1085.08 252.52 1083.62 253.56 1082.11C254.83 1080.27 255.65 1076.88 256.02 1071.86C256.32 1067.73 256.87 1063.23 257.24 1061.86C257.6 1060.49 257.92 1047.21 257.94 1032.36C257.97 1015.99 257.54 1003.39 256.87 1000.36C256.25 997.609 254.12 988.609 252.14 980.359C250.15 972.109 247.69 961.759 246.67 957.359C245.64 952.959 244.36 947.779 243.82 945.859C243.27 943.939 242.34 940.899 241.74 939.109C241.15 937.32 241 935.88 241.41 935.899C241.82 935.929 241.65 935.369 241.04 934.649C240.42 933.939 239.59 931.109 239.19 928.359C238.79 925.609 237.83 922.119 237.06 920.609C236.29 919.099 235.66 916.959 235.66 915.859C235.66 914.759 235.24 913.069 234.72 912.109C234.21 911.149 232.79 906.089 231.57 900.859C229.81 893.259 229.38 888.459 229.44 876.859C229.5 864.179 229.84 861.229 232.18 853.359C233.65 848.409 235.03 843.119 235.26 841.609C235.48 840.099 235.21 838.859 234.66 838.859C234.11 838.859 233.66 838.189 233.66 837.359C233.66 836.529 232.54 835.409 231.16 834.859C229.79 834.309 226.64 833.859 224.16 833.859C220.36 833.859 219.2 833.359 216.7 830.609C215.07 828.819 212.13 824.879 210.15 821.859C208.18 818.839 205.06 813.209 203.23 809.359C201.4 805.509 199.591 801.009 199.211 799.359C198.831 797.689 199.27 792.139 200.2 786.859C201.12 781.629 202.11 776.689 202.4 775.859C202.69 775.029 203.06 773.459 203.22 772.359C203.39 771.259 204.27 767.209 205.19 763.359C206.12 759.509 207.27 753.659 207.76 750.359C208.25 747.059 209.1 742.109 209.64 739.359C210.18 736.609 210.91 731.439 211.26 727.859C211.61 724.279 212.29 720.569 212.78 719.609C213.26 718.649 213.66 714.149 213.65 709.609C213.65 704.409 212.52 695.809 210.61 686.359C208.94 678.109 207.3 670.689 206.97 669.859C206.63 669.029 206.26 667.909 206.15 667.359C206.03 666.809 204.92 662.979 203.69 658.859C202.46 654.729 199.95 646.859 198.13 641.359C196.31 635.859 193.17 626.859 191.15 621.359C189.13 615.859 186.84 609.669 186.07 607.609C185.29 605.549 183.47 601.499 182.02 598.609C180.57 595.719 176.82 589.089 173.68 583.859C170.55 578.629 166.47 571.659 164.62 568.359C162.78 565.059 159.77 559.439 157.94 555.859C156.11 552.279 154.74 548.229 154.89 546.859C155.12 544.72 155.59 544.409 158.16 544.699C159.81 544.889 162.51 546.179 164.16 547.569C166.97 549.929 167.2 549.969 167.78 548.229C168.13 547.199 168.24 546.019 168.03 545.609C167.83 545.199 168.18 543.169 168.81 541.109C169.85 537.749 169.68 536.729 167.2 531.359C165.68 528.059 162.46 520.069 160.05 513.609C157.63 507.149 155.21 498.709 154.66 494.859C153.993 490.193 153.993 487.026 154.66 485.359C155.38 483.559 156.15 483.04 157.41 483.5C158.37 483.85 162.53 487.499 166.66 491.609C171.069 496.019 174.669 498.839 175.41 498.479C176.1 498.139 176.89 496.509 177.16 494.859C177.43 493.21 178.11 491.63 178.66 491.359C179.21 491.089 179.66 489.959 179.66 488.859C179.66 487.759 180.29 485.849 181.06 484.609C181.83 483.369 183.93 478.089 185.72 472.859C188.36 465.199 189.08 461.319 189.45 452.859C189.7 447.089 189.41 438.759 188.79 434.359C188.18 429.959 187.44 423.659 187.15 420.359C186.86 417.059 186.4 412.559 186.12 410.359C185.84 408.159 185.43 399.159 185.211 390.359C184.851 375.509 184.69 374.38 182.99 374.71C181.98 374.89 180.71 375.389 180.16 375.819C179.609 376.239 175.339 378.54 170.66 380.92C165.98 383.31 161.831 385.739 161.43 386.309C161.02 386.889 160.68 391.859 160.66 397.359C160.64 402.859 159.8 411.859 158.78 417.359C157.73 423.049 155.58 430.269 153.8 434.109C152.071 437.819 150.66 441.088 150.66 441.359C150.66 441.629 147.33 448.719 143.26 457.109C139.2 465.499 134.42 475.509 132.65 479.359C130.22 484.649 129.08 489.159 127.98 497.859C127.18 504.189 126.39 516.779 126.23 525.859C126.07 534.939 126.3 552.479 126.74 564.859C127.18 577.229 128.03 592.529 128.63 598.859C129.23 605.189 130.22 613.959 130.84 618.359C131.47 622.759 132.92 628.039 134.07 630.1C135.22 632.159 137.96 635.99 140.16 638.6C142.36 641.22 145.73 644.79 147.66 646.54C149.59 648.29 152.51 650.87 154.16 652.29C155.809 653.7 157.609 654.849 158.16 654.84C158.71 654.84 159.5 656.97 159.92 659.59C160.33 662.22 160.68 666.839 160.68 669.859C160.69 672.879 161.36 678.509 162.18 682.359C162.99 686.209 163.66 691.049 163.66 693.109C163.66 695.169 164.56 700.229 165.66 704.359C166.76 708.489 169.12 715.029 174.16 725.939L170.16 728.329C167.96 729.649 165.04 731.02 163.66 731.38C161.78 731.87 160.29 731.319 157.66 729.199C155.73 727.649 152.36 724.72 150.16 722.71C146.44 719.29 146.07 718.459 144.87 710.699C144.16 706.109 143.11 700.109 142.52 697.359C141.65 693.259 140.74 691.819 137.42 689.359C133.441 686.409 133.35 686.389 131.98 688.359C131.2 689.459 130.33 691.489 130.04 692.859C129.74 694.239 129.1 696.259 128.61 697.359C128.11 698.459 126.8 702.739 125.68 706.859C124.52 711.159 123.66 717.449 123.66 721.609C123.66 725.599 124.18 730.999 124.81 733.609C125.44 736.219 127.58 742.58 129.56 747.75C131.54 752.909 133.499 757.299 133.91 757.5C134.32 757.7 134.66 758.309 134.66 758.859C134.66 759.409 133.2 760.3 131.41 760.85C129.62 761.389 125.98 761.95 123.31 762.1C120.64 762.239 118.281 762.699 118.06 763.109C117.84 763.519 118.22 764.74 118.91 765.809C119.6 766.889 119.93 767.99 119.66 768.26C119.387 768.54 114.655 768.839 99.1597 769.109L93.1402 763.229C88.6502 758.859 84.6502 756.209 67.8502 748.359L65.7603 742.109C64.6003 738.669 63.6597 734.959 63.6597 733.859C63.6596 732.759 62.7 728.149 61.5201 723.609C60.2401 718.699 59.3599 712.119 59.3199 707.359C59.2799 700.969 59.8799 697.549 62.3199 690.359C63.9999 685.409 65.8703 679.559 66.4703 677.359C67.0803 675.159 68.7701 668.859 70.23 663.359C71.69 657.859 73.0601 651.899 73.2701 650.109C73.49 648.32 73.9998 646.87 74.4097 646.869C74.8197 646.879 75.4997 644.629 75.9097 641.869C76.3197 639.119 76.9396 634.499 77.2896 631.609C77.6396 628.649 77.3798 623.959 76.6998 620.859C76.0298 617.839 74.8098 612.209 73.9898 608.359C73.1698 604.509 71.6604 597.759 70.6304 593.359C69.6104 588.959 67.5704 580.409 66.0904 574.359C64.6204 568.309 61.6999 558.189 59.6099 551.859C57.0799 544.219 53.77 536.999 49.7701 530.359C46.4502 524.859 43.3898 519.9 42.9498 519.34C42.5198 518.78 39.8698 513.83 37.0699 508.34C34.2799 502.85 31.07 495.879 29.94 492.859C28.82 489.839 27.4101 485.559 26.8101 483.359C26.2201 481.159 25.4802 478.459 25.1802 477.359C24.8801 476.259 23.03 473.559 21.0601 471.359C19.1001 469.159 14.9002 463.539 11.7203 458.859C8.55027 454.179 4.97961 448.339 3.78961 445.859C2.59968 443.379 1.64973 440.229 1.65973 438.859C1.67975 437.479 2.02025 435.799 2.43023 435.109C2.93031 434.259 4.1904 434.099 6.43023 434.609C8.22985 435.019 9.67941 435.589 9.64996 435.859C9.62996 436.129 10.7404 436.919 12.1304 437.609C13.5202 438.299 15.3396 438.859 16.1597 438.859C17.3897 438.859 17.5697 437.719 17.1597 432.609C16.8897 429.169 16.3999 422.309 16.0699 417.359C15.5599 409.609 15.0699 407.769 12.5699 404.109C10.9699 401.769 9.65973 399.409 9.65973 398.859C9.65954 398.309 8.71977 395.719 7.56988 393.109C6.41989 390.499 4.80978 385.429 3.9898 381.859C3.15981 378.289 2.09991 372.879 1.60992 369.859C1.12992 366.839 0.469953 360.759 0.14996 356.359C-0.170023 351.959 0.0399278 346.219 0.60992 343.609C1.28984 340.52 2.17987 338.86 3.15973 338.859C3.97971 338.859 6.34975 340.58 8.40973 342.68C10.4697 344.79 14.2997 348.84 16.9097 351.68C19.519 354.529 21.9987 356.868 22.4097 356.869C22.8197 356.879 23.7996 355.189 24.5796 353.119C25.3597 351.049 27.8906 346.429 30.2105 342.859C32.5205 339.289 36.6099 333.879 39.2798 330.859C41.9497 327.839 44.8196 324.679 45.6597 323.859C46.4897 323.039 50.1005 318.989 53.6705 314.869C57.2404 310.749 61.1602 306.249 62.3902 304.869C63.6202 303.489 65.1897 301.229 65.8697 299.859C66.5597 298.479 68.0805 296.009 69.2505 294.359C70.4309 292.709 74.6001 284.839 78.5298 276.859C82.4498 268.879 85.66 261.459 85.65 260.359C85.64 259.259 86.0101 257.909 86.48 257.359C86.9401 256.809 88.2806 252.089 89.4605 246.859C90.6305 241.639 92.3205 234.209 93.2105 230.359C94.1005 226.509 95.6502 220.209 96.6402 216.359C97.6402 212.509 99.2997 207.559 100.33 205.359C101.36 203.159 103.55 199.429 105.18 197.069C106.82 194.699 109.67 190.879 111.51 188.569C113.35 186.249 117.48 181.429 120.69 177.859C123.89 174.289 127.67 170.009 129.09 168.359C130.5 166.709 131.66 164.799 131.66 164.109C131.66 163.419 132 162.749 132.41 162.609C132.82 162.469 135 159.659 137.24 156.359C139.49 153.059 143.99 147.509 147.24 144.029C150.5 140.549 155.97 135.479 159.41 132.779C162.85 130.069 169.37 125.85 173.91 123.39C178.449 120.93 182.949 118.9 183.91 118.89C184.87 118.87 185.66 118.409 185.66 117.859C185.66 117.309 189.15 115.76 193.41 114.42C197.67 113.09 203.86 111.329 207.16 110.519C210.46 109.709 216.09 108.55 219.66 107.96C223.229 107.36 227.289 106.599 228.66 106.269C230.04 105.949 232.29 105.459 233.66 105.199C235.04 104.929 237.06 104.349 238.16 103.909C239.26 103.469 242.86 102.579 246.16 101.939C249.46 101.289 256.89 99.9195 262.66 98.8895C268.43 97.8696 276.53 96.2896 280.66 95.3895C284.78 94.4896 290.86 93.3295 294.16 92.8095C297.46 92.2895 303.53 90.9289 307.66 89.789C311.78 88.639 318.31 86.9094 322.16 85.9393C326.01 84.9694 331.64 83.4497 334.66 82.5497C337.68 81.6597 343.53 79.9592 347.66 78.7792C351.779 77.5994 355.609 76.5497 356.16 76.4393C356.71 76.3393 361.21 75.0292 366.16 73.5292C371.11 72.0292 376.92 70.249 379.07 69.579C381.22 68.909 384.71 66.6693 386.82 64.6093C388.93 62.5493 390.65 60.5193 390.63 60.1093C390.611 59.699 391.72 58.0091 393.1 56.3593C394.47 54.7092 396.451 51.3392 397.501 48.8593C398.551 46.3792 400.21 41.8791 401.18 38.8593C402.15 35.8392 404.5 30.2092 406.4 26.3593C408.3 22.5093 411.95 16.9296 414.51 13.9696C417.07 11.0097 420.74 7.79939 422.66 6.85927C424.58 5.9093 429.08 4.1997 432.66 3.0497C436.239 1.89977 440.509 0.779567 442.16 0.559463C443.81 0.33947 448.31 0.089666 452.16 0.0096585ZM607.66 791.09C606.43 790.86 606.12 792.49 605.91 800.329C605.77 805.567 605.89 809.855 606.16 809.859C606.44 809.859 607.34 808.509 608.16 806.859C609.12 804.939 609.57 801.619 609.41 797.619C609.23 793.009 608.77 791.31 607.66 791.09ZM267.56 763.859C267.23 763.859 266.23 764.649 265.34 765.609C264.44 766.569 263.31 768.709 262.82 770.359C262.32 772.009 261.631 778.869 261.291 785.609C260.941 792.347 261 798.066 261.41 798.319C261.82 798.579 262.9 796.889 263.82 794.569C264.73 792.259 265.8 789.009 266.2 787.359C266.6 785.709 267.211 779.749 267.541 774.109C267.881 768.469 267.89 763.859 267.56 763.859ZM712.85 724.859C712.41 724.859 711.08 727.449 709.89 730.609C708.71 733.769 707.46 737.259 707.12 738.359C706.73 739.619 707.83 738.889 710.11 736.359C712.92 733.239 713.71 731.529 713.69 728.609C713.67 726.549 713.3 724.859 712.85 724.859ZM287.94 470.079C287.43 469.92 286.19 471.95 285.19 474.579C284.19 477.209 280.96 484.419 278.02 490.609L272.66 501.859C274.09 513.869 275.25 521.409 276.16 526.359C277.07 531.309 277.59 537.379 277.31 539.859C277.03 542.329 275.37 547.729 273.62 551.859C271.87 555.979 268.89 563.629 266.99 568.859C265.1 574.079 262.421 582.409 261.041 587.359C259.661 592.309 258.08 599.279 257.52 602.859C256.96 606.439 256.06 611.829 255.53 614.859C254.99 617.879 254.301 628.229 254.001 637.859C253.681 647.929 253.94 661.299 254.62 669.359C255.26 677.059 256.18 685.159 256.66 687.359C257.13 689.559 258.08 694.279 258.77 697.859C259.45 701.439 260.94 705.619 262.09 707.159C263.23 708.699 265.96 711.11 268.16 712.51C271.319 714.529 272.31 714.779 272.89 713.71C273.3 712.97 273.65 711.909 273.68 711.359C273.7 710.808 274.411 705.859 275.251 700.359C276.091 694.859 277.21 687.439 277.73 683.859C278.26 680.279 279.12 671.959 279.64 665.359C280.16 658.759 281.05 651.109 281.61 648.359C282.17 645.609 283.121 637.059 283.711 629.359C284.311 621.659 285.15 612.659 285.6 609.359C286.04 606.059 287.571 594.129 289.001 582.859C290.441 571.579 291.88 560.559 292.2 558.359C292.53 556.159 293.021 552.109 293.291 549.359C293.561 546.609 294.201 542.779 294.711 540.859C295.23 538.939 295.65 533.759 295.65 529.359C295.65 524.959 296.1 517.759 296.64 513.359C297.4 507.189 297.29 503.639 296.17 497.859C295.38 493.729 294.3 488.559 293.77 486.359C293.25 484.159 291.93 479.659 290.84 476.359C289.75 473.059 288.45 470.229 287.94 470.079Z"
        fill="currentColor" />
</svg>