<svg width="434" height="1162" viewBox="0 0 434 1162" fill="currentColor"
    xmlns="http://www.w3.org/2000/svg">
    <path
        d="M211.438 2.2908C212.818 0.790834 214.357 -0.219198 214.837 0.0407979C215.327 0.290867 215.448 1.51081 215.108 2.75076C214.768 3.99094 214.488 8.15091 214.498 12.0008C214.508 16.1007 215.117 20.2408 215.977 22.0008C216.787 23.6507 219.377 26.5808 221.727 28.5008C224.087 30.4307 227.857 32.9102 234.227 36.0301L234.248 44.0105C234.268 50.4505 234.667 52.5808 236.347 55.0008C237.497 56.6508 240.188 58.8807 242.328 59.9607C244.478 61.0407 248.097 61.9407 250.377 61.9607C253.177 61.9907 255.208 61.3507 256.658 60.0008C257.838 58.9008 259.298 56.4307 259.898 54.5008C260.718 51.8808 260.667 49.6206 259.717 45.5008C259.017 42.4808 257.557 38.4308 256.467 36.5008C255.387 34.5809 253.548 31.6508 252.398 30.0008C251.248 28.3508 249.947 26.8908 249.517 26.7508C249.077 26.6105 248.727 25.8305 248.727 25.0008C248.727 24.1109 249.647 23.5001 250.977 23.49C252.217 23.48 255.697 24.6907 258.727 26.1707C261.746 27.6503 264.446 29.1199 264.727 29.4304C264.997 29.7504 267.697 32.0308 270.717 34.5008C273.737 36.9806 277.557 40.5101 279.217 42.3601C280.877 44.2101 283.168 47.3601 284.328 49.3601C286.398 52.9501 286.398 53.0608 284.578 57.2508C283.388 59.9708 282.717 63.9308 282.707 68.2508C282.687 72.9006 283.368 76.7108 284.868 80.5008C286.078 83.5307 288.227 87.5808 289.637 89.5008C291.057 91.4307 294.027 94.7108 296.227 96.7908C299.427 99.8306 300.977 100.581 303.977 100.541C306.707 100.511 308.148 99.8907 309.288 98.2508C310.278 96.8208 310.677 94.7307 310.377 92.5008C310.107 90.5808 309.517 87.0803 309.057 84.7303C308.437 81.541 308.537 80.4706 309.477 80.4803C310.167 80.4903 312.417 82.4507 314.477 84.8406C316.537 87.2306 319.648 92.0606 321.368 95.5906C323.098 99.1206 325.088 103.581 325.778 105.501C326.478 107.431 327.438 109.451 327.908 110.001C328.378 110.551 328.778 111.901 328.788 113.001C328.807 114.101 328.068 115.681 327.148 116.501C326.228 117.321 324.638 119.691 323.608 121.751C322.568 123.811 321.227 128.761 320.627 132.751C320.017 136.741 319.797 142.811 320.127 146.251C320.657 151.75 320.918 152.35 322.297 151.251C323.157 150.561 324.277 148.311 324.797 146.251C325.307 144.191 326.177 142.502 326.727 142.501C327.277 142.501 327.947 143.181 328.227 144.001C328.497 144.821 328.267 149.211 327.707 153.751C327.147 158.291 326.188 163.571 325.568 165.501C324.948 167.431 323.208 171.701 321.698 175.001C320.178 178.301 318.357 183.701 317.637 187.001C316.397 192.7 316.448 193.151 318.568 196.001C320.108 198.071 320.788 200.391 320.778 203.501C320.778 205.981 321.477 211.601 322.337 216.001C323.197 220.401 324.128 228.951 324.408 235.001C324.688 241.051 325.348 246.451 325.868 247.001C326.388 247.551 328.928 247.861 331.517 247.701C335.777 247.421 336.617 247.761 340.307 251.201C342.547 253.291 345.468 256.571 346.788 258.501C348.118 260.431 349.747 262.681 350.417 263.501C351.088 264.321 353.927 267.931 356.727 271.501C359.527 275.071 362.478 278.791 363.278 279.751C364.078 280.711 366.307 283.751 368.227 286.501C371.407 291.041 371.857 292.591 373.167 303.251C373.957 309.711 375.078 319.501 375.648 325.001C376.228 330.501 376.967 342.201 377.307 351.001C377.907 366.49 377.858 367.101 375.688 370.001C373.698 372.671 373.577 373.411 374.587 376.751C375.247 378.91 376.367 380.5 377.227 380.501C378.057 380.501 378.917 381.291 379.137 382.251C379.367 383.211 380.538 386.701 381.748 390.001C382.958 393.301 384.598 398.481 385.398 401.501C386.198 404.521 387.467 409.251 388.217 412.001C388.967 414.751 390.288 419.141 391.158 421.751C392.658 426.27 392.627 426.621 390.727 429.001C389.627 430.381 388.757 432.511 388.797 433.751C388.837 434.991 389.627 437.28 390.547 438.85C391.647 440.71 393.787 442.221 396.727 443.201C399.197 444.031 402.058 445.45 403.078 446.35C404.098 447.26 405.638 449.351 406.488 451.001C407.348 452.651 408.837 456.931 409.797 460.501C410.767 464.071 412.198 469.481 412.988 472.501C413.778 475.521 414.978 480.701 415.648 484.001C416.318 487.301 417.348 491.801 417.938 494.001C418.528 496.201 420.028 502.731 421.278 508.501C422.528 514.271 424.508 522.601 425.688 527.001C426.868 531.401 428.198 537.701 428.658 541.001C429.108 544.301 430.288 552.171 433.038 570.001L429.977 574.501C427.827 577.671 426.707 580.781 426.207 585.001C425.678 589.351 425.928 592.581 427.108 596.751C428.288 600.931 428.728 606.791 428.738 618.251C428.748 629.631 428.327 635.391 427.217 639.001C426.367 641.751 424.557 645.011 420.727 648.501L420.887 668.751C421.007 684.171 420.657 690.971 419.387 697.251C418.477 701.791 417.058 708.991 416.238 713.251C415.418 717.511 414.747 723.021 414.757 725.501C414.757 729.381 414.037 730.961 409.498 737.001C406.598 740.851 403.507 744.671 402.637 745.501C401.757 746.331 400.857 747.521 400.637 748.171C400.406 748.812 395.726 754.111 390.227 759.94C384.727 765.78 379.667 770.54 378.977 770.52C378.287 770.51 376.266 769.62 371.227 766.591L367.477 770.541C364.077 774.13 363.467 774.4 360.977 773.48C359.467 772.92 357.097 771.91 355.727 771.23C354.347 770.55 351.748 768.651 349.948 767.001C348.148 765.351 346.678 763.551 346.688 763.001C346.698 762.451 348.487 759.981 354.637 753.001L352.688 750.251C351.068 747.981 350.947 747.201 351.977 745.791C352.667 744.851 353.897 743.361 354.727 742.47C355.557 741.581 358.137 738.751 360.477 736.171C362.816 733.602 364.726 731.272 364.727 731.001C364.727 730.731 366.347 728.361 368.337 725.751C370.317 723.141 372.957 718.751 374.207 716.001C375.457 713.251 377.838 707.171 379.498 702.501C381.647 696.451 382.728 691.121 383.248 684.001C383.657 678.501 383.708 671.861 383.358 669.251C382.788 664.971 382.257 664.18 377.977 661.31C374.977 659.29 371.567 657.951 368.727 657.671C364.707 657.271 363.987 657.53 361.927 660.11C360.657 661.7 359.137 664.801 358.557 667.001C357.927 669.361 357.747 674.491 358.127 679.501C358.467 684.171 359.628 691.151 362.618 702.001L359.417 706.78C356.227 711.55 356.217 711.561 351.727 710.921C349.247 710.571 344.867 709.2 341.977 707.89C338.077 706.111 336.377 704.671 335.377 702.251C334.627 700.461 333.247 694.271 332.307 688.501C331.367 682.731 330.218 677.101 329.748 676.001C329.288 674.901 328.418 670.741 327.818 666.751C327.218 662.761 326.717 657.141 326.717 654.251C326.707 651.041 327.477 647.351 328.717 644.751C329.817 642.411 330.727 639.601 330.727 638.501C330.727 637.401 331.177 636.271 331.727 636.001C332.277 635.731 332.738 634.261 332.738 632.751C332.748 631.241 333.178 628.651 333.688 627.001C334.208 625.351 335.168 618.831 336.998 601.001L333.948 596.001C330.958 591.091 330.928 590.901 332.188 585.501C332.898 582.481 333.987 578.761 334.597 577.251C335.217 575.741 336.627 573.941 337.727 573.251C338.837 572.561 339.718 571.331 339.688 570.501C339.668 569.671 338.387 567.651 336.847 566.001C334.157 563.101 334.028 562.5 333.278 548.501C332.858 540.521 332.778 531.521 333.118 528.501C333.448 525.481 334.158 515.131 334.698 505.501C335.228 495.881 335.967 484.181 336.337 479.501C336.927 472.011 337.318 470.731 339.618 468.751C341.057 467.511 342.787 466.501 343.477 466.501C344.177 466.501 344.528 465.721 344.278 464.751C344.028 463.791 343.508 461.651 343.118 460.001C342.728 458.351 341.578 456.441 340.568 455.751C339.558 455.061 338.738 453.941 338.748 453.251C338.758 452.561 337.908 449.751 336.858 447.001C335.798 444.251 333.767 438.181 332.337 433.501C330.907 428.821 329.287 422.641 328.727 419.751C328.177 416.861 327.277 414.501 326.727 414.501C326.177 414.501 325.548 415.291 325.328 416.251C325.108 417.211 324.467 420.701 323.887 424.001C323.317 427.301 322.367 433.151 321.767 437.001C321.177 440.851 320.498 445.801 320.278 448.001C320.058 450.201 319.427 454.251 318.887 457.001C318.337 459.751 317.317 470.771 316.597 481.501C315.387 499.59 315.137 501.161 313.017 503.251C311.757 504.491 310.738 506.291 310.748 507.251C310.748 508.211 311.358 510.581 312.078 512.501C312.808 514.421 314.127 517.581 315.007 519.501C316.307 522.361 316.628 527.311 316.748 546.501C316.838 559.421 316.578 571.351 316.188 573.001C315.798 574.651 315.757 578.361 316.097 581.251C316.587 585.36 317.107 586.5 318.477 586.48C319.807 586.46 320.528 587.85 321.448 592.23C322.358 596.5 322.577 611.541 322.307 650.001C322.097 678.6 321.548 707.94 321.078 715.19C320.248 728.14 320.168 728.451 317.068 731.69C315.158 733.69 313.678 736.481 313.318 738.751C312.898 741.4 313.097 742.5 313.977 742.511C314.667 742.511 316.228 743.971 317.448 745.761C318.668 747.541 320.448 751.481 321.408 754.501C322.648 758.431 323.128 763.291 323.108 771.501C323.088 780.501 322.588 784.631 320.818 790.501C319.578 794.631 316.968 802.951 315.028 809.001C313.088 815.051 309.958 825.631 308.078 832.501C306.198 839.381 301.908 853.331 298.538 863.501C295.168 873.671 291.578 882.791 290.568 883.751C289.348 884.917 288.888 886.417 289.188 888.251C289.438 889.761 290.077 893.251 290.627 896.001C291.167 898.751 291.388 903.921 291.118 907.501C290.848 911.081 290.427 915.461 290.177 917.251C289.887 919.311 288.437 921.691 282.698 927.001L282.467 971.001C282.247 1010.71 282.397 1015.58 284.007 1021C284.987 1024.3 286.787 1028.95 288.007 1031.34C289.227 1033.73 292.247 1037.58 294.727 1039.89C297.197 1042.21 301.697 1045.94 304.727 1048.19C307.747 1050.44 312.027 1053.18 314.227 1054.3C316.427 1055.41 325.427 1058.65 334.227 1061.5C343.026 1064.35 351.126 1067.07 352.227 1067.54C353.327 1068.01 356.367 1069.1 358.977 1069.95C361.587 1070.8 366.087 1072.69 368.977 1074.14C371.867 1075.59 376.697 1078.45 379.727 1080.51C382.747 1082.56 387.137 1086.32 389.477 1088.87C391.817 1091.42 394.627 1095.3 395.727 1097.5C396.827 1099.7 398.067 1103.59 399.227 1110.8L395.727 1110.24C393.807 1109.94 390.197 1109.19 387.727 1108.58C385.247 1107.97 383.117 1107.71 382.977 1107.99C382.838 1108.27 383.628 1109.85 384.727 1111.5C385.827 1113.15 386.727 1114.95 386.727 1115.5C386.727 1116.05 387.177 1116.5 387.727 1116.5C388.277 1116.5 388.727 1117.17 388.727 1118C388.727 1118.83 387.507 1119.75 385.977 1120.06C384.467 1120.36 381.317 1121.04 378.977 1121.56C376.637 1122.08 368.647 1122.5 361.227 1122.5C351.567 1122.5 344.807 1121.91 337.477 1120.44C331.837 1119.3 326.777 1117.94 326.227 1117.42C325.711 1116.93 324.291 1116.53 322.987 1116.5L322.467 1116.5C321.156 1116.47 319.743 1116.12 319.227 1115.68C318.677 1115.21 316.647 1114.21 314.727 1113.47C312.807 1112.73 309.247 1110.52 306.828 1108.56C304.418 1106.6 300.328 1101.85 297.748 1098C295.178 1094.15 291.078 1089.38 288.648 1087.39C286.218 1085.41 282.197 1082.63 279.727 1081.22C277.247 1079.82 271.627 1077.47 267.227 1076.02C262.827 1074.56 257.268 1073.06 254.868 1072.69C252.478 1072.31 250.157 1071.55 249.727 1071C249.287 1070.45 247.818 1067.97 246.448 1065.5C245.078 1063.03 242.418 1058.08 240.538 1054.5C238.658 1050.92 235.637 1044.17 233.837 1039.5C232.037 1034.83 230.147 1029.99 229.637 1028.75C229.137 1027.51 228.727 1025.83 228.727 1025C228.727 1024.17 229.287 1023.49 229.977 1023.47C230.667 1023.46 233.247 1024.88 235.727 1026.64C238.197 1028.4 241.687 1030.44 243.477 1031.17C245.267 1031.9 247.967 1032.5 252.227 1032.51L251.398 1016.75C250.948 1008.09 250.268 997.021 249.898 992.161C249.308 984.361 248.937 983.081 246.727 981.291C245.347 980.181 243.478 978.761 242.568 978.131C241.358 977.311 240.847 975.241 240.667 970.501C240.487 965.611 240.958 962.831 242.578 959.251C244.648 954.681 244.668 954.25 243.198 947.751C242.348 944.041 241.028 937.631 240.248 933.501C239.468 929.381 238.627 923.521 238.377 920.501C238.127 917.481 237.318 909.851 236.578 903.551C235.358 893.241 234.958 891.85 232.488 889.551C230.818 887.991 229.387 885.251 228.807 882.501C228.287 880.021 227.147 874.851 226.257 871.001C225.367 867.151 224.387 859.271 223.517 843.001L226.877 839.47C228.717 837.531 232.137 833.37 234.477 830.22C237.077 826.731 239.217 824.741 239.977 825.121C240.667 825.461 242.237 825.461 243.477 825.121C244.827 824.751 246.368 823.001 247.318 820.751C248.548 817.841 248.868 813.861 248.738 803.001C248.638 795.301 248.367 786.751 248.137 784.001C247.897 781.251 247.487 762.691 247.217 742.751C246.787 710.984 246.917 706.502 248.227 706.501C249.227 706.501 249.727 705.501 249.727 703.501C249.727 701.851 249.167 700.03 248.477 699.47C247.787 698.9 246.327 697.811 245.227 697.041C243.367 695.761 243.197 694.27 242.797 676.331C242.387 657.551 242.438 656.931 244.568 654.501C245.778 653.131 246.748 651.331 246.738 650.501C246.718 649.671 246.477 647.991 246.217 646.751C245.907 645.331 244.987 644.501 243.727 644.501C242.627 644.501 241.528 645.291 241.288 646.251C241.037 647.211 240.317 650.921 239.677 654.501C239.037 658.081 237.667 663.361 236.627 666.251C235.577 669.141 234.717 672.961 234.707 674.751C234.707 676.541 234.018 680.701 233.188 684.001C232.368 687.301 231.257 692.481 230.727 695.501C230.207 698.521 228.918 705.051 227.868 710.001C226.818 714.951 225.177 722.381 224.217 726.501C223.257 730.631 221.517 735.991 220.347 738.411C219.187 740.841 216.877 743.941 215.227 745.291C213.577 746.651 211.217 748.151 209.977 748.631C208.617 749.161 206.508 751.971 204.648 755.751C202.328 760.471 201.738 762.731 202.248 765.001C202.647 766.791 202.177 771.031 201.087 775.501C200.087 779.631 197.777 785.481 195.957 788.501C194.148 791.521 192.687 794.231 192.727 794.501C192.767 794.771 191.867 795.901 190.727 797.001C189.587 798.101 188.677 799.451 188.707 800.001C188.727 800.552 187.277 803.921 185.488 807.501C183.698 811.081 181.408 816.021 180.398 818.501C179.398 820.981 178.178 823.901 177.698 825.001C177.218 826.101 176.148 829.021 175.318 831.501C174.488 833.981 172.468 839.831 170.818 844.501C168.288 851.69 167.508 852.961 165.778 852.751C164.358 852.581 163.567 853.191 163.217 854.751C162.947 855.992 161.367 865.772 159.717 876.501C158.067 887.231 156.717 898.021 156.707 900.501C156.707 902.981 156.257 906.351 155.707 908.001C155.167 909.651 153.998 919.771 153.118 930.501C152.238 941.231 151.168 954.951 150.738 961.001C150.308 967.051 149.668 975.151 149.328 979.001C148.978 982.851 148.278 988.481 147.788 991.501C147.288 994.521 146.597 1007.58 146.267 1020.5C145.787 1038.76 145.967 1045.78 147.087 1052C147.877 1056.4 149.658 1063.38 151.038 1067.5C152.428 1071.63 155.167 1078.49 157.137 1082.75C159.117 1087.01 160.727 1090.72 160.727 1091C160.728 1091.28 162.077 1093.75 163.727 1096.5C165.377 1099.25 167.588 1103.86 168.648 1106.75C169.708 1109.64 171.958 1115.26 173.648 1119.25C176.448 1125.83 176.627 1126.89 175.627 1130.75C175.017 1133.09 173.887 1136.24 173.127 1137.75C172.357 1139.26 170.008 1142.19 167.898 1144.25C165.788 1146.31 160.948 1149.65 157.148 1151.66C153.338 1153.67 146.177 1156.93 141.227 1158.9C134.947 1161.41 131.927 1162.17 131.227 1161.43C130.677 1160.85 129.947 1158.04 129.597 1155.18C129.247 1152.33 129.348 1146.17 129.818 1141.5C130.448 1135.14 131.118 1132.69 132.448 1131.76C133.428 1131.08 133.997 1130.31 133.727 1130.06C133.444 1129.8 130.075 1129.3 126.227 1128.93C122.047 1128.54 117.517 1128.72 114.977 1129.39C111.757 1130.23 110.977 1130.8 111.757 1131.75C112.327 1132.44 113.177 1137.95 113.637 1144C114.237 1151.79 114.158 1155.5 113.358 1156.72C112.738 1157.67 110.537 1159.36 108.477 1160.47C106.417 1161.59 104.727 1162.05 104.727 1161.5C104.727 1160.95 100.387 1158.14 95.0874 1155.25C88.5174 1151.67 83.8273 1148.25 80.3374 1144.5C77.1974 1141.13 74.2876 1136.67 72.8276 1133C70.6477 1127.52 70.5472 1126.65 71.767 1123C72.497 1120.8 74.0079 1117.65 75.1079 1116C76.2179 1114.35 80.7475 1108.5 85.1674 1103C89.5957 1097.5 93.4443 1092.78 93.727 1092.5C93.997 1092.22 96.2671 1089.3 98.767 1086C101.267 1082.7 104.158 1078.65 105.198 1077C106.248 1075.35 107.767 1073.33 108.587 1072.5C109.407 1071.67 111.107 1068.75 112.377 1066C113.647 1063.25 115.367 1057.85 116.187 1054C117.037 1050.05 117.687 1041.99 117.687 1035.5C117.677 1029.17 117.218 1019.5 116.648 1014C116.088 1008.5 115.228 1000.4 114.748 996.001C114.268 991.601 113.397 985.301 112.797 982.001C112.207 978.701 111.278 972.171 110.738 967.501C110.198 962.831 109.098 955.171 108.288 950.501C107.468 945.831 106.288 937.951 105.648 933.001C105.018 928.051 104.098 922.311 103.608 920.251C103.128 918.191 102.277 914.701 101.727 912.501C101.117 910.061 100.147 908.501 99.227 908.501C98.3971 908.5 97.4072 907.49 97.0073 906.251C96.6173 905.011 96.357 896.131 96.437 886.501C96.557 870.381 96.7276 868.881 98.5375 867.501C99.6075 866.671 100.768 864.761 101.108 863.251C101.588 861.141 101.147 859.921 99.227 858.001C97.7671 856.541 96.7271 854.361 96.727 852.751C96.737 851.241 98.0374 846.401 99.6274 842.001C101.217 837.601 103.617 831.081 104.957 827.501C106.947 822.181 108.047 820.641 111.047 819.001C113.537 817.641 115.638 815.241 117.608 811.501C119.768 807.421 120.537 804.521 120.727 794.501L113.977 793.421C110.268 792.821 106.748 792.041 106.158 791.671C105.578 791.301 103.498 788.521 101.538 785.501C99.5776 782.481 96.717 777.751 95.187 775.001C93.647 772.251 90.6377 766.851 88.4877 763.001C86.3382 759.152 84.2284 755.552 83.7778 755.001C83.3378 754.451 82.637 751.751 82.227 749.001C81.807 746.251 81.3174 742.201 81.1274 740.001C80.9274 737.801 80.4275 730.25 79.9975 723.23C79.2975 711.69 79.037 710.411 77.227 709.871C75.8939 709.484 74.8277 709.907 74.0278 711.14C73.3678 712.16 72.5475 716.381 72.2075 720.501C71.8575 724.631 71.8778 730.251 72.2377 733.001C72.5978 735.751 73.5472 741.381 74.3471 745.501C75.3371 750.581 77.8575 757.191 82.1674 766.001C85.6674 773.151 90.327 781.021 92.517 783.501C96.317 787.791 96.4376 788.131 95.1176 790.751C94.3576 792.261 92.597 793.951 91.227 794.501C89.8465 795.051 85.6866 795.49 81.977 795.49C78.2671 795.48 74.327 795.25 73.227 794.99C72.1266 794.719 69.157 791.91 66.6274 788.751C64.0975 785.591 61.3975 782.321 60.6274 781.501C59.8574 780.671 56.297 776.621 52.727 772.501C49.1475 768.381 45.5985 764.332 44.8178 763.501C44.0479 762.681 42.2476 760.421 40.8276 758.501C39.4081 756.581 38.0084 754.772 37.7377 754.501C37.4578 754.231 36.2974 752.651 35.1674 751.001C34.0274 749.351 31.6775 745.521 26.7875 737.001L26.7573 710.751C26.7373 696.311 26.387 684.501 25.977 684.511C25.5666 684.507 24.377 680.119 23.3374 674.761C22.2974 669.391 21.0576 662.751 20.5776 660.001C20.0976 657.251 19.247 652.081 18.687 648.501C18.127 644.921 17.0075 637.271 16.2075 631.501C15.3975 625.731 14.717 619.651 14.687 618.001C14.647 615.841 13.5676 614.021 10.8178 611.501C7.13786 608.121 6.96748 607.66 5.74751 598.001C4.70752 589.671 4.72789 587.581 5.85786 585.501C6.61783 584.131 7.81754 582.331 8.53755 581.501C9.33751 580.581 9.62747 578.741 9.28755 576.751C8.97755 574.961 7.937 573.111 6.977 572.631C6.01706 572.15 4.6975 570.47 4.03755 568.881C3.38756 567.301 2.63764 561.951 2.36763 557.001C2.09763 552.051 1.35723 543.271 0.717237 537.501C0.0172453 531.151 -0.193018 521.271 0.186964 512.501C0.536958 504.521 1.02778 493.951 1.27778 489.001C1.53777 484.051 1.97704 477.981 2.26704 475.501C2.55703 473.021 3.27717 468.751 3.88716 466.001C4.48715 463.251 5.99775 459.651 7.23775 458.001C8.48773 456.351 10.6776 453.651 12.1176 452.001C13.5675 450.331 15.7269 449.001 16.977 449.001C19.077 449.001 19.207 448.621 18.977 443.251C18.767 438.341 19.1475 436.881 21.5874 433.251C23.1673 430.911 25.3572 427.201 26.4672 425.001C27.5771 422.801 29.2572 420.321 30.2172 419.501C31.1672 418.681 32.5375 416.651 33.2475 415.001C33.9575 413.351 35.7471 410.651 37.227 409.001C38.697 407.351 40.6478 404.75 41.5678 403.23C42.568 401.55 45.3174 399.58 48.517 398.23C52.8268 396.42 53.987 395.4 54.767 392.751C55.517 390.231 55.337 388.711 53.977 385.961C52.417 382.791 52.3679 381.861 53.5678 377.211C54.3078 374.341 55.7272 369.521 56.7172 366.501C57.7072 363.481 59.3175 356.951 60.2875 352.001C61.2575 347.051 62.6471 341.761 63.3872 340.251C64.1271 338.741 64.7269 336.381 64.727 335.001C64.727 333.631 65.0672 332.511 65.477 332.52C65.887 332.54 66.567 331.19 66.977 329.52C67.387 327.86 68.737 324.24 69.977 321.49C71.9369 317.13 72.7774 316.32 76.4272 315.24C80.5771 314.02 80.6473 313.91 81.6772 308.001C82.2472 304.701 82.7277 300.881 82.7377 299.501C82.7477 298.131 83.4578 294.301 84.3178 291.001C85.1678 287.701 87.4577 281.181 89.4077 276.501C91.5276 271.391 94.2172 266.801 96.1372 265.001C97.8972 263.351 100.668 260.87 102.288 259.48C103.907 258.1 106.797 255.861 108.727 254.501C110.647 253.151 113.127 251.25 114.227 250.28C115.327 249.31 117.797 247.221 119.727 245.621C121.647 244.031 127.047 240.351 131.727 237.451C136.397 234.541 142.697 230.651 145.727 228.791C148.747 226.941 152.347 225.17 153.727 224.86C155.097 224.55 157.467 224.8 158.977 225.4C161.057 226.23 162.107 226.19 163.267 225.251C164.117 224.561 164.797 222.991 164.767 221.751C164.747 220.511 166.768 215.561 169.248 210.751C171.737 205.941 175.538 198.851 177.698 195.001C179.858 191.151 182.877 186.45 184.427 184.56C185.967 182.67 188.577 180.59 190.227 179.94C191.877 179.29 193.567 178.021 193.977 177.131C194.387 176.231 194.727 174.151 194.727 172.501C194.727 170.851 193.577 166.461 192.167 162.751C190.758 159.041 188.768 154.651 187.738 153.001C186.718 151.351 184.487 147.191 182.797 143.751C180.687 139.451 179.567 135.471 179.227 131.001C178.947 127.431 179.198 121.461 179.778 117.751C180.358 114.041 181.488 109.991 182.278 108.751C183.078 107.511 184.067 106.501 184.477 106.49C184.887 106.48 185.548 109.07 185.938 112.24C186.318 115.41 187.338 119.461 188.188 121.251C189.038 123.041 190.967 125.42 192.477 126.53C193.987 127.65 196.347 128.57 197.727 128.57C199.627 128.56 200.678 127.65 202.078 124.78C203.517 121.84 203.767 119.89 203.227 116.001C202.837 113.251 201.718 109.431 200.738 107.501C199.728 105.531 197.487 103.3 195.587 102.39C193.417 101.35 191.448 99.2203 190.028 96.3904C188.828 93.9705 187.138 89.3007 186.278 86.0008C185.418 82.7008 184.728 77.3008 184.738 74.0008C184.748 70.7008 185.088 66.9705 185.488 65.7205C185.898 64.4608 186.677 63.6011 187.227 63.8006C187.777 64.0006 188.538 65.9308 188.908 68.0808C189.298 70.3108 190.707 73.0808 192.177 74.5008C194.267 76.5208 195.628 76.9508 199.248 76.7508C202.577 76.5608 204.307 77.0205 205.977 78.5203C207.217 79.63 208.677 80.5401 209.227 80.5506C209.777 80.5506 211.347 79.3802 212.727 77.9402C214.847 75.7302 215.227 74.4005 215.207 69.1707C215.187 63.7807 214.747 62.3707 211.717 58.0008C209.817 55.2509 206.638 51.4209 204.648 49.5008C201.928 46.8508 200.898 44.9006 200.438 41.5008C200.108 39.0208 200.268 34.3007 200.788 31.0008C201.317 27.7012 201.867 24.3313 202.017 23.5008C202.157 22.6708 202.867 20.2007 203.587 18.0008C204.317 15.8008 205.808 11.9808 206.908 9.50076C208.018 7.02076 210.048 3.7808 211.438 2.2908ZM340.477 1090.52C339.787 1090.52 338.557 1090.95 337.727 1091.47C336.537 1092.21 337.007 1092.73 339.977 1093.95C342.037 1094.8 345.637 1095.79 347.977 1096.15C350.317 1096.51 353.127 1096.49 354.227 1096.12L356.227 1095.44C353.127 1093.36 349.867 1092.25 346.977 1091.63C344.087 1091.01 341.167 1090.51 340.477 1090.52ZM132.477 690.541C129.037 690.561 124.867 691.201 123.217 691.961C120.577 693.161 120.077 694.081 119.217 699.171C118.667 702.381 118.308 712.651 118.408 722.001C118.508 731.351 119.028 739.901 119.568 741.001C120.118 742.101 121.267 746.041 122.137 749.751C123.017 753.461 124.517 758.301 125.477 760.501C126.436 762.71 127.446 764.508 127.727 764.52C127.997 764.53 129.237 761.26 130.477 757.27C131.717 753.27 133.198 747.531 133.778 744.501C134.358 741.481 135.247 736.981 135.767 734.501C136.277 732.031 137.147 726.171 137.707 721.501C138.267 716.831 138.718 712.552 138.698 712.001C138.688 711.451 139.698 710.5 140.948 709.9C142.807 709 143.377 707.62 144.047 702.4C144.867 696.081 144.837 695.961 141.797 693.251C139.127 690.861 137.917 690.511 132.477 690.541ZM139.627 344.501C139.237 344.501 138.428 345.851 137.828 347.501C137.218 349.151 136.327 351.741 135.847 353.251C135.357 354.761 134.477 357.801 133.877 360.001C133.287 362.201 131.817 367.381 130.627 371.501C129.427 375.631 127.427 382.151 126.177 386.001C124.927 389.851 123.597 394.801 123.217 397.001C122.837 399.201 121.698 403.701 120.688 407.001C119.678 410.301 117.667 417.051 116.207 422.001C114.757 426.951 113.148 432.011 112.648 433.251C112.138 434.491 110.937 435.8 109.977 436.18C109.017 436.55 107.898 437.341 107.498 437.93C107.088 438.52 106.748 440.461 106.748 442.251C106.738 444.041 107.397 446.181 108.227 447.001C109.467 448.241 109.627 450.641 109.137 460.751C108.817 467.491 108.487 481.551 108.387 492.001C108.297 502.451 108.457 518.881 108.727 528.501C109.217 545.701 109.187 546.061 106.837 549.501C104.917 552.321 104.598 553.681 105.188 556.501C105.588 558.421 106.488 561.801 107.188 564.001C107.878 566.201 109.747 571.99 111.337 576.86C113.997 585 114.567 585.93 118.477 588.36C120.807 589.81 122.717 591.451 122.707 592.001C122.698 592.551 123.968 596.151 125.538 600.001C127.118 603.851 128.747 609.021 129.167 611.501C129.597 613.981 130.117 617.691 130.337 619.751C130.547 621.811 131.537 624.741 132.517 626.251C133.507 627.761 135.128 630.581 136.118 632.501C137.108 634.421 139.788 638.441 142.078 641.421C144.357 644.4 146.676 646.999 147.227 647.19C147.777 647.38 148.528 646.3 148.898 644.77C149.258 643.25 150.668 636.6 152.028 630.001C153.388 623.401 155.047 614.621 155.717 610.501C156.397 606.371 157.627 599.621 158.457 595.501C159.287 591.371 160.267 586.421 160.627 584.501C160.987 582.581 162.507 579.541 164.007 577.751C165.757 575.651 166.717 573.351 166.707 571.251C166.697 569.271 165.807 567.091 164.457 565.671C162.497 563.621 162.227 562.301 162.267 554.671C162.287 549.901 163.138 536.101 164.158 524.001C165.338 510.021 166.058 491.801 166.118 474.001C166.178 458.601 165.898 442.181 165.498 437.501C165.088 432.821 164.317 426.071 163.767 422.501C163.217 418.931 162.758 412.741 162.748 408.751C162.738 404.151 163.138 401.411 163.858 401.251C164.518 401.111 164.728 400.16 164.358 399.001C164.03 397.97 162.471 396.287 160.811 395.134L160.248 394.759C157.887 393.119 155.532 389.43 151.028 380.411C147.628 373.591 143.827 364.851 142.597 361.001C141.367 357.151 140.358 351.861 140.358 349.251C140.348 346.641 140.027 344.501 139.627 344.501Z"
        fill="currentColor" />
</svg>