<svg width="683" height="1073" viewBox="0 0 683 1073" fill="currentColor"
    xmlns="http://www.w3.org/2000/svg">
    <path
        d="M456.5 1.11035C458.15 0.520352 463.54 0.22043 468.5 0.44043C473.45 0.65043 479.08 1.13023 481 1.49023C482.92 1.85024 486.41 2.79032 488.75 3.57031C491.09 4.3603 493.45 5 494 5C494.55 5 496.69 5.6996 498.75 6.55957C500.81 7.41957 503.85 8.81016 505.5 9.66016C507.15 10.5002 510.52 11.8702 513 12.7002C515.48 13.5302 520.88 15.8904 525 17.9404C529.13 19.9904 534.08 22.5804 536 23.6904C537.92 24.8004 541.53 27.0097 544.01 28.5996C546.5 30.1996 551 32.2499 554.01 33.1699C557.03 34.0899 563.55 36.0202 568.5 37.4502C573.45 38.8902 579.3 40.58 581.5 41.21C583.7 41.8399 585.95 42.6497 586.5 43.0098C587.05 43.3598 589.75 44.4702 592.5 45.4502C595.25 46.4402 599.08 47.9295 601 48.7695C603.73 49.9495 604.99 50.0296 606.75 49.1396C607.99 48.5097 610.91 48 613.25 48C615.74 48.01 618.85 48.83 620.75 50C623.36 51.61 623.99 52.64 623.97 55.25C623.94 57.37 622.51 60.59 619.85 64.5C616.21 69.8398 615.83 70.94 616.4 74.5C616.76 76.7 617.32 81.6501 618.28 92.5L614.39 95.5C612.25 97.1498 610.05 98.8397 609.5 99.2598C608.95 99.6798 607.38 100.84 606 101.84C604.43 102.98 602.81 105.86 601.65 109.58C600.63 112.84 599.39 116.74 598.9 118.25C598.12 120.64 598.44 121.42 601.38 124.25C603.51 126.3 605.54 129.81 609 140L606.4 143.75C604.97 145.81 602.6 148.77 601.15 150.32C599.69 151.87 597.15 153.95 595.5 154.94C593.85 155.93 590.92 157.04 589 157.42C587.08 157.79 584.94 158.52 584.25 159.05C583.27 159.8 583.37 160.8 584.74 163.75C585.7 165.81 587.9 169.75 589.62 172.5C591.35 175.25 593.6 178.219 594.63 179.1C595.66 179.99 600.1 182.01 604.5 183.59C608.9 185.18 615.42 188.08 619 190.03C622.58 191.98 627.02 194.46 628.88 195.54C630.73 196.62 635.23 199.5 638.88 201.94C642.52 204.38 646.17 207.039 647 207.85C647.83 208.65 650.08 210.48 652 211.9C653.92 213.32 655.73 214.73 656 215.03C656.271 215.321 658.7 217.351 661.39 219.53C664.08 221.72 668.16 225.98 670.45 229C672.74 232.02 675.76 236.75 677.16 239.5C678.55 242.25 680.16 247.2 680.74 250.5C681.31 253.8 681.8 257.4 681.82 258.5C681.84 259.6 681.94 265 682.04 270.5C682.14 276 681.7 283.2 681.05 286.5C680.41 289.8 679.49 294.75 679 297.5C678.51 300.25 677.58 305.2 676.92 308.5C676.27 311.8 674.26 319 672.47 324.5C670.68 330 666.92 339.23 664.11 345C661.31 350.77 657.23 358.65 655.05 362.5C652.87 366.35 650.591 370.63 649.98 372C649.36 373.37 648.28 375.18 647.58 376C646.88 376.82 645.82 381.32 645.22 386C644.63 390.68 644.14 396.3 644.15 398.5C644.15 400.7 643.65 405.43 643.03 409C642.41 412.57 641.19 418.43 640.33 422C639.46 425.57 638.4 431.2 637.97 434.5C637.53 437.8 636.02 446.35 634.6 453.5C633.18 460.65 631.59 468.75 631.07 471.5C630.54 474.25 629.82 479.65 629.46 483.5C628.96 488.86 629.19 491.43 630.45 494.5C631.35 496.7 633.42 500.19 635.05 502.25C636.67 504.31 638.02 506.34 638.04 506.75C638.06 507.16 639.42 509.08 641.05 511C642.69 512.92 644.02 515.06 644.01 515.75C644.01 516.44 644.84 518.24 645.86 519.75C646.891 521.26 650.391 527.67 653.65 534C656.9 540.33 660.53 547.75 661.7 550.5C662.87 553.25 665.16 559.1 666.79 563.5C668.42 567.9 670.31 573.98 671.01 577C671.7 580.02 672.22 587.45 672.17 593.5C672.11 599.55 671.63 607.87 671.09 612C670.56 616.12 669.62 624.23 669.01 630C668.4 635.77 667.49 642.75 666.98 645.5C666.48 648.25 665.61 654.1 665.05 658.5C664.49 662.9 663.13 673.02 662.04 681C660.94 688.98 659.59 699.33 659.04 704C658.49 708.67 657.56 717.67 656.97 724C656.38 730.33 655.43 739.33 654.85 744C654.27 748.67 653.82 759.02 653.84 767C653.86 774.98 654.34 785.1 654.9 789.5C655.46 793.9 656.43 801.55 657.05 806.5C657.67 811.45 658.63 817.3 659.18 819.5C659.73 821.7 661.52 828 663.17 833.5C664.82 839 668.38 847.89 671.08 853.25C673.79 858.61 675.99 863.79 675.98 864.75C675.97 865.71 676.43 866.95 677 867.5C677.7 868.18 677.32 870.25 675.81 874C674.59 877.02 673.31 879.73 672.97 880C672.629 880.271 670.55 883.201 668.36 886.5C666.16 889.8 662.97 895.42 661.26 899C659.56 902.58 657.84 906.4 657.44 907.5C657.04 908.6 656.35 911.52 655.9 914C655.44 916.48 654.81 920.08 654.49 922C654.17 923.92 653.511 927.3 653.021 929.5C652.531 931.7 651.54 936.36 650.82 939.85C650.07 943.46 648.69 946.919 647.63 947.85C646.59 948.76 644.12 950.059 642.13 950.729C640.13 951.409 636.25 951.97 633.5 951.97C630.75 951.97 625.35 953.04 621.5 954.35C617.65 955.65 613.15 956.53 611.5 956.29C609.85 956.06 605.8 956.62 602.5 957.53C599.2 958.44 594.48 959.61 592 960.11C589.52 960.62 586.15 960.75 584.5 960.4C582.85 960.04 579.84 958.79 577.81 957.62C575.53 956.31 573.94 954.55 573.65 953C573.39 951.63 574.26 947.46 578 937L574.25 934.64C572.19 933.34 569.04 931.99 567.25 931.64C565.24 931.24 563.4 931.48 562.42 932.25C561.55 932.94 559.74 935.75 558.4 938.5C557.06 941.25 554.11 946.65 551.84 950.5C549.58 954.35 546.61 959.75 545.24 962.5C543.87 965.25 542.12 969.3 541.35 971.5C540.59 973.7 539.97 976.74 539.98 978.25C540.001 980.38 542.28 983.3 550.15 991.25C555.74 996.89 562.52 1004.88 565.24 1009C567.95 1013.12 571.93 1020.21 574.09 1024.75C576.24 1029.29 578.01 1034.01 578.021 1035.25C578.041 1037.03 577.15 1037.78 573.771 1038.84C571.421 1039.58 567.25 1040.05 564.5 1039.87C560.98 1039.65 558.76 1040.07 557 1041.28C555.63 1042.23 551.58 1043.46 548 1044C544.42 1044.55 539.02 1044.72 536 1044.37C532.98 1044.03 527.13 1042.9 523 1041.86C518.88 1040.83 512.91 1039.98 509.75 1039.99C506.59 1039.99 501.86 1040.53 499.25 1041.17C495.51 1042.09 493.23 1042.05 488.5 1041C485.2 1040.26 480.25 1038.56 477.5 1037.2C474.75 1035.85 469.35 1032.86 465.5 1030.56C461.65 1028.26 456.7 1025.54 454.5 1024.52C452.3 1023.5 448.36 1021.17 445.75 1019.33C443.14 1017.5 439.42 1014.42 434 1009L436.03 1003.75C437.15 1000.86 438.44 997.6 438.9 996.5C439.36 995.4 440.77 992.03 442.03 989C443.29 985.97 445.14 981.7 446.15 979.5C447.16 977.27 447.98 973.18 447.99 970.25C447.99 967.36 447.13 962.19 446.06 958.75C444.99 955.31 443.19 949.24 442.06 945.25C440.93 941.26 440.011 937.44 440.021 936.75C440.031 936.06 439.38 934.15 438.56 932.5C437.75 930.85 436.61 926.24 436.04 922.25C435.47 918.26 435.28 913.76 435.63 912.25C435.97 910.74 437.04 907.92 438 906C438.95 904.08 440.34 901.15 441.09 899.5C441.83 897.85 443.59 894.7 445 892.5C446.41 890.3 448.22 887.22 449.03 885.65C449.84 884.08 451.21 882.05 452.08 881.15C452.95 880.24 454.59 877.7 455.72 875.5C456.85 873.3 459.65 869.48 461.93 867C464.21 864.52 466.06 861.71 466.04 860.75C466.02 859.79 465.1 858.55 464 858C462.9 857.45 462 856.55 462 856C462 855.45 459.41 851.75 456.25 847.78C453.09 843.82 448.22 838.3 445.44 835.53C442.66 832.77 437.04 827.47 432.94 823.77C428.85 820.07 424.38 816.27 423 815.33C421.63 814.39 420.271 813.311 420 812.94C419.73 812.57 417.7 811.34 415.5 810.21C412.64 808.74 409.21 808.08 403.5 807.9C395.7 807.64 395.37 807.73 390.5 811.28C387.75 813.29 384.15 815.61 382.5 816.45C380.85 817.28 378.01 819.21 372.87 823.5L374.36 831C375.19 835.13 376.15 841.2 376.51 844.5C376.87 847.8 376.67 853.2 376.06 856.5C375.46 859.8 372.49 867.79 369.48 874.25C366.47 880.71 364.011 887.01 364.021 888.25C364.031 889.49 364.51 892.08 365.09 894C365.89 896.68 365.81 898.32 364.72 901C363.5 904.03 363.5 905.65 364.76 913C365.92 919.75 365.99 922.89 365.11 928.25C364.5 931.96 363.58 935.79 363.06 936.75C362.539 937.71 360.739 941.31 359.06 944.75C357.38 948.19 354.36 953.36 352.35 956.25C350.35 959.14 347.08 963.36 345.1 965.62C343.12 967.89 339.92 971.71 338 974.11C336.08 976.52 332.96 980.51 331.07 982.99C329.19 985.47 326.55 989.97 325.21 993C323.83 996.11 323.03 999.37 323.37 1000.5C323.69 1001.6 326.52 1005.2 329.65 1008.5C332.78 1011.8 336.99 1016.75 339.01 1019.5C341.02 1022.25 343.92 1026.75 345.45 1029.5C346.98 1032.25 348.97 1035.63 349.87 1037C350.76 1038.38 352.46 1041.53 353.64 1044C354.82 1046.47 356.51 1050.41 359 1057L356.25 1058.4C354.74 1059.18 350.69 1060.3 347.25 1060.9C342.97 1061.65 339.74 1061.68 337 1061C333.72 1060.18 332.51 1060.31 330.28 1061.75C328.79 1062.71 325.3 1064.36 322.53 1065.41C319.77 1066.47 314.8 1067.52 311.5 1067.76C308.2 1067.99 303.7 1067.67 301.5 1067.03C299.3 1066.39 295.92 1065.15 294 1064.27C292.08 1063.39 287.58 1062.14 284 1061.49C278.29 1060.46 276.59 1060.55 262.5 1064.28L256 1061.99C252.43 1060.73 247.25 1058.38 244.5 1056.76C241.75 1055.13 238.6 1053 237.5 1052.02C236.4 1051.04 231.45 1048.27 226.5 1045.88C221.55 1043.48 216.6 1040.72 215.5 1039.74C214.4 1038.76 213.16 1037.97 212.75 1037.98C212.34 1037.99 211.78 1037.21 211.5 1036.25C211.23 1035.29 212.35 1028.99 214 1022.25C215.65 1015.51 218.11 1007.19 219.47 1003.75C220.83 1000.31 221.62 997.09 221.22 996.58C220.81 996.05 216.96 995.95 212.25 996.33C206.14 996.83 203.03 996.63 200.25 995.56C198.19 994.77 191.77 993.92 186 993.68C180.23 993.43 173.93 992.75 172 992.16C169.42 991.38 167.59 989.69 165.05 985.8C163.15 982.88 160 979.029 158.05 977.229C156.1 975.44 154.05 973.97 153.5 973.99C152.95 974 147.76 971.64 141.97 968.75C134.95 965.25 130.283 962.186 127.97 959.56C126.06 957.4 123.49 953.679 122.25 951.31C121.01 948.94 120 946.1 120 945C120 943.9 120.45 942.1 121 941C121.667 939.667 121.667 938.333 121 937C120.02 935.04 119.94 935.04 117.25 936.84C115.74 937.86 112.48 940 110 941.59C107.53 943.19 103.48 945.99 101 947.8C98.53 949.62 94.5196 952.77 92.0996 954.8C89.6697 956.84 87.3096 958.61 86.8496 958.75C86.3791 958.891 84.6496 961.031 83 963.5C81.35 965.97 80 968.45 80 969C80 969.55 79.0902 971.91 77.9902 974.25C76.8802 976.59 75.9802 979.29 75.9902 980.25C75.9902 981.21 75.55 982.22 75 982.5C74.45 982.78 74 983.9 74 985C74 986.1 73.6101 987.79 73.1201 988.75C72.6401 989.71 71.7704 992.08 71.1904 994C70.6204 995.92 69.5899 1000.87 68.9199 1005C68.2499 1009.12 67.9997 1013.29 68.3496 1014.25C68.7096 1015.21 72.49 1017.63 76.75 1019.63C81.01 1021.63 87.2 1024.13 90.5 1025.19C93.8001 1026.25 101 1028.25 106.5 1029.63C114.82 1031.73 119.36 1032.21 133.5 1032.47C146.86 1032.72 151.36 1033.16 154.5 1034.52C156.7 1035.47 159.18 1036.57 160 1036.98C160.82 1037.39 161.5 1038.34 161.5 1039.09C161.5 1039.85 157.23 1043.31 152 1046.79C146.77 1050.26 137.32 1055.62 131 1058.69C124.68 1061.76 117.93 1065.05 116 1065.99C114.07 1066.93 108.9 1068.73 104.5 1069.98C100.1 1071.23 93.57 1072.31 90 1072.37C85.03 1072.45 81.26 1071.7 74 1069.17C68.7701 1067.36 62.7001 1065.06 60.5 1064.07C58.3 1063.08 54.1297 1061.19 51.2197 1059.88C48.3199 1058.57 45.9605 1057.28 45.9805 1057C45.9903 1056.72 44.5399 1055.87 42.75 1055.1C40.9598 1054.34 34.5995 1050.29 28.5996 1046.1C22.6097 1041.92 16.0896 1036.61 14.0996 1034.29C12.1197 1031.98 10.05 1030.07 9.5 1030.05C8.95 1030.02 7.8498 1028.99 7.0498 1027.75C6.25977 1026.51 4.4599 1023.39 0.5 1016.1L2.26953 1006.8C3.23953 1001.69 4.65992 994.58 5.41992 991C6.18992 987.42 7.92981 980.67 9.2998 976C10.6698 971.33 12.79 965.03 14 962C15.22 958.98 16.7997 954.92 17.5098 953C18.2298 951.08 20.6499 945.67 22.8799 941C25.1099 936.33 28.1897 930.22 29.7197 927.43C31.2497 924.64 33.0001 921.71 33.6201 920.93C34.2303 920.139 35.8606 917.48 37.2305 915C38.6005 912.52 41.3697 907.8 43.3896 904.5C45.3996 901.2 48.6904 896.25 50.6904 893.5C52.6904 890.75 55.1003 887.83 56.0303 887C56.9704 886.17 59.6798 883.92 62.0596 882C64.4396 880.08 68.2104 876.7 70.4404 874.5C72.6704 872.3 76.07 869.21 78 867.62C79.93 866.04 84.5997 861.99 88.3896 858.62C92.1795 855.26 96.2294 851.85 97.3896 851.05C98.5496 850.25 100.63 848.419 102 846.979C103.37 845.539 106.19 843.15 108.25 841.68C110.31 840.21 112.45 838.1 113 837C113.77 835.45 113.38 833.77 111.25 829.57C109.74 826.59 105.77 820.18 102.44 815.32C99.1104 810.47 92.4998 801.33 87.7598 795C83.0098 788.67 75.7196 779.11 71.5596 773.75C67.3998 768.39 64.0003 763.77 64 763.5C64 763.23 61.4195 759.06 58.2695 754.25C55.1196 749.44 51.4499 743.48 50.1299 741C48.7999 738.52 46.2605 733.58 44.4805 730C42.7005 726.42 40.0897 720.58 38.6797 717C37.2797 713.42 34.8004 706.45 33.1904 701.5C31.5804 696.55 29.0704 685.98 27.6104 678C26.1604 670.02 24.5302 660.35 23.9902 656.5C23.4602 652.65 22.54 640.27 21.96 629C21.37 617.73 21.1597 602.42 21.4697 595C21.8097 587.21 22.6703 579.7 23.5303 577.25C24.3403 574.91 26.9604 569.06 29.3604 564.25C31.7503 559.44 34.6197 553.92 35.7197 552C36.8197 550.08 39.1905 546.02 40.9805 543C42.7806 539.98 48.1901 531.65 61.7598 511.5L62.54 493C62.98 482.83 63.1402 456.73 62.9102 435C62.6902 413.27 62.5198 390.1 62.5498 383.5C62.5798 376.9 63.1 363.18 63.71 353C64.35 342.32 65.6801 330.49 66.8701 325C68.0001 319.77 69.5804 313.25 70.4004 310.5C71.2104 307.75 72.4604 303.91 73.1904 301.96C73.9104 300.01 75.29 297.19 76.25 295.71C77.21 294.22 77.9799 292.44 77.96 291.75C77.93 291.06 78.4901 289.99 79.21 289.36C79.9199 288.74 81.1103 286.26 81.8604 283.86C82.6103 281.46 83.57 274.55 84 268.5C84.43 262.45 85.4598 255.48 86.2998 253C87.1298 250.52 88.1295 246.93 88.5195 245C88.9095 243.07 90.12 239.48 91.21 237C92.3 234.52 95.0503 228.68 97.3203 224C99.5803 219.32 102.63 214.38 104.09 213C105.55 211.63 108.04 209.84 109.62 209.04C111.21 208.23 113.62 206.84 115 205.94C116.37 205.04 119.98 202.98 123 201.36C126.02 199.74 130.52 197.81 133 197.07C135.48 196.34 140.43 194.2 144 192.34C147.57 190.47 153.87 186.94 158 184.5C162.12 182.06 166.62 179.5 168 178.8C169.37 178.11 173.2 175.83 176.5 173.74C179.8 171.66 182.84 169.96 183.25 169.97C183.66 169.99 187.71 167.8 192.25 165.11C196.79 162.42 203.2 158.879 206.5 157.229C209.8 155.589 217.11 151.94 222.75 149.12C228.39 146.31 233.45 144 234 144C234.55 144 238.04 142.58 241.75 140.85C245.46 139.11 249.4 137.369 250.5 136.979C251.6 136.589 255.87 134.89 260 133.22C264.12 131.54 270.87 128.95 275 127.47C279.12 126 284.08 124.45 286 124.03C287.92 123.62 291.3 122.579 293.5 121.729C295.7 120.879 302.11 118.79 307.75 117.09C313.39 115.39 318 113.55 318 113C318 112.45 318.79 112.01 319.75 112.02C320.71 112.03 323.75 110.59 326.5 108.81C329.25 107.03 332.3 104.66 333.28 103.54C334.26 102.42 335.05 101.28 335.03 101C335.01 100.72 336.01 99.37 337.25 98C338.49 96.63 342.43 92.13 346 88C349.58 83.8801 352.73 80.2801 353 80C353.28 79.72 356.43 76.1496 360 72.0596C363.58 67.9697 367.43 63.6996 368.56 62.5596C369.7 61.4296 373.97 57.5797 378.06 54.0098C382.149 50.44 386.17 46.8305 387 45.9902C387.83 45.1502 390.98 42.4502 394 39.9902C397.02 37.5203 400.01 35.0601 400.63 34.5C401.25 33.95 405.98 30.46 411.13 26.75C416.28 23.04 423.2 18.2799 426.5 16.1699C429.8 14.0699 434.86 10.9199 437.75 9.16992C440.64 7.42993 443.45 6 444 6C444.55 6 446.91 5.13984 449.25 4.08984C451.59 3.03987 454.85 1.70037 456.5 1.11035ZM226.25 885.04C225.29 885.07 221.03 886.3 216.78 887.79C212.54 889.28 208.15 891.29 207.03 892.25C205.91 893.21 204.27 896.59 203.39 899.75C201.9 905.04 201.91 906.17 203.4 914C204.29 918.67 205.36 926.26 205.76 930.85C206.18 935.58 207.04 939.589 207.75 940.1C208.53 940.66 209.84 940.5 211.25 939.67C212.95 938.66 213.84 936.65 214.88 931.42C215.64 927.61 217.03 922.92 217.98 921C218.92 919.07 221.16 914.8 222.95 911.5C224.75 908.2 226.949 904.15 227.85 902.5C228.74 900.85 229.47 897.47 229.46 895C229.45 892.52 229.12 889.26 228.72 887.75C228.27 886.04 227.34 885.02 226.25 885.04ZM570.78 838.96C570.38 838.98 569.68 839.79 569.21 840.75C568.74 841.711 566.43 848.351 564.07 855.5L559.771 868.5C562.77 874.7 564.24 878.75 564.97 881.5C566.01 885.39 566.05 887.22 565.15 889.75C564.24 892.31 564.29 893.58 565.36 895.75C566.11 897.26 567.46 898.84 568.36 899.25C569.26 899.66 570.45 900 571 900C571.55 900 572.49 898.76 573.09 897.25C573.87 895.25 573.85 892.58 573.021 887.5C572.071 881.77 572.14 878.95 573.4 872C574.24 867.33 575.44 860.8 576.05 857.5C577 852.44 576.92 850.72 575.49 846.5C574.57 843.75 573.29 840.92 572.65 840.21C572.021 839.49 571.18 838.93 570.78 838.96ZM615.83 839.96C615.47 839.98 614.91 840.67 614.58 841.5C614.26 842.33 614 844.8 614 847C614 849.2 614.4 851.79 614.89 852.75C615.38 853.71 616.28 857.31 616.89 860.75C617.73 865.49 617.71 867.66 616.8 869.75C616.14 871.26 614.85 873.62 613.93 875C613.02 876.37 611.97 879.75 611.6 882.5C611.14 886 611.33 887.88 612.22 888.76C613.25 889.78 613.75 889.78 614.79 888.76C615.51 888.07 616.07 886.94 616.04 886.25C616.02 885.56 616.9 883.42 618 881.5C619.1 879.58 620 877.1 620 876C620 874.9 620.72 871.19 621.61 867.75C622.6 863.9 623.07 859 622.82 855C622.5 849.83 621.81 847.62 619.46 844.21C617.83 841.85 616.2 839.94 615.83 839.96ZM525.18 524C524.738 524.001 520.859 527.041 516.58 530.75C510.31 536.18 508.12 538.86 505.38 544.5C503.5 548.35 501.97 551.84 501.98 552.25C501.99 552.661 501.09 554.911 499.99 557.25C498.88 559.59 497.98 562.29 497.99 563.25C497.99 564.21 497.28 566.69 496.39 568.75C495.5 570.81 494.41 573.85 493.96 575.5C493.5 577.15 492.4 581.2 491.51 584.5C490.62 587.8 489.07 592.3 488.07 594.5C486.82 597.26 486.05 602.23 485.6 610.5C485.23 617.1 485.4 627.9 485.96 634.5C486.53 641.1 487.41 649.2 487.92 652.5C488.43 655.8 489.74 663.22 490.84 669C491.93 674.77 493.31 680.74 493.91 682.25C494.51 683.76 494.77 685.67 494.5 686.5C494.23 687.33 494.34 687.999 494.75 687.989C495.16 687.989 496.09 690.129 496.81 692.739C497.52 695.359 499.04 700.87 500.18 705C501.31 709.12 503.12 714.08 504.21 716C505.29 717.92 508.64 721.52 511.65 724C514.66 726.47 520.14 731.65 523.81 735.51C527.49 739.36 532.91 745.21 535.85 748.51C538.8 751.8 541.95 755.74 542.85 757.26C543.76 758.78 544.84 760.02 545.25 760.01C545.66 760.01 546 760.45 546 761C546 761.55 547.35 763.8 549 766C550.65 768.2 552 770.22 552 770.5C552.001 770.771 553.01 772.461 554.25 774.25C555.49 776.04 556.95 777.809 557.5 778.189C558.05 778.569 558.95 778.5 559.5 778.02C560.09 777.519 560.42 772.059 560.31 764.83C560.21 758.05 559.61 746.2 558.97 738.5C558.13 728.34 557.02 721.96 554.91 715.25C553.31 710.16 550.65 703.08 549 699.5C547.351 695.921 546.001 692.772 546 692.5C546 692.22 544.18 688.06 541.96 683.25C539.74 678.441 537.411 673.601 536.771 672.5C536.141 671.4 532.95 665.1 529.67 658.5C526.391 651.902 523.332 646.393 522.86 646.25C522.39 646.11 522 645.33 522 644.5C522 643.67 521.14 641.09 520.09 638.75C519.04 636.41 517.65 632.7 517.01 630.5C516.21 627.8 516 621.31 516.36 610.5C516.65 601.7 517.33 589.32 517.86 583C518.4 576.67 519.11 570.6 519.44 569.5C519.77 568.4 520.68 562.1 521.45 555.5C522.23 548.9 523.55 540.58 524.4 537C525.24 533.42 525.95 529.04 525.96 527.25C525.98 525.46 525.63 524 525.18 524ZM209.38 458.26C208.77 458.06 207.36 459.16 206.25 460.7C205.14 462.24 203.28 465.19 202.12 467.25C200.95 469.31 199.97 471.42 199.94 471.93C199.91 472.44 196.68 478.86 192.76 486.18C188.84 493.51 185.37 499.72 185.04 500C184.72 500.271 183.34 502.75 181.98 505.5C180.61 508.25 178.34 512.3 176.92 514.5C175.5 516.7 172.179 522.55 169.56 527.5C166.93 532.45 163.62 538.52 162.22 541C159.89 545.09 159.77 545.82 160.91 549C161.6 550.92 162.86 554.08 163.72 556C164.57 557.92 167.17 563.55 169.5 568.5C171.83 573.45 174.87 579.97 176.25 583C177.63 586.02 179.98 592.1 181.46 596.5C182.95 600.9 184.52 604.95 184.97 605.5C185.41 606.05 186.31 609.2 186.97 612.5C187.62 615.8 188.77 620.97 189.52 624C190.27 627.02 191.18 631.52 191.53 634C191.89 636.47 191.68 643.67 191.05 650C190.43 656.33 189.45 665.1 188.88 669.5C188.3 673.9 187.83 682.45 187.84 688.5C187.84 694.55 188.34 703.32 188.95 708C189.57 712.67 190.55 718.97 191.14 722C191.72 725.02 193.1 731.32 194.19 736C195.28 740.67 197.3 747.87 198.69 752C200.08 756.12 201.84 760.74 202.61 762.25L204 765C210.46 759.96 214.56 756.02 217.28 753C219.99 749.97 223.73 745.25 225.59 742.5C228.48 738.23 229.07 736.34 229.63 729.5C229.99 725.1 231.38 717.22 232.72 712C234.05 706.77 235.96 699.12 236.95 695C237.95 690.871 239.029 686.821 239.35 686C239.68 685.17 240.24 679.77 240.61 674C240.98 668.22 241.3 654.5 241.33 643.5C241.35 632.5 241.07 608.65 240.69 590.5C240.32 572.35 239.54 552.33 238.96 546C238.39 539.67 237.48 529.77 236.94 524C236.41 518.22 235.83 511.02 235.67 508C235.42 503.58 234.41 500.83 230.52 494C227.85 489.33 224.4 483.14 222.84 480.25C221.28 477.36 219.51 474.44 218.91 473.75C218.3 473.06 216.17 469.38 214.16 465.56C212.14 461.74 210 458.45 209.38 458.26Z"
        fill="currentColor" />
</svg>