<svg width="487" height="1112" viewBox="0 0 487 1112" fill="currentColor"
    xmlns="http://www.w3.org/2000/svg">
    <path
        d="M432 0.110352C433.919 0.0603527 440.9 0.470526 447.5 1.02051C454.099 1.57049 462.649 2.49031 466.5 3.07031C470.349 3.65027 475.299 4.59014 477.5 5.16016C479.7 5.73016 482.52 7.16059 483.78 8.35059C485.03 9.53049 486.04 11.51 486.03 12.75C486.01 13.99 485.44 16.14 484.75 17.54C484.06 18.94 481.59 20.96 479.25 22.04C476.91 23.12 473.309 23.9902 471.25 23.9902C469.189 23.9801 465.249 23.3803 462.5 22.6504C459.749 21.9303 454.119 19.7304 450 17.7705C445.87 15.8105 441.149 13.6803 439.5 13.0303C437.849 12.3903 431.999 11.8303 426.5 11.7803C418.5 11.7203 415.199 12.1605 410 13.9805C406.42 15.2405 401.479 17.2006 399 18.3506C396.519 19.4907 391.349 22.2203 387.5 24.4102C383.65 26.6001 380.27 28.6602 380 28.9902C379.729 29.3206 377.919 30.6802 376 32C374.08 33.32 372.27 34.6502 372 34.9502C371.729 35.2606 369.699 36.7205 367.5 38.2002C365.299 39.6803 361.8 42.6005 359.73 44.6904C357.65 46.7903 355.51 49.7399 354.98 51.25C354.1 53.73 354.3 54.17 357.1 55.75C358.81 56.71 363.08 59.19 366.6 61.25C370.12 63.3097 374.009 65.0101 375.25 65.0205C376.489 65.0305 379.3 65.8707 381.5 66.8906C383.699 67.9106 386.449 69.8101 387.62 71.1201C388.79 72.4301 389.96 75.3 390.23 77.5C390.52 79.87 392.3 83.8602 398.5 93.0898L400.25 89.0508C401.209 86.8211 402.449 84.7705 403 84.5C403.549 84.22 404.44 84.56 404.97 85.25C405.5 85.94 406.74 88.6705 407.72 91.3105C408.7 93.9597 409.949 96.1287 410.5 96.1299C411.05 96.1199 412.17 93.8302 413 91.0303C413.829 88.2313 414.839 85.9524 415.25 85.9707C415.659 85.9907 416.67 87.0101 417.48 88.25C418.29 89.49 419.92 93.6501 421.11 97.5C422.29 101.35 423.47 106.3 423.73 108.5C423.99 110.7 423.63 114.3 422.92 116.5C422.22 118.7 421.32 120.95 420.94 121.5C420.55 122.05 419.9 124.07 419.5 126C419.1 127.93 418.03 130.85 417.13 132.5C416.24 134.15 413.25 137.75 410.5 140.5C407.75 143.26 403.479 147.08 396.5 152.5L378.5 152.601C360.83 152.711 360.409 152.76 355.5 155.46C352.749 156.98 347.579 160.581 344 163.471C340.42 166.361 336.369 169.34 335 170.08C333.619 170.83 330.07 171.681 327.09 171.971C321.93 172.481 321.53 172.72 318.3 177.5C316.44 180.25 314.941 183.51 314.96 184.75C314.98 186.04 315.96 187.49 317.25 188.16C318.489 188.8 323.55 192.27 328.5 195.88C333.45 199.48 337.73 202.691 338 203.011C338.27 203.331 340.08 204.68 342 206C343.92 207.32 345.73 208.681 346 209.011C346.27 209.351 350.55 212.391 355.5 215.771C360.449 219.16 366.299 223.51 368.5 225.44C370.698 227.379 372.728 228.958 373 228.96C373.27 228.96 374.45 230.65 375.62 232.73C376.79 234.8 378.06 237.85 378.46 239.5C378.85 241.15 379.8 246.32 380.57 251C381.59 257.2 381.97 269.72 381.98 297.25C382 333.21 382.12 335.7 384.56 349.75C385.97 357.86 387.5 366.98 387.95 370C388.41 373.02 389.57 378.65 390.54 382.5C391.51 386.35 393.6 392.65 395.17 396.5C396.75 400.349 398.03 404.059 398.02 404.75C398.01 405.44 398.45 406.23 399 406.5C399.55 406.77 401.65 403.96 403.66 400.25C407.09 393.92 407.4 393.62 408.68 395.5C409.42 396.6 410.06 398.85 410.1 400.5C410.13 402.15 410.53 410.48 410.98 419C411.77 433.91 411.93 434.75 415.18 441C417.04 444.57 419.72 449.52 421.14 452C422.56 454.48 424.27 459.65 424.93 463.5C425.73 468.11 426.03 478.51 425.79 494C425.6 506.92 424.67 524.48 423.73 533C422.79 541.52 421.32 555.48 420.46 564C419.6 572.52 418.47 582.65 417.95 586.5C417.42 590.35 416.57 597.1 416.06 601.5C415.54 605.9 414.68 612.2 414.13 615.5C413.59 618.8 412.62 624.87 411.99 629C411.35 633.12 410.42 639.2 409.92 642.5C409.43 645.8 408.73 653.23 408.37 659C407.95 665.61 408.15 672.09 408.9 676.5C409.56 680.35 410.51 685.08 411.01 687C411.52 688.92 412.87 694.55 414 699.5C415.139 704.45 416.55 709.85 417.15 711.5C417.75 713.15 418.82 715.85 419.54 717.5C420.25 719.15 422.27 724.77 424.03 730C425.78 735.23 427.809 740.85 428.54 742.5C429.27 744.15 430.63 747.75 431.57 750.5C432.51 753.25 433.51 759.33 433.79 764C434.18 770.66 433.8 774.55 432.02 782C430.78 787.23 428.42 794.2 426.77 797.5C425.13 800.8 422.7 804.96 421.39 806.75C420.08 808.54 418.66 810 418.25 810C417.84 809.985 417.68 803.577 417.9 795.75C418.12 787.91 418.01 780.26 417.65 778.75C417.1 776.421 416.76 776.19 415.46 777.25C414.611 777.94 413.94 778.95 413.97 779.5C414 780.05 413.06 782.52 411.88 785C410.7 787.48 408.5 791.3 407 793.5C405.5 795.7 402.08 799.851 399.39 802.721C396.7 805.601 393.709 807.961 392.75 807.971C391.79 807.991 390.82 807.44 390.59 806.75C390.371 806.059 391.38 800.9 392.84 795.29C394.3 789.67 395.14 784.72 394.7 784.29C394.249 783.851 392.849 784.85 391.58 786.5C390.3 788.15 387.96 790.87 386.38 792.54C384.8 794.21 382.04 796.57 380.25 797.79C378.46 799 375.869 800 374.5 800C373.12 800 372 799.55 372 799C372 798.449 373.4 794.959 375.12 791.25C376.83 787.54 378.88 782.7 379.67 780.5C380.46 778.3 381.76 773.12 382.55 769C383.35 764.87 383.99 758.8 383.99 755.5C383.98 752.2 383.75 748.49 383.49 747.25C383.22 746.01 382.549 745.23 382 745.5C381.45 745.77 381 747.58 381 749.5C381 751.42 380.549 754.12 380 755.5C379.45 756.87 378.55 757.77 378 757.5C377.449 757.229 376.379 755.539 375.62 753.75C374.86 751.96 373.359 748.48 372.29 746C371.22 743.52 369.76 739.02 369.06 736C368.23 732.45 368 727.67 368.41 722.5C368.76 718.1 369.15 709.55 369.5 692.5L385 670L385.63 660.25C385.98 654.89 385.75 642.17 385.12 632C384.48 621.83 383.5 609.45 382.93 604.5C382.36 599.55 381.44 592.8 380.88 589.5C380.32 586.2 379.47 581.7 378.99 579.5C378.51 577.3 377.169 571.23 376 566C374.84 560.77 373.42 555.15 372.84 553.5C372.27 551.85 371.44 549.6 370.99 548.5C370.549 547.399 368.259 541.549 365.91 535.5C363.55 529.45 360.31 522.02 358.7 519C357.08 515.98 354.1 510.35 352.07 506.5C350.04 502.65 347.79 497.02 347.08 494C346.23 490.43 345.96 485.17 346.31 479C346.6 473.77 347.37 464.55 348.01 458.5C348.65 452.45 349.02 441.65 348.84 434.5C348.54 423.05 348.24 421.14 346.32 418.5C345.13 416.85 342.82 412.35 341.2 408.5C339.58 404.65 335.99 396.77 333.22 391C330.46 385.23 327.25 378.36 326.1 375.75C324.94 373.14 324 370.32 324 369.5C323.999 368.68 323.549 367.77 323 367.5C322.45 367.23 322 366.1 322 365C321.999 363.9 321.659 363.171 321.25 363.391C320.839 363.603 319.89 366.412 319.14 369.641C318.39 372.861 317.78 380 317.79 385.5C317.79 391 318.52 399.32 319.41 404C320.3 408.68 321.41 414.3 321.89 416.5C322.37 418.7 323.49 424.1 324.38 428.5C325.28 432.9 326.49 439.2 327.07 442.5C327.66 445.8 328.58 450.52 329.13 453C329.68 455.48 330.55 459.19 331.06 461.25C331.58 463.31 332.42 466.69 332.94 468.75C333.45 470.81 334.33 474.52 334.88 477C335.44 479.48 336.18 483.98 336.53 487C336.88 490.02 337.61 497.9 338.16 504.5C338.7 511.1 339.55 520.33 340.04 525C340.53 529.67 341.4 542.73 341.98 554C342.55 565.269 343.18 574.949 343.38 575.5C343.59 576.05 343.39 585.27 342.95 596C342.5 606.73 341.46 619.33 340.64 624C339.81 628.67 338.46 635.65 337.64 639.5C336.82 643.35 335.24 651.45 334.13 657.5C333.02 663.55 331.58 673.23 330.95 679C329.79 689.49 329.79 689.51 333.02 700C335.54 708.19 336.13 711.6 335.71 715.5C335.41 718.25 332.91 727.25 325.15 750.5L324.05 781.5C323.44 798.86 323.14 839.33 323.38 873.5C323.72 922.209 324.11 936.21 325.33 943C326.16 947.67 327.48 951.95 328.26 952.5C329.04 953.05 332.281 955.75 335.46 958.5C338.65 961.25 342.21 964.15 343.38 964.94C344.54 965.74 345.729 966.68 346 967.03C346.27 967.39 351.9 971.25 358.5 975.61C365.099 979.97 371.849 984.15 373.5 984.9C375.149 985.65 378.08 987.08 380 988.08C381.919 989.08 391.15 992.441 400.5 995.561C409.849 998.68 420.649 1002.04 424.5 1003.04C428.349 1004.04 434.649 1005.81 438.5 1006.99C442.349 1008.17 448.199 1009.85 451.5 1010.72C454.799 1011.59 459.299 1013.68 461.5 1015.36C463.699 1017.04 469.21 1022.14 473.75 1026.71C478.289 1031.27 482.018 1035.56 482.04 1036.25C482.06 1036.94 480.82 1038.09 479.29 1038.81C477.599 1039.61 474.139 1039.98 470.5 1039.75C467.2 1039.55 463.599 1039 462.5 1038.54C461.2 1038 461.81 1039.08 464.24 1041.6C466.289 1043.75 467.979 1045.84 467.99 1046.25C467.99 1046.66 466.76 1047.49 465.25 1048.09C463.739 1048.69 458.229 1049.8 453 1050.56C447.769 1051.32 437.419 1051.95 430 1051.97C422.17 1051.98 412.719 1051.34 407.5 1050.44C401.95 1049.48 397.159 1048 395 1046.59C393.079 1045.32 388.799 1042.94 385.5 1041.28C382.199 1039.62 376.799 1037.33 373.5 1036.18C370.199 1035.04 364.119 1033.21 360 1032.14C355.869 1031.06 348.899 1029.66 344.5 1029.03C340.1 1028.4 333.799 1027.48 330.5 1026.99C327.199 1026.49 317.749 1025.6 309.5 1025.01C301.25 1024.42 292.249 1023.72 289.5 1023.46C284.67 1023.01 284.399 1022.81 281.5 1017.75C279.85 1014.87 278.12 1011.61 277.65 1010.5C277.19 1009.4 275.74 1004.9 274.42 1000.5C273.11 996.1 272.03 991.26 272.02 989.75C272.01 988.24 272.95 984.86 274.11 982.25C275.28 979.64 277.35 975.02 278.72 972C280.1 968.98 282.03 964.48 283.01 962C284 959.52 286.31 954.35 288.15 950.5C291.26 944 291.5 942.78 291.5 933.5C291.499 928 290.95 917.65 290.27 910.5C289.59 903.35 288.55 892.77 287.95 887C287.36 881.23 286.5 875.83 286.05 875C285.37 873.76 285.13 873.85 284.71 875.5C284.42 876.6 282.82 882.9 281.15 889.5C279.48 896.1 276.24 908.92 273.96 918C271.67 927.08 268.56 938.33 267.04 943C265.53 947.67 263.66 953.421 262.89 955.771C262.13 958.11 260.829 960.26 260 960.53C259.17 960.8 258.269 960.751 258 960.431C257.73 960.101 257.19 947.16 256.82 931.67C256.44 916.17 255.64 898.55 255.04 892.5C254.44 886.45 253.71 879.25 253.4 876.5C253.1 873.75 252.47 865.2 252.01 857.5C251.54 849.8 250.45 837.42 249.6 830C248.74 822.58 248.03 813.8 248.01 810.5C247.99 807.2 246.87 799.1 245.51 792.5C244.15 785.9 243.03 779.04 243.02 777.25C243.01 775.46 242.56 772.09 242.02 769.75C241.49 767.41 240.54 763.48 239.92 761C239.3 758.52 238.39 753.91 237.9 750.75C237.4 747.59 236.6 742.41 236.1 739.25C235.61 736.09 234.7 729.23 234.08 724C233.46 718.77 232.03 710.9 230.91 706.5C229.78 702.1 228.22 695.35 227.43 691.5C226.65 687.65 225.219 681.46 224.25 677.75C223.29 674.031 222.17 671.331 221.77 671.75C221.37 672.16 219.64 677.67 217.93 684C216.21 690.33 213.31 701.58 211.48 709C209.65 716.42 207.67 725.54 207.07 729.25C206.48 732.96 205.52 739.04 204.93 742.75C204.34 746.46 203.47 751.75 202.98 754.5C202.5 757.25 201.63 763.44 201.05 768.25C200.47 773.06 199.57 780.49 199.05 784.75C198.53 789.01 197.6 799.92 196.99 809C196.38 818.08 195.42 830.9 194.86 837.5C194.31 844.1 193.66 868.85 193.42 892.5C193.18 916.147 193.01 936.166 193.04 937C193.08 938.33 192.91 938.33 191.5 937C190.63 936.17 189.94 935.05 189.97 934.5C190 933.949 188.95 931.25 187.63 928.5C186.31 925.75 183.61 919.23 181.64 914C179.66 908.77 178.04 903.71 178.02 902.75C178.01 901.79 177.549 900.77 177 900.5C176.45 900.23 176.01 899.21 176.01 898.25C176.02 897.29 175.12 893.58 174.01 890C172.91 886.42 171.6 882.15 171.11 880.5C170.62 878.85 169.15 873.56 167.86 868.75C166.56 863.93 165.16 859.99 164.75 860C164.34 860.001 163.82 861.011 163.6 862.25C163.38 863.49 162.23 869 161.03 874.5C159.84 880 158.43 888.1 157.92 892.5C157.4 896.9 156.31 908.83 155.49 919C154.68 929.17 154.01 942.67 154 949C154 955.33 154.45 966.58 155.01 974C155.57 981.42 156.51 989.53 157.11 992C157.7 994.47 158.64 997.85 159.2 999.5C159.75 1001.15 160.59 1003.4 161.06 1004.5C161.53 1005.6 163.37 1010.33 165.14 1015C166.92 1019.67 170.01 1026.65 172.02 1030.5C174.03 1034.35 176.59 1039.08 177.7 1041C178.82 1042.92 182.09 1048.33 184.97 1053C187.86 1057.67 191.07 1063.19 192.11 1065.25C193.61 1068.22 194 1071.19 194 1079.5C194 1085.79 193.38 1092.31 192.46 1095.75C191.62 1098.91 189.7 1103.75 188.21 1106.5C186.24 1110.14 184.82 1111.59 183 1111.83C181.22 1112.06 179.85 1111.35 178.23 1109.33C176.99 1107.77 174.62 1104.36 172.98 1101.75C170.96 1098.52 168.799 1096.51 166.25 1095.48C163.599 1094.4 158.979 1093.96 150.5 1093.97C143.9 1093.98 135.799 1094.51 132.5 1095.15C127.03 1096.22 126.039 1096.84 121.25 1102.16C116.75 1107.17 115.499 1108 112.5 1108C109.29 1108 108.83 1107.61 106.88 1103.25C105.72 1100.64 103.18 1094 101.24 1088.5C98.4799 1080.7 97.6801 1076.85 97.6001 1071C97.5101 1064.54 97.8403 1063.01 99.9702 1060C101.331 1058.08 106.341 1048.62 119.77 1021.5L120.91 1006.5C121.54 998.25 122.46 989.25 122.95 986.5C123.45 983.75 124.11 974.98 124.42 967C124.73 959.02 124.54 941.7 124 928.5C123.46 915.3 122.56 898.87 122 892C121.44 885.12 120.55 872.08 120.01 863C119.47 853.92 118.57 839.98 118.01 832C117.45 824.02 116.649 813.09 115.5 797.91L109.54 798.2C104.15 798.47 103.52 798.74 102.89 801C102.51 802.37 102.15 810.14 102.1 818.25C102.02 829.33 101.69 833 100.75 832.99C100.059 832.989 96.7988 830.15 93.4995 826.69C90.1995 823.22 86.0498 817.49 84.2798 813.94C82.5098 810.4 80.3696 805.25 79.5396 802.5C78.6996 799.75 78.0203 796.49 78.0103 795.25C78.0001 793.81 76.9196 792.37 74.9897 791.25C73.3299 790.29 71.9797 789.16 71.9897 788.75C71.9893 788.34 71.0993 787.77 69.9995 787.5C68.8894 787.22 66.9993 787.81 65.7495 788.83C64.5094 789.83 61.65 794.22 59.3901 798.58C57.1303 802.94 54.9904 807.74 54.6401 809.25C54.2901 810.76 53.6595 812.02 53.2495 812.04C52.8393 812.059 51.9601 810.819 51.3003 809.29C50.6403 807.76 49.5301 804.48 48.8501 802C48.1701 799.52 47.5803 791.88 47.5503 785C47.5103 775.25 47.9202 771.29 49.3901 767C50.4302 763.98 52.2901 759.48 53.52 757C54.7601 754.52 57.5503 750.25 59.7202 747.5C61.9002 744.75 64.6096 739.8 65.7495 736.5C66.8795 733.2 68.2801 728.25 68.8501 725.5C69.4301 722.75 70.3697 718.14 70.9497 715.25C71.5297 712.36 71.9995 705.16 71.9995 699.25C71.9995 693.34 71.3799 685.58 70.6099 682C69.8498 678.42 67.8902 670.55 66.2603 664.5C64.6403 658.45 62.7202 652.37 62.0103 651C61.2903 649.63 60.4995 647.15 60.2495 645.5C59.9994 643.85 58.9501 640.7 57.9302 638.5C56.9002 636.3 55.3299 631.8 54.4399 628.5C53.55 625.2 52.4197 621.04 51.9097 619.25C51.4097 617.46 50.5901 614.54 50.1001 612.75C49.6 610.96 48.03 605.9 46.6001 601.5C45.1701 597.1 44.0003 592.83 44.0103 592C44.02 591.169 42.8701 585.999 41.4702 580.5C40.0602 575 38.2595 567.58 37.4595 564C36.6695 560.42 35.5101 556.15 34.8901 554.5C34.2701 552.85 32.86 549.48 31.77 547C30.67 544.52 28.4395 538.45 26.8296 533.5C25.2096 528.55 22.9698 521.13 21.8599 517C20.7399 512.88 18.7795 505.45 17.4995 500.5C16.2195 495.55 14.45 489.48 13.5601 487C12.6801 484.52 11.97 481.49 11.98 480.25C11.9898 479.01 11.15 474.74 10.1001 470.75C9.06009 466.76 7.29968 459.23 6.19971 454C5.08972 448.77 3.72012 442.02 3.14014 439C2.56014 435.98 1.72954 427.98 1.28955 421.24C0.859713 414.503 0.839976 408.994 1.24951 408.99C1.6595 409 3.18994 411.36 4.6499 414.25C6.09985 417.14 8.9798 421.75 11.0298 424.5C13.0898 427.25 16.0604 430.69 17.6304 432.15C19.2104 433.6 22.2997 435.74 24.4995 436.9C26.6993 438.06 30.0694 439.29 31.9995 439.63C33.9294 439.97 37.1895 439.74 39.2495 439.12C42.9295 438.02 43.0602 437.81 45.9702 428.25C47.6002 422.89 49.8901 414.9 51.0601 410.5C52.2301 406.1 54.0604 398.23 55.1304 393C56.2004 387.77 57.5198 380.13 58.0698 376C58.6098 371.88 59.5103 355.23 60.0503 339C60.5903 322.77 61.4896 303.65 62.0396 296.5C62.5896 289.35 63.4399 278.32 63.9399 272C64.4299 265.68 65.2703 258.7 65.8003 256.5C66.3303 254.3 67.53 248.9 68.48 244.5C69.42 240.1 70.9003 235.15 71.7603 233.5C72.6107 231.85 76.73 227.12 80.9097 223C85.0793 218.87 89.3991 214.821 90.4995 213.99C91.5995 213.15 96.7696 209.94 102 206.84C107.229 203.74 115.319 199.061 120 196.431C124.679 193.801 132.099 189.74 136.5 187.41C141.98 184.5 146.39 181.16 150.48 176.83C153.77 173.35 159.62 166.45 163.49 161.5C167.36 156.55 171.61 150.7 172.94 148.5C174.27 146.3 175.96 141.57 176.68 138C177.4 134.43 178.28 128.8 178.63 125.5C179.13 120.75 178.86 118.56 177.32 115C176.25 112.53 174.049 109.25 169.5 104.931L172 102.98C173.369 101.9 186.2 95.2205 200.5 88.1406C214.799 81.0509 228.299 74.4604 230.5 73.5C232.699 72.5501 236.079 71.1106 238 70.3105C239.919 69.5106 243.98 67.6003 247 66.0703C250.019 64.5403 257.67 61.26 264 58.79C270.329 56.3102 277.079 53.7806 279 53.1504C280.919 52.5304 285.87 51.3001 290 50.4102C294.119 49.5302 300.419 48.5002 304 48.1201C308.059 47.6901 312.94 46.2702 317 44.3203C320.579 42.6104 325.749 40.21 328.5 39C331.249 37.7801 334.849 36.2206 336.5 35.5205C338.149 34.8305 342.42 33.0207 346 31.5107C349.579 30.0008 356.66 26.7899 361.75 24.3799C366.837 21.9712 371.225 20.0022 371.5 20C371.77 20 377.29 17.4705 383.75 14.3906C390.209 11.3008 397.749 7.87098 400.5 6.76074C403.249 5.66082 407.079 4.3304 409 3.82031C410.919 3.31033 416.1 2.28003 420.5 1.54004C424.899 0.800098 430.079 0.160442 432 0.110352ZM142.39 305.76C141.657 305.093 141.08 305.221 140.66 306.141C140.319 306.893 138.3 312.901 136.18 319.5C134.06 326.1 131.801 333.3 131.17 335.5C130.54 337.7 129.36 342.2 128.56 345.5C127.76 348.8 126.15 356 124.97 361.5C123.8 367 122.18 374.65 121.38 378.5C120.58 382.35 119.28 388.2 118.49 391.5C117.7 394.8 115.96 403.58 114.63 411C113.31 418.43 111.74 427.88 111.16 432C110.57 436.13 109.84 443.55 109.53 448.5C109.22 453.45 109.39 460.88 109.9 465C110.41 469.13 112.41 478.35 114.35 485.5C117.85 498.4 117.87 498.56 116.46 505.5C115.67 509.35 113.51 518.13 111.65 525C109.79 531.88 107.33 541.33 106.18 546C105.04 550.67 103.42 557.65 102.59 561.5C101.76 565.35 100.38 573.45 99.5298 579.5C98.6798 585.55 97.9898 596.01 97.9897 602.75C97.9997 609.49 98.6602 620.96 99.4702 628.25C100.28 635.54 101.84 646 102.92 651.5C104.01 657 106.06 666 107.48 671.5C108.89 677 111.12 683.3 112.42 685.5C113.72 687.7 116.64 691.98 118.92 695C121.19 698.02 124.95 701.98 127.28 703.79C129.599 705.59 131.949 706.9 132.5 706.69C133.05 706.48 137.17 698.93 141.65 689.91C146.13 680.88 150.29 671.36 150.9 668.75C151.5 666.14 152.01 655.34 152.01 644.75C152.02 634.16 152.68 613.35 153.49 598.5C154.29 583.65 155.4 567 155.94 561.5C156.49 556 157.64 547.23 158.5 542C159.35 536.77 160.51 529.58 161.08 526C161.64 522.42 162.59 516.58 163.18 513C163.77 509.42 165.32 501.1 166.62 494.5C167.92 487.9 169.84 479.13 170.9 475C171.96 470.88 174.03 463.68 175.51 459C176.98 454.33 179.32 447.35 180.69 443.5C182.07 439.65 183.82 434.14 184.59 431.25C185.49 427.91 186 420.81 186.01 411.75C186.01 403.91 185.34 393.23 184.53 388C183.71 382.77 182.61 376.93 182.09 375C181.56 373.08 180.8 370.38 180.38 369C179.97 367.63 177.64 362.45 175.21 357.5C172.79 352.55 169.16 345.8 167.15 342.5C165.14 339.2 163.16 336.39 162.75 336.25C162.34 336.11 162 335.55 162 335C161.998 334.449 157.839 327.869 152.75 320.38C147.66 312.88 143 306.31 142.39 305.76Z"
        fill="currentColor" />
</svg>