<svg width="599" height="640" viewBox="0 0 599 640" fill="currentColor"
    xmlns="http://www.w3.org/2000/svg">
    <path
        d="M92.5899 1.01771C96.1898 0.157722 102.75 -0.1627 111.59 0.077281C120.05 0.297274 127.52 1.07741 131.59 2.15736C135.16 3.09733 141.35 5.38724 145.34 7.2472C149.92 9.37718 154.55 12.5671 157.9 15.8771C160.82 18.767 164.94 23.8271 167.05 27.1271C169.16 30.427 172.13 35.8271 173.65 39.1271C175.17 42.427 177.321 47.8271 178.431 51.1271C179.531 54.427 181.34 60.4971 182.45 64.6271C183.55 68.747 185.391 75.3871 186.521 79.3771C187.661 83.3671 188.25 86.6176 187.84 86.6076C187.429 86.5968 185.84 85.3571 184.32 83.8576C181.791 81.3677 181.55 81.3075 181.55 83.1271C181.55 84.2271 183.02 86.5179 184.82 88.2179C186.62 89.9078 189.89 92.3471 192.09 93.6271C194.29 94.9071 201.491 98.697 208.101 102.047C214.701 105.387 223.701 109.668 228.101 111.558C232.491 113.448 242.39 118.198 250.09 122.108C257.79 126.028 267.02 131.198 270.59 133.598C274.16 135.998 279.34 139.788 282.09 142.018C284.84 144.258 289.11 148.328 291.59 151.058C294.07 153.798 298.35 158.307 301.11 161.077C303.87 163.857 310.17 169.958 315.11 174.648C320.05 179.338 329.04 187.667 335.09 193.167C341.14 198.667 347.931 204.728 350.181 206.648C352.431 208.558 355.361 211.007 356.681 212.077C358.011 213.147 362.91 217.008 367.59 220.657C372.27 224.307 378.34 228.628 381.09 230.258C383.84 231.898 388.11 234.167 390.59 235.318C393.07 236.467 398.69 238.618 403.09 240.098C407.49 241.578 416.27 243.838 422.59 245.138C428.92 246.428 438.14 248.037 452.09 249.917L465.59 263.627L468.34 261.737C469.85 260.697 473.611 257.207 476.681 253.987C479.761 250.767 483.87 245.647 485.82 242.627C487.77 239.607 490.49 234.647 491.86 231.627C493.23 228.607 495.16 223.427 496.15 220.127C497.42 215.847 497.96 210.537 498.01 201.627C498.08 190.067 497.841 188.337 494.721 178.627C492.871 172.847 488.771 162.277 485.601 155.127C482.431 147.977 477.981 138.187 475.721 133.377C473.451 128.567 471.6 124.067 471.61 123.377C471.62 122.687 471.19 121.677 470.67 121.127C470.15 120.576 468.759 116.524 465.46 104.127L467.521 96.3771C468.661 92.1172 470.56 86.717 471.74 84.3771C472.92 82.037 475.801 77.1969 478.15 73.6271C480.5 70.0571 484.18 65.097 486.33 62.6271C488.48 60.1472 492.01 57.2778 494.17 56.2277C497.57 54.5777 499.47 54.4179 508.59 54.9679C514.36 55.3279 521.57 56.2277 524.59 56.9777C527.61 57.7377 534.36 59.8176 539.59 61.6076C544.82 63.3975 553.14 66.8771 558.09 69.337C563.04 71.7969 569.79 75.737 573.09 78.087C576.39 80.447 581.28 84.5779 583.95 87.2579C586.62 89.9378 589.98 94.1571 591.42 96.6271C592.86 99.097 594.831 104.057 595.811 107.627C596.791 111.197 597.88 117.497 598.23 121.627C598.58 125.747 598.54 131.377 598.15 134.127C597.64 137.757 597.2 138.717 596.53 137.627C595.94 136.648 595.62 138.968 595.61 144.377C595.59 149.937 594.92 154.667 593.55 158.877C592.43 162.317 589.84 167.357 587.8 170.077C585.76 172.797 582.18 176.507 579.84 178.327C577.5 180.137 575.14 181.407 574.59 181.127C574.04 180.846 572.7 178.716 571.61 176.377C569.88 172.657 569.63 169.947 569.62 154.627C569.61 144.997 569.11 133.527 568.5 129.127C567.89 124.727 566.721 118.197 565.891 114.627C565.061 111.057 563.67 106.777 562.8 105.127C561.93 103.477 560.07 101.107 558.66 99.8673C557.25 98.6273 552.71 95.9679 548.59 93.9679C544.46 91.9579 537.94 89.4476 534.09 88.3976C530.24 87.3376 523.49 86.2279 519.09 85.9279C514.69 85.6279 508.61 85.8777 505.59 86.4777C500.81 87.4376 499.89 88.0076 498.59 90.8576C497.63 92.9476 497.09 97.1975 497.09 102.627C497.09 110.537 497.46 112.057 502.42 124.627C505.35 132.057 508.58 140.157 509.59 142.627C510.6 145.097 512.991 151.177 514.891 156.127C516.791 161.077 519.61 169.407 521.15 174.627C523.49 182.547 523.95 185.957 523.94 195.127C523.93 202.027 523.34 208.177 522.36 211.627C521.5 214.647 519.91 219.377 518.82 222.127C517.73 224.877 515.15 230.497 513.08 234.627C511.02 238.747 507.98 244.147 506.33 246.627C504.69 249.107 499.46 254.947 494.71 259.627C488.93 265.307 484.08 269.078 480.08 271.008C476.79 272.588 473.98 274.048 473.84 274.258C473.703 274.462 475.472 277.44 477.771 280.877C480.071 284.317 483.611 290.727 485.641 295.127C487.661 299.527 490.37 306.277 491.66 310.127C493.36 315.187 494 319.347 493.99 325.127C493.98 330.167 493.32 334.977 492.21 338.127C491.24 340.877 489.241 345.248 487.771 347.848C486.291 350.438 484.72 352.468 484.26 352.348C483.809 352.23 481.73 357.079 479.641 363.127C477.551 369.177 474.72 376.607 473.34 379.627C471.79 383.047 470.23 389.477 469.21 396.627C468.32 402.947 467.59 410.267 467.59 412.877C467.59 417.457 467.71 417.648 470.84 418.188C472.63 418.488 476.32 419.048 479.04 419.438C483.54 420.068 484.18 420.487 486.04 424.127C487.17 426.327 490.34 430.407 493.09 433.197C496.45 436.597 499.73 438.817 503.09 439.957C505.84 440.887 510.9 441.648 514.34 441.638C520.17 441.628 520.591 441.777 520.561 443.877C520.541 445.117 520.13 449.047 519.65 452.627C519.17 456.207 518.06 464.077 517.19 470.127C516.32 476.177 515.18 484.277 514.66 488.127C514.14 491.977 513.231 499.397 512.641 504.627C512.041 509.857 511.22 518.148 510.09 531.978L503.09 534.858C499.24 536.438 493.84 538.448 491.09 539.318C487.79 540.358 484.22 542.658 480.59 546.058C477.57 548.888 472.84 553.038 470.09 555.277C467.34 557.507 462.84 560.757 460.09 562.497C457.34 564.237 453.96 565.638 452.59 565.608C451.21 565.577 449.07 565.007 447.82 564.337C445.93 563.327 445.76 562.878 446.82 561.558C447.52 560.698 450.57 558.007 453.59 555.568C456.61 553.138 461.331 549.118 464.061 546.638C466.801 544.158 470.851 540.287 473.061 538.047C475.281 535.797 479 533.097 481.33 532.047C483.67 530.987 485.47 530.017 485.33 529.877C485.196 529.739 481.257 530.988 476.59 532.657C470.36 534.877 466.89 536.817 463.59 539.947C461.11 542.287 456.17 546.287 452.59 548.827C449.01 551.377 443.39 555.078 440.09 557.058C436.45 559.248 432.81 560.648 430.84 560.638C429.05 560.638 426.69 560.177 425.59 559.627C424.49 559.077 423.59 557.957 423.59 557.127C423.591 556.297 427.081 553.297 431.34 550.457C435.599 547.618 439.318 544.999 439.59 544.648C439.86 544.298 441.04 543.367 442.21 542.568C443.38 541.778 447.33 538.427 450.99 535.127C454.65 531.827 457.63 528.567 457.62 527.877C457.6 527.187 456.69 526.627 455.59 526.627C454.489 526.628 451 528.747 447.84 531.337C444.68 533.937 439.17 537.827 435.59 539.997C432.01 542.167 427.74 544.708 426.09 545.648C424.44 546.578 421.63 547.627 419.84 547.987C417.77 548.397 415.5 548.087 413.59 547.127C411.94 546.297 410.59 545.177 410.59 544.627C410.59 544.077 411.15 543.188 411.84 542.638C412.53 542.098 416.69 539.797 421.09 537.537C425.49 535.267 432.01 531.147 435.59 528.367C439.17 525.597 442.99 522.257 444.09 520.947C445.86 518.847 447.37 518.458 457.09 517.598C463.14 517.068 471.01 515.897 474.59 514.997C478.169 514.107 482.209 512.818 483.59 512.138C484.96 511.448 486.8 509.818 487.66 508.508C488.53 507.198 490.841 502.077 492.811 497.127C494.771 492.177 498 482.277 499.99 475.127C501.98 467.977 503.601 461.337 503.601 460.377C503.59 459.417 503.03 458.018 502.34 457.268C501.65 456.518 499.29 455.378 497.09 454.728C494.889 454.078 483.189 452.947 471.09 452.207C455.62 451.267 447.61 450.347 444.09 449.117C441.34 448.147 437.51 446.357 432.09 442.907L431.94 431.018C431.81 420.408 431.371 417.617 427.811 405.127C425.621 397.427 423.32 388.987 422.71 386.377C422.09 383.766 421.59 373.307 421.59 363.127C421.59 349.007 421.29 344.618 420.34 344.598C419.649 344.588 415.939 346.157 412.09 348.087C408.24 350.027 403.55 352.847 401.67 354.367C399.78 355.887 394.83 360.108 390.67 363.758C386.5 367.398 380.15 373.478 376.561 377.258C372.971 381.038 368.211 386.377 365.98 389.127C363.751 391.877 361.541 394.807 361.07 395.627C360.6 396.447 359.74 400.187 358.09 410.737L361.09 413.037C362.74 414.307 365.89 416.238 368.09 417.348C370.29 418.448 375.02 420.257 378.59 421.377C382.16 422.487 386.66 423.677 392.09 424.657L390.88 431.398C390.21 435.098 389.66 445.777 389.66 455.127C389.65 464.477 390.31 478.427 391.13 486.127C391.94 493.827 392.94 502.278 394.09 509.688L389.09 511.087C386.34 511.857 378.24 514.138 371.09 516.148C363.94 518.168 356.52 520.658 354.59 521.688C352.66 522.718 347.489 526.898 335.09 538.407L336.26 548.768C337.2 557.087 337.17 559.617 336.13 561.627C335.42 562.997 332.15 566.607 328.86 569.627C325.57 572.647 320.901 576.148 318.48 577.388C316.07 578.628 309.25 583.238 303.34 587.638C295.56 593.418 291.38 597.357 288.2 601.877C285.79 605.317 282.08 611.437 279.95 615.497C277.61 619.947 275.2 623.207 273.84 623.747C272.19 624.387 271.02 624.157 269.46 622.877C267.43 621.207 267.39 620.807 268.54 614.127C269.21 610.277 270.661 604.207 271.771 600.627C272.881 597.047 274.651 592.437 275.69 590.377C277.15 587.497 279.28 585.717 284.84 582.728C288.829 580.578 292.649 578.108 293.34 577.228C294.4 575.868 294.17 575.468 291.84 574.558C289.78 573.758 287.16 573.888 281.34 575.058C277.08 575.918 271.711 577.417 269.4 578.377C266.71 579.497 263.64 582.097 260.8 585.627C258.37 588.647 254.79 593.827 252.83 597.127C250.87 600.427 248.561 603.927 247.681 604.907C246.811 605.887 245.19 606.697 244.09 606.707C242.99 606.707 241.41 605.968 240.59 605.058C239.31 603.648 239.28 602.727 240.37 598.768C241.07 596.218 242.57 591.647 243.7 588.627C244.82 585.607 246.36 581.777 247.11 580.127C247.86 578.477 249.581 575.327 253.391 569.127L248.24 569.478C244.19 569.748 242.5 569.378 240.34 567.728C238.34 566.198 237.66 564.877 237.84 562.877C238.03 560.767 238.67 560.068 240.59 559.858C241.96 559.708 245.57 558.938 248.59 558.138C251.61 557.348 256.68 555.557 259.84 554.167C264.48 552.117 267.19 551.627 273.84 551.627C278.38 551.627 283.66 551.168 285.59 550.608C287.52 550.048 290.371 548.358 291.931 546.858C293.491 545.358 295.171 543.337 295.681 542.377C296.181 541.416 297.23 535.566 298.01 529.377C298.79 523.187 300 510.927 300.69 502.127C301.7 489.307 301.71 482.747 300.71 469.127C300.03 459.777 298.54 445.147 297.4 436.627C296.27 428.107 295.3 415.947 295.26 409.627C295.19 399.927 295.621 396.557 297.98 388.127C299.511 382.627 302.35 373.397 304.28 367.627C306.21 361.857 308.49 355.777 309.33 354.127C310.52 351.807 310.72 349.317 310.23 343.127C309.88 338.727 309.041 330.258 308.351 324.298C307.091 313.508 307.08 313.477 304.59 314.037C303.209 314.347 296.579 315.617 277.59 319.127L277.61 323.127C277.62 325.327 278.26 330.947 279.03 335.627C279.8 340.307 281.151 347.277 282.021 351.127C282.901 354.977 284.78 361.277 286.2 365.127C287.63 368.977 289.02 372.807 289.311 373.627C289.591 374.447 289.32 376.697 288.71 378.627C288.1 380.557 287.711 382.237 287.851 382.367C287.981 382.496 289.661 380.537 291.59 378.018C294.34 374.408 295.16 373.828 295.42 375.277C295.6 376.297 294.441 380.057 292.851 383.627C291.251 387.197 288.22 392.607 286.11 395.627C283.99 398.647 281.101 402.608 279.681 404.428C278.251 406.237 277.541 407.687 278.09 407.648C278.64 407.608 280.57 405.897 282.38 403.858C284.72 401.198 285.66 400.628 285.63 401.877C285.61 402.837 284.601 405.987 283.391 408.877C282.181 411.767 279.19 417.277 276.74 421.127C274.3 424.977 270.68 430.147 268.7 432.627C266.72 435.107 262.8 439.607 259.99 442.627C257.18 445.647 253.26 449.927 251.28 452.127C247.93 455.837 247.66 456.597 247.62 462.627C247.59 466.207 246.9 476.327 246.09 485.127C245.28 493.927 244.19 503.827 243.67 507.127C243.14 510.427 242.271 515.607 241.73 518.627C241.191 521.647 240.511 526.827 240.221 530.127C239.751 535.547 239.99 536.607 242.76 541.127C244.45 543.877 245.44 546.227 244.96 546.337C244.48 546.457 242.29 547.938 240.09 549.638C237.89 551.328 235.41 553.257 234.59 553.917C233.76 554.587 231.06 556.697 228.59 558.617C226.11 560.527 222.74 563.358 221.09 564.888C219.15 566.687 217.21 567.577 215.601 567.398C214.121 567.238 213.001 566.417 212.851 565.377C212.711 564.417 213.631 561.267 214.9 558.377C216.18 555.487 218.31 551.827 219.65 550.237C220.99 548.648 223.21 546.297 224.59 545.027C226.82 542.957 226.96 542.437 225.84 540.167C225 538.457 223.77 537.627 222.09 537.627C220.71 537.627 217.45 538.568 214.84 539.728C212.23 540.878 207.5 543.578 204.34 545.728C199.49 549.017 198.1 550.687 195.45 556.377C193.73 560.087 191.54 565.607 190.59 568.627C189.53 572.017 188.08 574.507 186.82 575.127C185.3 575.867 184.62 577.437 184.19 581.127C183.88 583.877 182.79 588.377 181.79 591.127C180.78 593.877 178.241 599.277 176.141 603.127C174.031 606.977 171.71 612.147 170.96 614.627C170.22 617.107 169.611 619.687 169.601 620.377C169.591 621.097 170.85 621.627 172.59 621.627C174.87 621.627 176.97 620.297 181.34 616.077C185.129 612.418 187.77 610.637 189.09 610.837C190.69 611.087 191.151 612.038 191.391 615.638C191.551 618.108 191.101 621.437 190.391 623.027C189.671 624.627 187.07 627.597 184.59 629.617C182.11 631.637 177.16 634.728 173.59 636.478C170.02 638.238 165.74 639.647 164.09 639.627C162.44 639.597 159.29 639.147 157.09 638.627C154.89 638.097 152.51 637.098 151.8 636.398C150.75 635.358 150.9 634.117 152.62 629.627C153.79 626.607 155.38 621.087 156.16 617.377C156.95 613.667 157.59 608.827 157.59 606.627C157.59 603.961 157.09 602.46 156.09 602.127C155.27 601.857 153.02 601.627 151.09 601.627C148.05 601.627 147.19 602.227 144.59 606.127C142.94 608.607 141.59 611.076 141.59 611.627C141.59 612.177 141.7 612.637 141.84 612.648C141.98 612.658 144 611.988 146.34 611.148C148.679 610.308 151.039 609.858 151.59 610.127C152.14 610.397 152.59 612.207 152.59 614.127C152.59 616.557 151.6 618.897 149.34 621.787C147.55 624.067 144.52 627.237 142.59 628.827C140.4 630.647 137.41 631.957 134.59 632.337C130.97 632.837 128.97 632.437 124.34 630.287C121.18 628.827 118.37 626.957 118.09 626.127C117.811 625.296 120.651 620.016 124.4 614.377C128.15 608.737 132.2 601.987 133.4 599.377C134.6 596.767 135.59 594.177 135.59 593.627C135.59 593.077 134.91 592.627 134.09 592.627C133.27 592.628 131.07 594.988 129.221 597.877C127.371 600.767 124.55 604.388 122.97 605.938C120.44 608.397 118.96 608.858 110.84 609.688C104.78 610.298 100.73 610.287 99.0899 609.627C97.71 609.077 96.3698 607.957 96.0899 607.127C95.8101 606.297 95.9798 605.067 96.4698 604.377C96.9498 603.687 99.3099 602.597 101.72 601.947C104.12 601.297 108.32 599.267 111.04 597.447C114.16 595.357 117.57 591.717 120.26 587.627C122.61 584.047 125.15 580.457 125.9 579.627C126.661 578.797 130.841 575.207 135.19 571.648C139.53 568.078 144.44 563.728 146.09 561.968C147.74 560.208 149.621 557.047 150.271 554.947C150.911 552.847 152.601 545.387 154.021 538.377C156.22 527.457 157.58 523.577 163.46 511.377C167.24 503.537 174.73 488.127 180.11 477.127C185.48 466.127 192.03 452.397 194.66 446.627C198.98 437.167 199.33 435.877 198.17 433.627C197.47 432.247 195.75 428.647 194.37 425.627C192.98 422.607 190.441 417.087 188.721 413.377C187.001 409.667 185.58 406.287 185.58 405.877C185.569 405.466 184.469 402.426 183.13 399.127C181.79 395.827 180.001 389.867 179.141 385.877C178.291 381.887 177.6 377.387 177.63 373.127L181.55 378.127L181.57 371.877C181.59 367.027 182.29 364.117 184.71 358.877C186.42 355.167 188.96 349.647 190.34 346.627C191.73 343.607 194.471 337.077 196.431 332.127C199.291 324.887 199.97 321.857 199.9 316.627C199.85 313.057 198.84 306.307 197.65 301.627C196.45 296.947 194.94 291.667 194.28 289.877C193.45 287.607 191.14 285.347 186.62 282.377C183.06 280.037 176.88 274.867 165.59 263.627L164.641 267.377C164.121 269.437 163.23 273.147 162.66 275.627C162.09 278.107 161.19 285.077 160.66 291.127C160.04 298.187 160.04 305.887 160.67 312.627C161.2 318.397 162.091 325.827 162.641 329.127C163.191 332.427 164.11 337.377 164.67 340.127C165.24 342.877 166.42 347.827 167.29 351.127C168.75 356.667 168.74 357.547 167.16 362.627C166.22 365.647 163.72 371.727 161.62 376.127C159.51 380.527 155.07 388.177 151.76 393.127C148.45 398.077 141.61 407.077 136.57 413.127C131.53 419.177 126.21 425.478 124.75 427.138C123.28 428.798 119.62 433.068 116.601 436.638C113.572 440.207 110.862 443.355 110.57 443.627C110.28 443.897 108.48 446.147 106.58 448.627C104.68 451.107 102.661 453.598 102.101 454.178C101.551 454.748 97.8802 459.478 93.9502 464.678C90.0303 469.878 84.41 477.957 81.46 482.627C76.4901 490.527 76.1207 491.547 76.1807 497.127C76.2207 500.427 76.6005 508.297 77.0205 514.627C77.4505 520.957 78.4298 528.377 79.2198 531.127C79.9997 533.877 81.6905 537.707 82.9805 539.627C84.7105 542.217 85.4303 544.957 85.7403 550.127C86.0403 555.027 87.0099 558.927 88.9698 563.127C90.5098 566.427 93.4207 571.057 95.4307 573.417C98.3907 576.887 98.8398 577.947 97.7998 578.917C97.0898 579.587 94.8398 580.037 92.7998 579.917C89.7801 579.757 88.2497 578.817 84.5899 574.877C82.1199 572.217 78.6704 567.357 76.9405 564.077C75.2105 560.807 73.2303 555.427 72.5303 552.127C71.8303 548.827 70.6607 544.887 69.9307 543.377C68.6008 540.637 68.57 540.637 65.7002 542.377C64.1102 543.337 61.32 545.247 59.5 546.627C57.69 548.007 54.8207 550.298 53.1407 551.718C51.2507 553.328 48.8601 557.308 46.8301 562.218C45.0405 566.567 43.5806 570.686 43.5801 571.377C43.5901 572.067 43.81 572.627 44.0899 572.627C44.3699 572.627 45.9399 571.957 47.5899 571.127C49.2398 570.297 52.2799 568.047 54.3399 566.117C56.3996 564.178 58.7695 562.618 59.5899 562.627C60.4098 562.647 61.7698 563.068 62.5899 563.568C63.9098 564.367 63.89 564.987 62.3701 568.797C61.4202 571.177 59.4001 574.707 57.8701 576.627C56.3502 578.547 53.4705 581.707 51.4805 583.627C49.4906 585.547 46.1105 587.687 43.9805 588.358C41.8405 589.038 38.2899 589.587 36.0899 589.587C33.8898 589.587 30.2898 588.768 28.0899 587.768C25.89 586.768 23.4199 585.188 22.5899 584.258C21.2499 582.748 21.3105 582.338 23.1905 580.348C24.3505 579.128 25.5805 577.337 25.9405 576.377C26.5103 574.847 26.1696 574.727 23.3399 575.377C21.5497 575.787 17.3897 576.107 14.0899 576.077C9.84009 576.047 7.26021 575.457 5.24026 574.077C3.68027 573.007 1.71014 570.997 0.870147 569.627C-0.609644 567.197 -0.529923 567.027 3.71976 563.667C6.11976 561.767 11.1705 557.037 14.9405 553.167C18.7104 549.297 23.8199 543.427 26.2998 540.127C28.7798 536.827 32.1701 531.427 33.8301 528.127C35.4901 524.827 37.7201 519.427 38.7901 516.127C39.8501 512.827 41.1605 507.647 41.6905 504.627C42.2305 501.607 43.0599 495.527 43.5498 491.127C44.2898 484.327 45.3202 481.327 50.3701 471.127C53.6401 464.527 57.2402 457.107 58.3701 454.627C59.4902 452.147 61.8505 446.527 63.6104 442.127C65.3604 437.727 67.6801 431.427 68.75 428.127C69.8201 424.827 71.8007 417.857 73.1407 412.627C74.4806 407.397 75.5598 401.327 75.5498 399.127C75.5399 396.927 75.8806 394.798 76.3106 394.388C76.7406 393.988 77.6406 394.438 78.3106 395.388C79.3403 396.857 79.5404 396.357 79.6104 392.127C79.6604 389.377 80.2698 383.977 80.9698 380.127C81.6698 376.277 83.3307 371.107 87.0606 364.127L87.42 367.127C87.73 369.647 88.3003 368.677 90.9903 361.127C92.7603 356.177 95.3007 350.148 96.6407 347.728C97.9907 345.308 100.12 342.607 103.65 340.127L102.87 343.898C102.44 345.967 102.43 347.657 102.84 347.648C103.25 347.638 105.02 345.487 106.78 342.877C108.531 340.267 115.361 332.726 133.95 314.127L133.8 277.627C133.72 257.557 133.24 235.947 132.73 229.627C131.901 219.267 131.41 217.287 127.771 209.627C125.551 204.947 122.8 198.197 121.65 194.627C120.5 191.057 119.581 186.557 119.601 184.627C119.621 182.697 120.56 179.097 121.7 176.627C122.84 174.157 127.121 167.176 138.66 150.127L137.181 145.127C136.371 142.377 133.43 135.737 130.65 130.377C127.871 125.017 125.03 119.728 124.34 118.638C123.48 117.258 122.47 116.838 121.09 117.268C119.99 117.618 117.29 119.107 115.09 120.577C112.89 122.047 108.62 124.248 105.59 125.468C100.95 127.328 98.1791 127.667 75.5899 127.627L70.6006 122.877C66.1008 118.597 65.4401 118.277 63.9903 119.627C63.1003 120.447 61.4501 123.157 60.3301 125.627C59.2102 128.097 58.1005 131.927 57.8604 134.127C57.5804 136.707 58.3201 140.957 59.96 146.127C61.3495 150.526 62.2994 154.345 62.0703 154.627C61.8303 154.907 59.4105 152.877 56.6905 150.127C53.5805 146.987 50.3207 142.147 47.9307 137.127C44.3408 129.597 44.0902 129.308 42.9903 135.127L41.3907 132.127C40.5107 130.477 39.2401 125.527 38.5801 121.127C37.6802 115.087 37.6505 110.317 38.4805 101.627C39.0905 95.3072 39.5899 89.1171 39.5899 87.8771C39.5899 85.7475 39.4597 85.7072 37.0899 87.1271C35.7199 87.947 34.5899 88.4071 34.5899 88.1271C34.5905 87.8461 35.2502 86.3864 36.0498 84.8771C36.8598 83.367 38.1698 80.097 38.9698 77.6271C39.7698 75.1569 41.3999 68.4069 42.5899 62.6271C43.7799 56.8472 45.4406 50.097 46.2705 47.6271C47.1106 45.157 49.1802 40.4269 50.8701 37.1271C52.5702 33.8271 55.7501 28.657 57.96 25.6271C60.16 22.5971 64.0106 18.1474 66.5205 15.7374C69.0405 13.3175 73.1199 9.96697 75.5899 8.29701C78.0598 6.62707 81.6598 4.5973 83.5899 3.78724C85.5198 2.97728 89.5599 1.72773 92.5899 1.01771ZM32.7803 555.638C31.7903 555.638 29.4501 557.118 27.5801 558.938C25.7102 560.748 24.2699 562.548 24.3799 562.938C24.5 563.318 25.4901 563.638 26.5899 563.638C27.6898 563.638 29.7302 563.078 31.1201 562.388C32.5096 561.698 33.639 560.908 33.6299 560.638C33.6199 560.368 33.8406 559.128 34.1006 557.888C34.4706 556.208 34.1302 555.638 32.7803 555.638ZM198.59 533.728C197.77 533.788 195.72 534.318 194.05 534.898C192.38 535.488 190.301 537.127 189.431 538.547C188.561 539.977 187.52 542.258 187.13 543.638C186.57 545.597 186.97 545.327 189 542.388C190.42 540.328 191.929 538.648 192.34 538.657C192.75 538.667 194.66 537.528 196.59 536.138C198.52 534.748 199.41 533.658 198.59 533.728ZM215.79 493.207C215.24 492.908 212.56 496.148 209.83 500.398C207.1 504.658 203.23 511.178 201.23 514.888C199.231 518.597 198.041 521.637 198.59 521.638C199.14 521.638 202.97 519.388 207.09 516.638C211.219 513.888 215.039 510.738 215.59 509.638C216.14 508.538 216.64 504.517 216.69 500.697C216.75 496.877 216.34 493.507 215.79 493.207ZM348.59 510.718C348.318 510.719 345.299 511.988 341.9 513.547C337.07 515.747 335.58 516.958 335.15 519.008C334.784 520.754 335.014 521.631 335.84 521.638C336.53 521.638 339.79 519.178 343.09 516.178C346.39 513.188 348.86 510.728 348.59 510.718ZM354.99 430.138C353.291 429.718 351.842 429.548 351.771 429.747V429.758C351.7 429.96 350.95 431.818 350.11 433.877L348.59 437.627C353.24 435.307 354.821 434.737 355.101 434.877C355.38 435.017 354.76 436.247 353.71 437.627C352.67 438.997 350.12 443.497 348.05 447.627C345.99 451.747 343.23 458.727 341.92 463.127C340.61 467.527 338.651 476.187 337.561 482.377C336.481 488.567 335.59 494.746 335.59 496.127V498.627C340.63 495.747 345.47 494.368 349.59 493.718C353.72 493.068 359.45 491.427 362.34 490.077C365.23 488.727 368.26 486.617 369.09 485.377C369.91 484.137 371.211 480.427 371.98 477.127C372.75 473.827 373.91 466.627 374.57 461.127C375.22 455.627 375.61 446.857 375.42 441.627L375.09 432.127C361.91 431.167 356.7 430.558 354.99 430.138ZM222.44 301.928C222.09 301.698 221.76 309.748 221.71 319.818C221.64 336.507 221.8 338.307 223.53 340.127C224.58 341.227 227.27 345.837 229.51 350.377C231.749 354.916 233.589 359.306 233.59 360.127C233.59 360.947 233.82 361.627 234.09 361.627C234.36 361.627 237.46 358.817 240.96 355.377L247.32 349.127C249.13 331.307 249.88 324.107 250.15 321.627L250.641 317.127C240.911 312.587 234.71 309.258 230.59 306.808C226.461 304.349 222.803 302.149 222.44 301.928ZM354.09 307.858C346.39 307.858 339.19 308.047 338.09 308.277C336.99 308.517 335.08 308.917 333.84 309.167C331.82 309.577 331.65 310.068 332.12 313.877C332.42 316.217 333.36 321.057 334.21 324.627C335.06 328.197 337.301 335.287 339.181 340.377C341.05 345.466 342.929 349.645 343.34 349.667C343.75 349.687 345.1 347.437 346.34 344.667C347.58 341.897 351.61 336.137 355.29 331.877C358.98 327.617 362.29 323.897 362.66 323.627C363.031 323.356 365.701 319.977 368.61 316.127L373.891 309.127C369.401 308.147 361.79 307.868 354.09 307.858Z"
        fill="currentColor" />
</svg>