<svg width="276" height="692" viewBox="0 0 276 692" fill="currentColor"
    xmlns="http://www.w3.org/2000/svg">
    <path
        d="M144.93 4.26001C148.25 1.04001 150.53 -0.519756 150.8 0.250244C151.049 0.941394 150.32 5.55104 149.19 10.5002C148.06 15.4503 146.38 23.7804 145.45 29.0002C144.52 34.2301 143.59 39.0603 143.38 39.7502C143.17 40.44 143.34 41.0002 143.75 41.0002C144.16 41.0002 145.48 38.41 146.68 35.2502C147.88 32.0903 149.9 26.4299 151.18 22.6799C152.87 17.6999 153.68 16.3599 154.18 17.6799C154.55 18.68 154.89 30.6403 154.93 44.2502C154.97 57.86 155.34 69.0002 155.75 69.0002C156.16 69.0002 157.85 66.64 162.5 58.5002L162.78 62.0002C162.94 63.9305 162.1 68.2005 160.91 71.5002C159.73 74.8003 157.35 80.4304 155.63 84.0002C153.91 87.5801 152.24 90.7203 151.93 91.0002C151.61 91.2807 151.05 92.2906 150.68 93.2502C150.25 94.3499 150.47 94.99 151.25 94.97C151.94 94.96 154.07 93.7302 156 92.2502C159.5 89.5503 159.5 89.5499 157.74 92.0198C156.77 93.3898 155.56 95.4002 155.04 96.5002C154.53 97.6005 152.5 100.3 150.55 102.5C148.59 104.7 146.94 106.95 146.89 107.5C146.83 108.051 146.871 109.631 146.98 111C147.101 112.381 148.75 116.881 150.66 121C152.57 125.13 155.34 130.34 156.82 132.6C158.29 134.85 161.52 138.23 164 140.09C166.479 141.96 168.729 143.719 169 143.99C169.27 144.27 170.51 145.06 171.75 145.75C172.99 146.44 178.39 149.2 183.75 151.88C189.11 154.56 194.4 157.03 195.5 157.36C196.97 157.8 199.22 156.48 204 152.4C207.57 149.34 212.75 145.69 215.5 144.28C218.25 142.87 221.62 141.36 223 140.94C224.37 140.51 228.2 139.21 231.5 138.05C234.8 136.89 237.73 136.16 238 136.44C238.27 136.71 236.93 139.29 235 142.17C233.07 145.04 231.03 147.869 230.46 148.449C229.89 149.029 228.76 150.45 227.96 151.61C227.16 152.78 224.09 156.38 221.13 159.61C216.15 165.08 215.9 165.59 217.63 166.71C219.17 167.71 220.2 167.53 223.5 165.67C225.7 164.42 229.3 162.829 231.5 162.119C233.92 161.339 238.27 161.01 242.5 161.28C246.35 161.53 250.4 161.98 251.5 162.29C252.6 162.6 254.38 162.88 255.46 162.92C257.19 162.99 257.25 163.18 255.96 164.49C255.16 165.32 253.6 166.17 252.5 166.39C251.4 166.61 248.02 167.5 245 168.36C241.98 169.23 238.15 170.16 236.5 170.44C234.85 170.72 231.7 171.47 225.5 173.29L225.84 184.9C226.03 191.28 225.75 199.65 225.21 203.5C224.68 207.35 224.41 210.72 224.62 211C224.831 211.279 226.141 210.378 230.02 206.5L229.49 211C229.19 213.47 228.59 216.4 228.15 217.5C227.71 218.6 226.27 221.75 224.95 224.5C223.33 227.88 222.33 232.26 221.85 238C221.46 242.68 221.12 253.251 221.06 276.5L224.89 284C226.99 288.12 230.301 294.65 232.23 298.5C234.17 302.35 236.44 307.07 237.29 309C238.15 310.93 239.1 313.51 239.42 314.75C239.74 315.99 240.34 317 240.75 316.99C241.16 316.979 243.3 315.279 245.5 313.199C247.7 311.119 251.86 307.97 260 303L258.91 305.75C258.32 307.26 257.129 309.85 256.27 311.5C255.409 313.151 252.519 317.761 249.85 321.75C247.18 325.74 244.55 329 244 329C243.45 329 243 330.57 243 332.5C243 335.82 243.11 335.939 245.25 334.78C246.49 334.11 249.07 333.009 251 332.329C252.93 331.649 254.61 331.19 254.76 331.3C254.9 331.41 253.75 333.3 252.2 335.5C250.66 337.7 247.39 340.769 244.95 342.329C241.41 344.579 240.12 346.21 238.64 350.329C237.61 353.169 233.68 361.91 229.89 369.75C226.1 377.59 223.23 384.23 223.5 384.5C223.771 384.77 225.791 383.99 227.98 382.75C230.17 381.51 232.2 380.84 232.48 381.25C232.77 381.661 232.249 382.791 231.34 383.75C230.43 384.71 228.97 386.57 228.09 387.88C227.22 389.19 224.59 391.33 222.25 392.63C218.46 394.75 217.77 395.73 215.81 401.75C214.18 406.79 213.48 412.051 213.05 422.5C212.62 433.03 212.02 437.49 210.64 440.5C209.63 442.7 207.96 446.07 206.93 448C205.91 449.93 205.05 452.74 205.03 454.25C205.01 456.19 204.19 457.46 202.25 458.56C200.6 459.5 199.04 461.59 198.34 463.81C197.28 467.19 197.41 467.84 199.93 471.5C201.44 473.7 204.4 478.43 206.5 482C208.6 485.57 211.74 490.3 213.47 492.5C215.21 494.7 218.41 499.19 220.57 502.48C222.73 505.78 225.51 510.61 226.75 513.23C227.99 515.86 229 518.67 229 519.5C229 520.33 229.34 521.11 229.76 521.25C230.18 521.39 231.33 525.1 232.32 529.5C233.3 533.9 234.74 542.45 235.5 548.5C236.36 555.26 236.97 570.871 237.09 589C237.2 605.48 237.73 619.82 238.29 621.5C238.84 623.15 240.2 626.3 241.31 628.5C242.42 630.7 244.69 634.3 246.35 636.5C248.02 638.7 251.21 642.2 253.44 644.27C255.67 646.35 258.29 648.26 259.25 648.52C260.21 648.78 262.31 651.81 263.91 655.25C265.51 658.69 267.83 663.75 269.06 666.5C270.3 669.25 272.34 674.42 273.61 678C275.87 684.38 275.87 684.51 273.95 685.25C272.8 685.69 270.27 685.33 267.75 684.36C265.41 683.46 261.02 682.68 252.5 682.51L252.7 685.5C252.81 687.15 252.36 689.079 251.7 689.789C251.04 690.509 248.7 691.05 246.5 691.01C244.3 690.97 241.73 690.39 240.79 689.72C239.85 689.05 239.06 687.26 239.04 685.75C239 683.16 238.7 682.98 233.75 682.6C230.86 682.38 226.7 681.78 224.5 681.27C222.3 680.76 218.93 679.55 217 678.59C214.17 677.18 212.92 677.05 210.5 677.94C208.85 678.54 205.59 679.03 199 679L199.54 674.25C199.84 671.641 199.72 669.051 199.29 668.5C198.86 667.95 196.59 666.04 194.25 664.25C191.91 662.46 188.99 661.019 187.75 661.039C186.51 661.069 184.82 660.32 184 659.39C182.79 658.02 182.44 653.53 182.17 636.09C181.87 616.271 182.01 614.13 183.84 610C185.1 607.17 185.92 602.9 186.06 598.5C186.18 594.65 185.94 587.9 185.54 583.5C185.13 579.1 183.43 570.1 181.76 563.5C180.08 556.901 177.94 549.701 177 547.5C176.07 545.3 174.37 540.8 173.24 537.5C172.1 534.2 170.19 528.35 168.99 524.5C166.89 517.79 166.83 516.47 167.51 493C167.9 479.521 168.22 466.251 168.23 463.5C168.24 460.43 166.89 454.46 164.74 448C162.82 442.231 160.7 435.251 160.03 432.5C159.36 429.75 158.44 426.601 157.97 425.5C157.51 424.4 156.16 420.57 154.98 417C153.791 413.43 151.62 407.8 150.16 404.5C148.7 401.2 145.34 394.23 142.71 389C139.56 382.76 137.57 377.27 136.9 373C136.34 369.43 135.47 363.8 134.97 360.5C134.46 357.2 133.7 352.26 133.27 349.53C132.53 344.73 132.34 344.5 127.75 342.78C125.14 341.8 123 341.34 122.99 341.75C122.979 342.164 121.829 347.903 120.43 354.5C119.02 361.1 116.99 370.55 115.91 375.5C114.83 380.45 113.52 387.43 113.01 391C112.5 394.57 111.55 400.43 110.9 404C110.25 407.571 109.53 422.651 109.3 437.5C108.96 458.92 109.21 466.67 110.48 475C111.36 480.77 112.5 489.33 113.01 494C113.52 498.67 114.62 508.8 115.44 516.5C116.27 524.2 116.96 533.2 116.99 536.5C117.01 539.8 116.63 542.95 116.14 543.5C115.649 544.052 114.03 547.881 112.54 552C111.05 556.12 108.96 563.33 107.89 568C106.82 572.67 105.44 581.45 104.81 587.5C103.69 598.36 103.71 598.61 106.55 607.5C109.11 615.5 109.44 617.97 109.47 629.67C109.48 636.91 109.27 643.1 109 643.42C108.729 643.74 106.81 644.46 104.75 645C102.251 645.667 100.834 645.667 100.5 645C100.19 644.38 99.1599 644.509 97.75 645.369C96.51 646.119 93.7 647.77 91.5 649.03C89.3 650.29 86.37 651.88 85 652.55C83.62 653.23 80.9299 654.479 79 655.329C77.07 656.179 73.48 657.419 71 658.079C68.5202 658.749 65.6002 660.319 64.5 661.579C63.4 662.829 60.48 664.559 58 665.409C55.52 666.269 52.49 666.98 51.25 666.99C49.4001 667 49.0401 666.51 49.25 664.25C49.4 662.58 49.01 661.5 48.25 661.5C47.56 661.5 43.2102 661.61 38.5703 661.75C33.5303 661.9 29.6103 662.5 28.8203 663.25C28.0903 663.94 25.9299 665.06 24 665.74C22.07 666.42 18.81 666.98 13 667L14.25 663.96C15.2999 661.4 15.2598 660.76 14 659.92C13.17 659.37 9.71 659.17 6.25 659.46C2.81196 659.76 0.00316776 659.77 0 659.5C0 659.23 0.79 657.64 1.75 655.99C2.70997 654.33 3.84001 652.98 4.25 652.99C4.65989 652.99 4.99981 652.55 5 652C5 651.45 6.3501 648.98 8 646.5C9.64941 644.021 11.0093 641.661 11.0303 641.25C11.0403 640.84 11.8303 639.7 12.7803 638.72C13.7203 637.74 15.18 636.95 16 636.96C16.82 636.98 19.53 636.01 22 634.82C24.4699 633.62 27.85 630.91 29.5 628.8C31.1499 626.68 32.9699 624.4 33.54 623.72C34.11 623.05 36.4701 619.24 38.79 615.25C41.1087 611.262 42.9979 607.774 43 607.5C43 607.23 44.0499 604.64 45.3398 601.75C46.6298 598.86 48.4002 594.48 49.2803 592C50.1603 589.52 51.8004 583.11 52.9404 577.75C54.0703 572.391 54.9903 566.541 54.9805 564.75C54.9705 562.96 55.3799 560.15 55.8799 558.5C56.3899 556.85 57.3202 548.98 57.9502 541C58.5902 533.021 59.6303 523.581 60.2803 520C60.9202 516.42 62.3703 511.7 63.4902 509.5C64.6202 507.3 69.0401 499.65 73.3301 492.5C77.6094 485.351 81.6486 478.602 82.3096 477.5C82.9595 476.4 83.95 475.18 84.5 474.79C85.05 474.39 85.5 471.3 85.5 461.75L78.5 462.25C74.65 462.52 70.94 462.569 70.25 462.369C69.5602 462.169 69.0003 461.55 69 461C69 460.45 68.25 459.21 67.3301 458.25C66.1501 457.01 65.5601 456.87 65.3301 457.75C65.1499 458.44 64.5499 459 64 459C63.45 459 62.6896 457.09 62.3096 454.75C61.7796 451.54 60.4399 449.28 56.79 445.5C53.8003 442.411 51.8006 439.35 51.5303 437.5C51.3003 435.85 50.8596 430.9 50.5596 426.5C50.2496 422.1 49.0603 415.12 47.9004 411C46.7505 406.871 45.5106 402.371 45.1504 401C44.7904 399.62 44.05 397.82 43.5 396.99C42.9498 396.169 40.9298 394.31 39 392.88C37.0701 391.44 34.4901 388.41 33.25 386.13C31.75 383.377 31.4167 382.01 32.25 382.03C32.94 382.04 34.96 383.17 36.75 384.53C38.5399 385.889 40.2 386.89 40.4502 386.75C40.7002 386.61 40.3601 384.87 39.7002 382.88C39.0402 380.89 37.2203 377.96 35.6504 376.38C34.0805 374.8 31.9405 371.81 30.9004 369.75C29.8504 367.69 28.1 364.2 27 362C25.9 359.8 25.11 357.79 25.25 357.53C25.3908 357.27 27.2613 358.511 33.3398 363.5L32.7305 360.5C32.4005 358.85 31.8099 356.15 31.4199 354.5C31.0199 352.78 28.3402 349.16 25.1104 346C22.0205 342.98 18.8201 339.27 18 337.76C17.1701 336.25 16.8402 334.79 17.25 334.51C17.66 334.23 19.35 334.68 21 335.5C22.65 336.32 24.9 337.9 26 339C27.0994 340.1 28.2291 340.889 28.5098 340.75C28.7897 340.61 28.58 338.48 28.04 336C27.5001 333.52 25.7899 329.48 24.25 327C22.7101 324.52 20.4101 319.35 19.1201 315.5C17.8401 311.65 16.9504 307.689 17.1504 306.699C17.3405 305.71 17.9403 304.809 18.4902 304.699C19.0308 304.591 21.5007 307.82 23.9902 311.869C26.4702 315.929 28.5704 318.849 28.6504 318.369C28.7308 317.888 29.5606 315.019 30.4902 312C31.4102 308.98 33.4999 303.8 35.1299 300.5C36.7599 297.2 40.1204 291.12 42.6104 287C45.9103 281.54 47.6297 277.19 48.9697 271C49.9897 266.32 51.3101 259.24 51.9102 255.25C52.5101 251.261 52.9896 246.991 52.9697 245.75C52.9597 244.51 51.6495 240.8 50.0596 237.5C48.4696 234.2 46.91 229.03 46 220.5L49.5098 226C51.4397 229.03 53.0098 231.84 53.0098 232.25C53.0001 232.66 53.4502 233 54 233C54.56 233 55.02 230.22 55.04 226.75C55.08 222.24 54.6397 220.08 53.4697 219C52.5798 218.18 50.9403 215.7 49.8203 213.5C48.7104 211.3 47.1903 207.7 46.4502 205.5C45.7103 203.3 44.8904 200.15 44.6104 198.5C44.1104 195.54 44.1698 195.56 48.5498 200.25C50.9998 202.86 53.23 205 53.5 205C53.77 205 54.0095 201.06 54.0195 196.25C54.0395 191.44 54.4505 185.7 54.9404 183.5C55.7704 179.84 55.5097 178.96 51.8799 173C49.7001 169.431 47.6905 165.371 47.4102 164C47.1402 162.62 46.4897 159.93 45.9697 158C45.4597 156.07 45.0599 150.68 45.0898 146C45.1198 141.321 45.4797 136.601 45.8896 135.5C46.4796 133.9 47.02 134.71 48.54 139.5C49.59 142.8 50.9298 145.95 51.5098 146.5C52.0898 147.05 53.6598 149.07 55.0098 151C56.3496 152.93 58.1297 155.24 58.9697 156.15C59.8097 157.05 61.0201 158.85 61.6602 160.15C62.3002 161.44 63.1302 163.4 64.2002 166.5L64.9902 164.5C65.4202 163.4 66.1095 159.8 66.5195 156.5C66.9295 153.2 68.6699 147.47 70.3799 143.76C72.1899 139.85 74.13 137.01 75 137C76.29 136.99 76.4 138.65 75.75 149C75.26 156.83 75.35 161 76 161C76.55 161 77.9 160.55 79 160C80.1 159.45 82.01 158.48 83.25 157.84C84.49 157.2 86.85 155.92 88.5 155C90.15 154.08 93.3 152.21 95.5 150.84C97.6999 149.47 100.55 147.03 101.83 145.42C103.1 143.82 105.03 140.47 106.11 138C107.19 135.53 108.5 130.91 110 122L106.12 117.25C103.99 114.64 100.7 110.25 98.8203 107.5C96.9304 104.75 94.3702 99.8002 93.1201 96.5002C91.8603 93.2006 90.4301 89.7107 89.9199 88.7502C89.4101 87.7906 89.0003 86.6606 89 86.2502C89 85.8402 90.46 87.6298 92.25 90.2297C94.0398 92.8294 95.7297 94.7594 96 94.51C96.27 94.26 95.9395 91.4595 95.2695 88.2795C94.5896 85.0996 94.0399 79.8002 94.0498 76.5002C94.0598 73.2003 94.9398 66.2202 96.0098 61.0002C97.0695 55.7816 98.3694 51.0522 98.8896 50.5002C99.4996 49.8602 100.07 51.6702 100.48 55.5002C100.83 58.8001 101.38 62.4003 101.69 63.5002C102.1 64.8993 102.78 63.5493 103.96 59.0002C104.89 55.4203 108.29 47.3302 111.52 41.0002C114.76 34.6702 117.87 28.9894 118.45 28.3694C119.03 27.7492 120.18 26.2493 121 25.0295C121.82 23.8095 123.5 21.3898 126.96 16.5002L126.73 19.8499C126.6 21.6898 126.16 23.3799 125.75 23.5999C125.34 23.8199 125.23 24.6703 125.5 25.5002C125.9 26.7098 126.26 26.75 127.33 25.7502C128.06 25.0603 129.25 23.3702 129.99 22.0002C130.72 20.6203 133.16 17.25 135.41 14.51C137.66 11.7701 141.94 7.15003 144.93 4.26001ZM88.25 451.03C87.84 451.05 86.49 451.95 85.25 453.03C84.01 454.11 83 455.45 83 456C83.0003 456.55 83.8101 457 84.7998 457C85.7898 457 87.1503 456.44 87.8203 455.75C88.4902 455.06 89.0294 453.71 89.0195 452.75C89.0095 451.79 88.66 451.01 88.25 451.03ZM81.1201 236C80.6401 236 79.55 237.69 78.71 239.75C77.8599 241.81 76.42 245.52 75.5 248C74.57 250.48 72.7995 255.65 71.5596 259.5C70.3196 263.35 68.8204 268.3 68.2305 270.5C67.6405 272.7 66.6701 276.41 66.0801 278.75C65.2102 282.16 65.3196 283.94 66.5996 287.75C67.4896 290.36 69.0902 295.88 70.1602 300C71.2301 304.13 72.5604 309.75 73.1104 312.5C73.8903 316.36 73.7502 319.09 72.5303 324.5C71.6503 328.35 70.06 335.32 69 340C67.93 344.68 66.2896 351.88 65.3496 356C64.3496 360.44 63.47 369.631 63.21 378.5L62.7598 393.5C68.4097 405.13 70.7704 409.85 71.6504 411.5C72.9102 413.88 73.0603 415.631 72.3604 420C71.7904 423.56 71.8701 427.44 72.5801 431C73.1901 434.02 74.2099 437.51 74.8398 438.75C75.4798 439.99 76.34 441.01 76.75 441.01C77.16 441.02 79.5201 438.99 82 436.5C84.47 434.01 86.84 431.98 87.25 431.99C87.66 431.99 88 432.9 88 434C87.9998 435.101 86.8699 438.251 85.5 441C84.1205 443.749 83.1108 446.238 83.25 446.53C83.39 446.82 84.7503 446.48 86.2803 445.78C87.9499 445.01 89.0699 443.7 89.0801 442.5C89.0901 441.4 89.0703 434.43 89.0303 427C88.9803 419.01 88.3101 410.23 87.3701 405.5C86.5001 401.1 85.4105 393.9 84.9404 389.5C84.4804 385.1 83.5897 377.68 82.9697 373C82.3497 368.32 82.1002 361.57 82.4102 358C82.7301 354.43 83.6796 348.35 84.5195 344.5C85.3695 340.65 86.5298 335.25 87.0898 332.5C87.6598 329.75 88.3195 326.04 88.5596 324.25C88.7996 322.46 89.45 320.77 90 320.5C90.55 320.23 90.9904 318.76 90.9805 317.25C90.9705 315.74 91.3799 313.15 91.8799 311.5C92.3899 309.85 93.5001 304.23 94.3701 299C95.2301 293.771 96.1103 287.931 96.3203 286C96.5303 284.07 96.3699 278.9 95.96 274.5C95.44 268.96 94.3001 264.5 92.2402 260C90.6003 256.43 88.2801 251.25 87.0801 248.5C85.8702 245.75 84.5102 242.601 84.04 241.5C83.5701 240.4 82.9199 238.71 82.5898 237.75C82.2699 236.79 81.6001 236 81.1201 236ZM185.45 418.5C183.97 416.63 183.91 416.86 184.5 422C184.85 425.02 186 430.65 187.07 434.5C188.13 438.35 189 442.51 189 443.75C189 444.99 189.45 446 190 446C190.55 446 191 444.09 191.01 441.75C191.01 439.41 190.5 434.8 189.87 431.5C189.24 428.2 188.32 425.051 187.84 424.5C187.36 423.95 186.98 422.82 187 422C187.02 421.18 186.32 419.6 185.45 418.5ZM185.34 223C184.71 223 183.59 224.46 182.85 226.25C182.12 228.04 180.44 231.07 179.14 233C177.83 234.93 175.35 239.2 173.63 242.5C171.91 245.8 170.251 248.73 169.94 249C169.63 249.27 167.96 252.43 166.24 256C164.51 259.57 162.55 265.2 161.88 268.5C161.22 271.801 160.66 281.251 160.64 289.5C160.62 297.75 161.13 307.43 161.77 311C162.41 314.57 163.67 322 164.56 327.5C165.45 333 166.59 340.2 167.08 343.5C167.58 346.8 168.92 353.77 170.05 359C171.18 364.23 172.48 370.52 172.95 373C173.41 375.48 174.52 381.66 175.4 386.75C176.28 391.84 177.51 397.01 178.14 398.25C178.76 399.49 179.43 400.61 179.64 400.75C179.84 400.89 182.93 398.41 186.52 395.25C190.109 392.091 193.289 388.821 193.6 388C193.9 387.18 194.81 382.23 195.62 377C196.67 370.21 197.03 360.65 196.86 343.5L196.63 319.5C201.78 300.902 203.47 294.371 203.7 293C203.94 291.62 203.62 288.48 202.99 286C202.35 283.52 201.46 279.48 201 277C200.54 274.52 199.65 270.7 199.01 268.5C198.37 266.3 197.48 262.7 197.04 260.5C196.59 258.3 195.25 253.35 194.05 249.5C192.85 245.65 191.27 240.7 190.55 238.5C189.82 236.3 188.62 231.91 187.86 228.75C187.11 225.59 185.98 223 185.34 223Z"
        fill="currentColor" />
</svg>