<svg width="343" height="476" viewBox="0 0 343 476" fill="currentColor"
    xmlns="http://www.w3.org/2000/svg">
    <path
        d="M124.5 0.900146C127.25 0.470151 136.7 0.279766 145.5 0.499756C154.3 0.709752 164.88 1.57016 169 2.40015C173.13 3.23012 179.88 5.06977 184 6.49976C188.13 7.91976 193.75 10.3206 196.5 11.8406C199.25 13.3606 202.5 15.2505 203.72 16.0505C205.8 17.4002 206.211 17.2501 209.72 13.8503C211.8 11.8405 215.3 9.25066 217.5 8.09058C219.7 6.94062 223.3 6.0101 225.5 6.03003C228.84 6.06003 230.12 6.72017 233.25 10.03C235.31 12.2099 237.28 15.4597 237.62 17.2498C237.96 19.0396 237.96 21.7397 237.62 23.2498C237.28 24.7597 235.54 27.4798 233.75 29.2898C231.96 31.0998 229.15 33.5305 224.5 36.7605L227.5 42.3904C229.62 46.36 230.94 47.8398 232 47.4402C232.82 47.1202 234.63 46.6103 236 46.3103C237.38 46.0103 240.19 46.0397 242.25 46.3796C245.06 46.8396 246.5 47.82 248 50.2498C249.17 52.1497 249.99 55.2598 250 57.7498C250 60.0895 249.52 63.2396 248.93 64.7498C248.35 66.2598 246.88 68.5205 245.68 69.7605C244.48 71.0005 242.26 72.2405 240.75 72.5105C239.24 72.7805 237.72 73.5599 237.37 74.2498C237.02 74.9397 237.02 78.09 238 86.9998H243C245.75 86.9998 249.14 87.5598 250.52 88.2498C251.91 88.9397 253.49 90.8499 254.03 92.4998C254.67 94.4696 254.66 96.7099 254.01 98.9998C253.471 100.93 252.12 103.96 251.01 105.75C249.631 107.97 247.69 109.39 240.72 111.5L241.33 119C241.67 123.12 243.31 132.12 244.99 139C246.67 145.87 249.12 154.2 250.43 157.5C251.74 160.8 256.391 170.93 260.76 180C265.13 189.07 270.74 200.1 273.22 204.5C275.7 208.9 280.15 216.65 283.11 221.73C286.08 226.81 291.3 235.58 294.73 241.23C298.15 246.88 302.97 254.65 305.43 258.5C307.89 262.35 311.28 267.86 312.95 270.75C315.63 275.37 316.39 276 319.25 276.02C321.04 276.03 324.93 277.27 327.9 278.77C331.97 280.83 334.13 282.79 336.65 286.75C338.49 289.64 340.69 294.59 341.54 297.75C342.62 301.79 342.87 305.29 342.38 309.5C341.77 314.64 341.16 315.98 334.5 322.25L335.73 328.37C336.4 331.74 337.23 338.55 337.56 343.5C337.89 348.45 338.85 355.43 339.69 359C340.704 363.333 341.073 368.667 340.8 375C340.57 380.229 339.81 385.619 339.11 387C338.1 388.98 337.59 389.24 336.67 388.23C336.03 387.54 335.16 386.97 334.75 386.98C334.34 386.991 333.79 388.91 333.53 391.25C333.27 393.589 332.36 396.179 331.51 397C330.13 398.34 329.75 398.28 327.98 396.5C326.89 395.4 324.99 390.97 323.75 386.66C322.16 381.13 321.3 379.37 320.82 380.66C320.44 381.67 319.89 384.07 319.58 386C319.28 387.93 318.38 390.4 317.59 391.5C316.41 393.12 315.89 393.26 314.82 392.23C314.09 391.54 313.27 390.98 313 390.99C312.73 391.011 312.67 392.251 312.88 393.76C313.09 395.271 312.75 397.96 311 403L316.25 403.01C319.14 403.02 322.51 403.251 323.75 403.51C324.989 403.78 325.999 404.45 326 405C326 405.55 324.54 406.88 322.75 407.96C320.96 409.04 316.13 410.8 312 411.88C307.88 412.95 301.57 414.52 298 415.35C294.43 416.18 288.13 418.3 284 420.07C278.71 422.33 275.69 423.09 273.75 422.64C272.07 422.25 270.42 420.84 269.5 419C268.68 417.35 268 414.88 268 413.5C268 411.9 269.7 409.179 277.5 400.86L261.5 401.5L261.82 408.5C261.99 412.35 262.8 419.77 263.62 425C264.43 430.23 265.48 437.65 265.95 441.5C266.41 445.35 266.48 450.52 266.1 453C265.69 455.71 264.93 457.4 264.21 457.25C263.49 457.1 263.211 457.71 263.51 458.75C263.8 459.71 263.12 461.51 262.01 462.75C260.91 463.99 257.41 465.94 254.25 467.08C251.09 468.22 243.32 470.211 237 471.51C230.68 472.8 221.04 474.22 215.58 474.68C206.87 475.4 205.37 475.29 203.33 473.75C202.05 472.79 200.21 472.23 199.25 472.5C198.29 472.78 196.92 472.44 196.21 471.75C195.17 470.75 194.92 470.75 194.96 471.75C194.99 472.66 192.66 473 186.5 473C179.31 473 177.81 472.71 176.75 471.13C175.71 469.57 173.899 469.2 165.91 468.88C159.25 468.62 155.79 468.04 154.61 467C153.68 466.18 152.93 464.49 152.96 463.25C152.98 462.01 154.24 459.73 155.75 458.18C157.73 456.15 160.31 454.99 165 454.02C168.67 453.26 175.63 450.53 181 447.74C186.229 445.02 191.099 442.28 191.83 441.65C192.56 441.02 192.92 439.6 192.61 438.5C192.31 437.399 188.9 431.659 185.03 425.75C181.16 419.84 177.21 414.6 176.25 414.12C175.288 413.63 163.956 413.07 127.67 412.5L125.73 417C124.67 419.48 121.59 426.11 118.9 431.75C114.82 440.29 113.46 442.24 110.75 443.41C108.96 444.19 101.88 445.78 94.9998 446.95C88.1298 448.11 79.1297 449.47 74.9998 449.96C70.8797 450.45 62.0996 451.56 55.4998 452.42C48.8998 453.28 41.3597 453.99 38.7498 453.99C34.61 454 33.8697 453.68 32.9998 451.5C32.0499 449.13 31.5993 449 23.9998 449C16.53 449 15.8997 448.83 14.4998 446.5C13.2599 444.43 12.2295 444 8.49976 444C4.99996 444 3.77974 443.56 2.99976 442C2.44984 440.9 2.01003 439.21 2.03003 438.25C2.05043 437.29 3.74027 434.909 5.78003 432.96C8.47999 430.38 12.1 428.55 18.9998 426.25C24.2196 424.51 31.4297 422.4 34.9998 421.57C38.5697 420.74 44.65 418.77 55.4998 414.301L57.2605 408.4C58.6605 403.75 58.9399 399.97 58.6199 390.5C58.3599 382.79 57.2505 373.85 55.5105 365.5C54.0305 358.35 51.9997 349.8 50.9998 346.5C49.9998 343.2 48.6896 337.57 48.0896 334C47.4896 330.43 46.8898 325.59 46.7498 323.25C46.6097 320.91 46.2797 318.99 45.9998 318.99C45.7184 318.981 43.1671 321.342 35.1296 329.5L34.6404 340.5C34.3004 348.2 33.7598 351.72 32.8298 352.23C32.0999 352.64 31.2797 352.99 30.9998 353.02C30.7194 353.04 29.7896 352.26 28.9099 351.28C28.0399 350.3 26.6899 348.02 25.9099 346.21C25.1399 344.4 24.1597 342.94 23.7498 342.96C23.3395 342.981 22.0597 346.261 20.9099 350.25C19.76 354.239 18.4899 358.629 18.0798 360C17.6198 361.54 16.5997 362.5 15.4197 362.5C13.8199 362.5 13.3297 361.389 12.4998 355.79C11.9497 352.1 10.9502 348.5 10.2703 347.79C9.27042 346.74 8.95041 346.78 8.5105 348C8.21051 348.82 7.41997 351.72 6.73999 354.42C6.05999 357.13 4.93976 359.49 4.24976 359.67C3.55976 359.85 2.54972 359.1 1.99976 358C1.4498 356.899 0.799532 352.959 0.549561 349.25C0.309602 345.54 0.560126 339.57 1.11011 336C1.66013 332.43 2.76009 327.48 3.57007 325C4.37014 322.52 6.40014 316.45 8.07007 311.5C9.74017 306.55 14.5 295.98 18.6599 288C22.8099 280.02 28.3004 270.4 30.8503 266.61C33.4101 262.82 36.6296 258.071 37.9998 256.051C39.3797 254.031 43.6498 248.2 47.4998 243.091C51.3494 237.991 55.1792 232.781 55.9998 231.51C56.8198 230.25 59.8598 226.69 67.9998 218L62.9998 212C60.2498 208.7 56.4495 202.74 54.5496 198.75C52.6496 194.76 50.3998 188.8 49.5398 185.5C48.6798 182.2 47.4904 175.45 46.8904 170.5C46.3004 165.55 46.1102 158.57 46.4802 155C46.8503 151.429 48.4804 141.299 50.1003 132.5C51.8503 123.01 53.6302 108.36 54.4802 96.4998C55.2602 85.4998 56.8099 71.3297 57.9099 64.9998C59.0199 58.6698 60.8903 51.0297 62.0603 47.9998C63.2203 44.9698 64.6996 40.9197 65.3396 38.9998C66.0398 36.8697 70.0299 31.9195 75.4998 26.3796C81.5997 20.1997 87.0798 15.7599 92.4998 12.6199C96.8997 10.0699 104.78 6.57062 110 4.84058C115.22 3.11063 121.75 1.34022 124.5 0.900146ZM287.91 358.25C287.59 358.07 287.02 358.61 286.66 359.46C286.3 360.31 286.03 362.46 286.06 364.25C286.1 366.97 287 368.19 291.56 371.75C294.55 374.089 297.449 375.999 298 376C298.55 376 301.47 378.48 304.5 381.5C307.519 384.519 310.248 386.888 310.55 386.75C310.86 386.61 309.67 381.77 307.91 376C306.16 370.23 304.22 364.92 303.61 364.21C303 363.49 301.49 362.93 300.25 362.96C299.01 362.98 295.86 362.01 293.25 360.79C290.64 359.58 288.23 358.44 287.91 358.25Z"
        fill="currentColor" />
</svg>