<svg width="739" height="1083" viewBox="0 0 739 1083" fill="currentColor"
    xmlns="http://www.w3.org/2000/svg">
    <path
        d="M283 1.03955C286.019 0.55957 291.65 0.389947 295.5 0.649902C299.349 0.909892 304.979 1.86028 308 2.76025C311.019 3.66023 315.749 5.59031 318.5 7.05029C321.249 8.50021 325.299 10.6999 327.5 11.9399C329.7 13.1699 333.24 15.8303 335.36 17.8403C337.48 19.8504 342.07 25.3297 345.56 29.9995C349.05 34.6794 356.07 45.4696 361.16 53.9995C366.24 62.5294 373.09 73.5494 376.38 78.4995C379.66 83.4494 383.73 89.2994 385.43 91.4995C387.119 93.6984 388.738 95.7179 389.04 95.9995C389.34 96.2795 392.3 100.1 395.62 104.5C398.939 108.899 402.529 113.68 403.58 115.11C404.64 116.55 409.33 122.44 414 128.19C418.669 133.95 423.629 140.159 425 141.99C426.379 143.82 429.52 147.87 432 151C434.479 154.129 437.629 158.179 439 160C440.38 161.83 445.46 168.31 450.3 174.41C455.14 180.509 459.639 186.179 460.31 187C460.98 187.82 463.1 190.51 465.01 192.97C466.93 195.42 469.53 198.57 470.78 199.97C472.04 201.36 475.16 205.88 477.72 210C480.289 214.128 482.648 217.727 482.99 218C483.32 218.269 484.67 220.07 485.99 222C487.3 223.929 492.34 230.79 497.19 237.25C502.039 243.708 505.997 249.447 506 250C506 250.55 508.77 255.16 512.17 260.25C515.559 265.338 518.628 269.727 518.99 270C519.35 270.27 524.57 277.97 530.58 287.1C536.58 296.24 542.4 305.07 543.5 306.74C544.601 308.4 547.94 313.31 550.92 317.63C553.9 321.96 556.6 325.73 556.92 326C557.24 326.27 558.15 327.63 558.94 329C559.73 330.379 563.97 337.35 568.37 344.5C572.78 351.649 583.49 369.31 592.19 383.75C600.877 398.185 607.996 410.443 608 411C608 411.55 608.34 412 608.75 412.01C609.161 412.011 609.97 413.021 610.54 414.26C611.11 415.49 612.69 418.52 614.04 421C615.39 423.48 616.84 425.61 617.25 425.75C617.66 425.89 617.99 426.34 617.97 426.75C617.96 427.16 621.39 433.8 625.6 441.5C629.81 449.199 636.48 462.019 640.42 470C644.35 477.979 648.87 487.419 650.45 491C652.03 494.579 654.6 500.309 656.16 503.75C657.719 507.188 658.999 510.226 659 510.5C659 510.769 660.18 513.59 661.62 516.75C663.059 519.909 664.819 523.849 665.54 525.5C666.25 527.149 669.61 535.48 673.01 544C676.4 552.519 682.36 568.95 686.24 580.5C690.119 592.049 693.679 602.958 694.15 604.75C694.62 606.539 695.42 609.459 695.93 611.25C696.44 613.039 698.24 619.9 699.94 626.5C701.64 633.099 704.09 643.899 705.39 650.5C706.68 657.099 708.22 665.419 708.81 669C709.39 672.579 710.37 679.1 710.99 683.5C711.6 687.899 712.52 693.979 713.04 697C713.56 700.019 714.87 707 715.95 712.5C717.04 717.999 719.26 729.92 720.89 739C722.52 748.079 724.34 758.879 724.95 763C725.55 767.129 726.46 772.979 726.97 776C727.47 779.019 728.36 785.44 728.94 790.25C729.52 795.059 730.44 802.489 730.98 806.75C731.51 811.009 732.21 818.099 732.53 822.5C732.85 826.899 733.56 834.329 734.1 839C734.64 843.669 735.51 851.549 736.04 856.5C736.56 861.449 737.5 871.58 738.12 879C738.8 887.079 739 899.93 738.62 911C738.28 921.169 737.3 933.769 736.45 939C735.6 944.229 734.5 950.979 734.01 954C733.52 957.019 732.4 962.199 731.51 965.5C730.63 968.799 728.85 974.419 727.55 978C726.26 981.579 723.77 988.1 722.02 992.5C720.28 996.899 717.28 1003.88 715.36 1008C713.45 1012.13 709.32 1019.78 706.19 1025C702.76 1030.73 697.72 1037.28 693.5 1041.5C689.171 1045.83 684.31 1049.55 680.75 1051.25C677.591 1052.76 673.541 1053.99 671.75 1053.98C669.961 1053.98 667.831 1053.54 667 1053.02C665.86 1052.29 665.55 1050.33 665.71 1044.78C665.82 1040.78 666.59 1033.9 667.42 1029.5C668.25 1025.1 669.36 1019.7 669.89 1017.5C670.41 1015.3 671.75 1010.13 672.85 1006C673.95 1001.88 675.59 995.579 676.48 992C677.37 988.42 678.501 983.699 679 981.5C679.501 979.299 680.42 973.669 681.05 969C681.67 964.33 682.02 957.579 681.82 954C681.63 950.42 681.19 948.171 680.85 949C680.5 949.829 679.51 953.65 678.65 957.5C677.78 961.349 676.13 967.419 674.98 971C673.83 974.579 672.19 979.079 671.34 981C670.49 982.919 668.84 986.53 667.68 989C666.51 991.469 663.51 996.88 661 1001C658.491 1005.13 653.53 1012.33 649.98 1017C646.43 1021.67 641.49 1027.46 639.01 1029.85C636.53 1032.25 632.02 1035.89 629 1037.95C625.981 1040.01 622.381 1041.98 621 1042.33C619.551 1042.7 617.661 1042.41 616.5 1041.63C615.4 1040.9 613.89 1038.32 613.15 1035.9C612.18 1032.74 611.96 1028.12 612.37 1019.5C612.67 1012.9 613.38 1004.8 613.94 1001.5C614.5 998.199 615.64 988.189 616.48 979.25C617.32 970.31 618 957.709 618 951.25C618.001 944.789 618.441 933.419 619 926C619.55 918.579 620.49 906.649 621.09 899.5C621.89 890.03 621.89 883.789 621.08 876.5C620.47 871 619.51 863.579 618.94 860C618.37 856.42 617.43 851.479 616.85 849C616.28 846.519 614.84 842.07 613.65 839.1C612.39 835.93 610.36 832.94 608.75 831.85C606.581 830.39 605.42 830.21 603.25 830.98C601.741 831.52 599.54 832.99 598.38 834.23C597.21 835.48 596 837.629 595.69 839C595.37 840.379 593.73 846.67 592.03 853C590.33 859.329 588.26 867.879 587.43 872C586.6 876.129 584.54 885.35 582.85 892.5C581.17 899.649 578.75 908.879 577.47 913C576.19 917.129 574.42 922.299 573.53 924.5C572.64 926.699 571.38 929.629 570.73 931C570.09 932.379 567.2 937.1 559.09 949.5L560.48 968.5C561.25 978.949 562.36 994.699 562.95 1003.5C563.53 1012.3 564.46 1024.34 565.01 1030.25C565.67 1037.41 565.667 1041.66 565 1043C564.451 1044.1 564 1045.79 564.01 1046.75C564.01 1047.71 562.13 1050.75 559.82 1053.5C557.52 1056.25 552.46 1061.65 548.57 1065.51C544.68 1069.37 539.251 1073.78 536.5 1075.32C533.751 1076.87 528.8 1079 525.5 1080.08C522.131 1081.17 516.76 1082.02 513.25 1082.01C509.68 1082.01 504.75 1081.19 501.75 1080.11C498.859 1079.08 494.249 1077.66 491.5 1076.96C488.749 1076.27 481.999 1073.47 476.5 1070.74C470.999 1068 462.469 1063.01 457.54 1059.63C452.61 1056.26 445.92 1051.03 442.66 1048C439.41 1044.97 435.68 1040.36 434.37 1037.75C432.35 1033.7 432 1031.52 432 1023C432 1017.5 432.43 1009.96 432.96 1006.25C433.49 1002.54 434.44 991.399 435.08 981.5C435.94 968 435.95 957.629 435.1 940C434.47 927.08 433.51 907.269 432.95 896C432.39 884.73 431.48 871.669 430.94 867C430.39 862.329 429.49 854.669 428.93 850C428.38 845.33 427.51 838.799 427.01 835.5C426.5 832.199 425.13 823.879 423.96 817C422.79 810.13 421.14 801.129 420.3 797C419.45 792.88 418.41 787.919 417.98 786C417.55 784.079 416.74 780.249 416.18 777.5C415.62 774.749 413.81 767.329 412.15 761C410.49 754.67 408.41 746.799 407.52 743.5C406.63 740.199 404.08 732.099 401.85 725.5C399.62 718.9 396.61 711.019 395.15 708C393.62 704.82 391.759 702.39 390.75 702.25C389.789 702.11 387.61 703.24 385.92 704.75C384.22 706.259 380.77 710.65 378.25 714.5C375.73 718.349 371.01 726.67 367.76 733C364.52 739.329 360.26 749.229 358.31 755C356.36 760.769 353.27 771.35 351.45 778.5C349.62 785.649 347.01 795.769 345.63 801C344.26 806.229 342.49 812.979 341.7 816C340.91 819.019 339.76 824.309 339.13 827.75C338.51 831.189 337.57 836.589 337.04 839.75C336.52 842.909 335.82 848.42 335.48 852C335.15 855.579 334.45 863 333.92 868.5C333.4 873.999 332.31 887.27 331.5 898C330.69 908.729 330.03 923.799 330.02 931.5C330.02 939.199 330.48 950.669 331.05 957C331.78 965.089 331.759 971.76 331 979.5C330.4 985.549 329.45 994.329 328.88 999C328.31 1003.67 327.4 1009.08 326.86 1011C326.31 1012.92 325.34 1015.63 324.71 1017C324.08 1018.38 321.53 1021.44 319.03 1023.81C316.54 1026.19 310.899 1029.89 306.5 1032.05C302.1 1034.2 298.049 1035.97 297.5 1035.97C296.948 1035.97 293.799 1036.82 290.5 1037.85C287.199 1038.88 282.019 1040.23 279 1040.86C275.979 1041.49 270.129 1042.66 266 1043.47C261.879 1044.27 251.979 1045.62 244 1046.46C236.02 1047.31 224.999 1047.99 219.5 1047.99C213.999 1047.99 204.549 1047.36 198.5 1046.61C191.68 1045.76 185.789 1044.4 183 1043.05C180.52 1041.85 177.379 1039.25 176 1037.26C173.67 1033.89 173.5 1032.83 173.51 1021.57C173.51 1014.93 174.12 1007.03 174.85 1004C175.59 1000.97 177.06 996.029 178.12 993C179.18 989.97 180.47 986.599 180.98 985.5C181.5 984.399 183.57 979.899 185.58 975.5C187.6 971.1 190.33 965.029 191.65 962C192.98 958.98 193.93 956.47 193.78 956.43C193.629 956.39 191.929 955.309 190 954.04C188.069 952.769 182.679 947.83 178 943.06C173.32 938.3 166.99 930.59 163.93 925.95C160.87 921.3 156.14 913.75 153.43 909.16C148.98 901.64 148.38 901 147.23 902.66C146.54 903.669 145.97 905.059 145.98 905.75C145.99 906.439 144.93 909.36 143.63 912.25C142.32 915.139 139.73 918.99 137.88 920.82C136.02 922.64 133.26 924.67 131.75 925.32C130.05 926.05 129.001 927.27 129.01 928.5C129.01 929.599 129.45 934.33 129.99 939C130.53 943.669 132.05 953.35 133.37 960.5C134.7 967.649 136.28 976.419 136.88 980C137.48 983.579 138 990.1 138.02 994.5C138.06 1001.44 137.78 1002.76 135.91 1004.5C134.5 1005.81 131.97 1006.63 128.63 1006.87C125.49 1007.09 121.17 1006.52 117.5 1005.4C112.67 1003.92 110.33 1002.39 105.48 997.53C102.17 994.21 98.1302 989.919 96.5103 988C94.8902 986.079 91.0499 980.669 87.98 976C84.92 971.33 80.77 964.129 78.77 960C76.76 955.88 74.1504 950.019 72.9604 947C71.7704 943.979 69.7101 938.129 68.3901 934C67.0802 929.88 66.0003 926.049 66.0103 925.5C66.0098 924.949 65.1094 922.699 63.9897 920.5C62.8798 918.299 61.2704 913.349 60.4204 909.5C59.5604 905.65 58.5502 900.87 58.1802 898.87C57.8102 896.87 57.1898 894.84 56.8198 894.37C56.4398 893.891 55.8302 897.101 55.4702 901.5C55.1102 905.899 55.1198 916.92 55.4897 926C55.8597 935.079 56.7796 947.229 57.5396 953C58.2895 958.769 59.6501 968.219 60.5601 974C61.54 980.279 61.9896 987.109 61.6597 991C61.3597 994.579 60.64 998.959 60.0601 1000.75C59.0801 1003.74 58.6595 1004 54.7495 1004C52.2596 1003.99 49.1494 1003.17 47.2495 1002C45.4593 1000.9 41.9497 997.409 39.4399 994.25C36.94 991.09 34.1703 987.149 33.3003 985.5C32.4303 983.85 31.4498 982.279 31.1099 982C30.7697 981.719 29.8699 980.379 29.1001 979C28.3198 977.629 25.13 971.329 22.0103 965C18.8803 958.67 14.8598 949.669 13.0698 945C11.2699 940.33 9.43997 935.599 8.97998 934.5C8.51985 933.399 7.25001 928.669 6.14014 924C5.03015 919.33 3.66961 913.249 3.11963 910.5C2.55961 907.749 1.58037 900.329 0.92041 894C0.190442 886.95 -0.0401691 876.119 0.319824 866C0.64983 856.92 1.33987 845.899 1.85986 841.5C2.36989 837.1 3.57028 830.349 4.51025 826.5C5.45027 822.649 7.08995 816.579 8.1499 813C9.20992 809.419 11.0405 803.349 12.2104 799.5C13.3705 795.649 15.8696 787.769 17.7495 782C19.6295 776.23 22.3004 768.349 23.6704 764.5C25.0505 760.649 27.8803 752.999 29.9702 747.5C32.0502 742 34.3596 735.479 35.0796 733C35.8098 730.519 39.6403 721.749 43.6001 713.5C47.5601 705.25 52.25 695.349 54.02 691.5C55.8 687.65 58.2703 682.249 59.5103 679.5C60.7503 676.749 63.4401 670.899 65.48 666.5C67.5199 662.1 69.9998 656.479 70.9897 654C71.9698 651.519 73.9096 647.019 75.2896 644C76.6696 640.979 79.3896 634.669 81.3296 630C83.2696 625.33 85.9801 618.579 87.3501 615C88.7302 611.419 92.4097 601.979 95.5396 594C98.6695 586.02 103 574.769 105.17 569C107.33 563.229 110.84 553.329 112.95 547C115.07 540.67 117.94 532.579 119.33 529C120.73 525.419 123.52 517.999 125.53 512.5C127.54 507 129.77 501.149 130.49 499.5C131.21 497.849 133.64 492.109 135.9 486.75C138.15 481.39 140 476.77 140 476.5C140.001 476.226 141.401 472.957 143.12 469.25C144.83 465.539 147.92 458.669 149.99 454C152.06 449.32 154.76 443.249 155.99 440.5C157.22 437.749 159.35 433.019 160.72 430C162.1 426.98 164.03 422.479 165.01 420C166 417.519 168.42 412.009 170.4 407.75C172.38 403.49 174 399.77 174 399.5C174 399.228 174.831 397.088 175.85 394.75C176.87 392.409 178.74 388.019 180 385C181.259 381.98 182.86 378.149 183.54 376.5C184.23 374.849 186 370.349 187.47 366.5C188.94 362.65 191.02 357.249 192.09 354.5C193.17 351.75 194.05 349.049 194.05 348.5C194.052 347.946 197.471 340.517 201.65 332C205.82 323.48 211.22 311.999 213.65 306.5C216.08 301 218.46 295.599 218.93 294.5C219.41 293.399 220.48 290.929 221.32 289C222.15 287.069 223.6 283.479 224.53 281C225.47 278.519 227.42 273.799 228.86 270.5C230.31 267.199 236.71 254.149 243.1 241.5C249.49 228.85 257.4 213.319 260.7 207C263.99 200.68 268.78 192.239 271.34 188.25C273.9 184.259 278.12 177.059 280.7 172.25C283.29 167.44 286.44 160.129 287.7 156C289.05 151.59 290 145.919 290 142.25C289.999 137.9 289.329 134.559 287.79 131.25C286.569 128.639 282.409 123.32 278.54 119.44C274.67 115.56 269.479 110.78 267 108.83C264.52 106.87 260.12 102.85 257.21 99.8901C254.31 96.9201 250.41 91.5695 248.55 87.9995C246.7 84.4295 244.39 78.7994 243.42 75.4995C242.22 71.4095 241.66 65.9993 241.64 58.4995C241.62 49.0899 242.02 46.2694 244.43 38.9995C245.98 34.3296 248.38 28.2494 249.77 25.4995C251.17 22.7496 253.93 18.3504 255.9 15.7104C257.88 13.0806 261.069 9.92008 263 8.68994C264.929 7.47001 267.619 5.94966 269 5.32959C270.369 4.70965 272.85 3.68031 274.5 3.05029C276.149 2.42032 279.98 1.50957 283 1.03955ZM266.75 390C265.7 390 264.59 391.67 263.59 394.75C262.75 397.359 261.35 402.2 260.48 405.5C259.62 408.799 257.39 419.15 255.54 428.5C253.69 437.849 251.27 450.449 250.16 456.5C249.05 462.549 247.65 471.329 247.04 476C246.43 480.669 245.24 489.9 244.41 496.5C243.58 503.099 242.51 511.649 242.04 515.5C241.57 519.349 240.46 527.67 239.58 534C238.7 540.329 237.53 548.539 236.99 552.25C236.44 555.959 235.57 562.039 235.04 565.75C234.51 569.459 233.58 576.1 232.97 580.5C232.37 584.899 231.46 591.199 230.94 594.5C230.43 597.799 229.99 602.979 229.97 606C229.95 609.019 229.31 615.33 228.54 620C227.78 624.669 226.68 631.199 226.09 634.5C225.5 637.799 223.87 645 222.47 650.5C221.06 655.999 218.57 665.9 216.93 672.5C215.3 679.099 213.01 688.099 211.84 692.5C210.68 696.899 207.06 708.6 203.8 718.5C200.54 728.399 196.34 740.099 194.47 744.5C192.6 748.899 190.33 756.329 189.43 761C188.31 766.789 187.8 774.75 187.81 786C187.83 796.339 188.42 805.859 189.39 811.5C190.25 816.449 191.64 823.879 192.49 828C193.33 832.129 194.459 837.079 195 839C195.53 840.919 197.36 847.45 199.06 853.5C200.75 859.549 204.81 872.38 208.08 882C211.349 891.629 214.049 901.079 214.08 903C214.11 904.919 214.48 907.399 214.88 908.5C215.55 910.28 215.76 910.14 216.81 907.25C217.47 905.46 218.41 902.759 218.9 901.25C219.4 899.739 220.28 896.479 220.86 894C221.44 891.519 222.39 884.769 222.97 879C223.56 873.23 224.48 865.459 225.02 861.75C225.56 858.039 226.47 851.959 227.04 848.25C227.61 844.54 228.48 839.019 228.98 836C229.47 832.979 230.36 827.349 230.94 823.5C231.53 819.649 232.47 810.419 233.04 803C233.61 795.579 234.97 783.419 236.06 776C237.16 768.58 238.45 760.699 238.94 758.5C239.44 756.299 240.38 751.799 241.04 748.5C241.7 745.199 244.461 733.269 247.17 722C249.89 710.73 252.52 700.149 253.03 698.5C253.54 696.849 254.91 692.119 256.08 688C257.25 683.869 259.49 676.229 261.05 671C262.62 665.769 265.76 655.419 268.03 648C270.3 640.58 273.66 629.549 275.5 623.5C277.349 617.45 279.59 609.799 280.5 606.5C281.399 603.2 282.53 598.919 283.01 597C283.48 595.079 284.36 591.479 284.95 589C285.54 586.519 286.92 579.099 288.01 572.5C289.63 562.66 289.99 555.719 289.99 534C289.98 516.68 289.49 503.859 288.56 497C287.78 491.23 286.66 483.239 286.07 479.25C285.48 475.259 283.04 461.989 280.63 449.75C278.23 437.51 275.71 424.349 275.02 420.5C274.34 416.649 272.639 409.229 271.25 404C269.86 398.77 268.64 393.489 268.55 392.25C268.44 390.91 267.719 390 266.75 390ZM520.1 441.44C519.61 441.13 519.12 441.47 519.02 442.19C518.92 442.91 518.48 450.02 518.03 458C517.59 465.979 516.64 485.1 515.93 500.5C514.88 523.099 514.87 531.88 515.88 546C516.57 555.629 517.76 572.269 518.53 583C519.3 593.729 519.95 609.249 519.97 617.5C519.99 625.749 520.46 635.199 521.02 638.5C521.57 641.799 522.47 655.98 523.02 670C523.57 684.019 524.46 699.549 525 704.5C525.539 709.449 526.45 717.999 527.02 723.5C527.6 728.999 528.52 737.329 529.07 742C529.63 746.669 530.48 753.199 530.97 756.5C531.46 759.799 532.39 766.55 533.03 771.5C533.67 776.449 534.61 781.849 535.12 783.5C535.62 785.149 536.04 788.08 536.05 790C536.06 791.919 536.67 794.629 537.41 796L538.75 798.5C544.109 789.98 547.18 785.019 549.03 782C550.88 778.979 554.29 772.899 556.6 768.5C558.92 764.099 562.63 756.229 564.84 751C567.06 745.77 569.82 737.899 570.99 733.5C572.15 729.099 573.75 721.669 574.54 717C575.42 711.719 575.97 701.289 575.98 689.5C575.98 679.05 575.52 666.449 574.96 661.5C574.39 656.549 573.47 648.229 572.91 643C572.35 637.77 571.43 630.579 570.86 627C570.29 623.419 568.96 616.449 567.91 611.5C566.86 606.55 565.56 600.479 565.01 598C564.47 595.519 563.32 589.449 562.45 584.5C561.59 579.55 560.48 573.249 559.97 570.5C559.47 567.749 558.1 561.229 556.93 556C555.76 550.77 554.42 544.699 553.96 542.5C553.5 540.299 550.34 527.699 546.94 514.5C543.55 501.301 540.491 489.433 540.14 488.13C539.79 486.82 539.16 485.58 538.75 485.38C538.34 485.17 538 484.099 538 483C537.999 481.899 537.15 479.089 536.11 476.75C535.07 474.409 533.09 469.579 531.72 466C530.34 462.419 527.37 455.559 525.11 450.75C522.85 445.94 520.6 441.75 520.1 441.44Z"
        fill="currentColor" />
</svg>