<svg width="474" height="1173" viewBox="0 0 474 1173" fill="currentColor"
    xmlns="http://www.w3.org/2000/svg">
    <path
        d="M229.15 0C229.62 0 230.43 1.01004 230.95 2.25C231.47 3.49 232.59 8.33 233.44 13C234.3 17.67 235.409 23.98 235.919 27C236.429 30.03 237.31 35.42 237.88 39C238.45 42.58 239.36 50 239.91 55.5C240.46 61 241.15 71.8 241.44 79.5C241.73 87.1998 241.64 93.9695 241.24 94.5498C240.83 95.1198 239.04 96.5898 237.25 97.7998C234.9 99.3898 233.82 101.04 233.35 103.75C232.99 105.81 233.249 119.43 233.919 134C234.599 148.57 235.35 161.289 235.58 162.25C235.82 163.25 239.55 165.78 244.25 168.13C248.788 170.399 252.728 172.539 253 172.88C253.27 173.23 255.08 174.66 257 176.07C258.92 177.48 261.74 181.08 263.26 184.07C265.08 187.65 266.02 191.03 266 194C265.99 196.68 264.98 200.62 263.49 203.75C262.12 206.64 261 210.46 261.01 212.25C261.01 214.04 261.5 218.43 262.1 222C262.69 225.57 264.52 232.55 266.16 237.5C267.8 242.45 270.53 248.98 272.24 252C273.94 255.02 276.049 258.25 276.919 259.17C277.789 260.09 280.98 263.74 284 267.27C287.019 270.809 290.259 274.099 291.2 274.6C292.13 275.09 298.82 279.55 306.06 284.5C313.29 289.45 319.84 294.06 320.61 294.75C321.369 295.44 322.229 295.999 322.5 296C322.77 296 325.02 297.35 332 302L334.57 299.25C335.98 297.74 338.79 294.51 340.82 292.09C342.84 289.66 348.55 284.1 353.5 279.72C358.449 275.35 366.77 268.95 372 265.52C377.229 262.08 383.519 258.241 386 256.98C388.479 255.721 392.749 254.09 395.5 253.36C398.249 252.62 402.299 252.001 404.5 251.98C407.07 251.95 409.11 252.57 410.22 253.72C411.16 254.7 412.62 258.09 413.47 261.25C414.33 264.49 414.99 271.05 414.98 276.25C414.97 281.34 414.3 289.1 413.49 293.5C412.68 297.9 411.61 303.07 411.1 305C410.6 306.93 409.45 310.98 408.55 314C407.65 317.02 406.53 320.4 406.06 321.5C405.59 322.6 404.66 325.07 403.99 327C403.32 328.93 401.42 333.43 399.77 337C398.12 340.57 395.7 344.85 392 349.5L395.25 355.92C398.34 362.02 398.5 362.87 398.47 373.42C398.45 382.86 398.04 385.68 395.7 392.5C394.19 396.9 392.42 401.63 391.78 403C391.14 404.37 388.24 409.77 385.35 415C382.45 420.23 378.07 427.43 375.61 431C371.88 436.41 371.31 437.83 372.19 439.5C372.78 440.6 375.56 444.74 378.38 448.69C383.2 455.46 384.07 456.161 393 460.48C401.459 464.58 402.83 464.96 405.5 463.99C407.15 463.39 414.35 460.02 434.5 450.09L439.29 441.29C441.92 436.46 446.49 427.55 449.44 421.5C452.38 415.45 456.119 407.57 457.75 404C459.379 400.43 462.169 393.45 463.959 388.5C465.749 383.55 467.82 378.38 468.55 377C469.28 375.63 470.459 374.5 471.169 374.5C471.899 374.5 472.78 376.26 473.18 378.5C473.57 380.7 473.9 389.48 473.91 398C473.92 406.52 473.5 421.6 472.98 431.5C472.45 441.4 471.57 455.35 471.03 462.5C470.48 469.65 469.58 481.57 469.02 489C468.46 496.43 467.56 507 467.02 512.5C466.48 518 465.36 528.8 464.52 536.5C463.69 544.2 463 552.19 463 554.25C463 556.77 463.6 558.41 464.84 559.25C465.85 559.94 467.2 561.51 467.84 562.75C468.48 563.99 469 566.01 469 567.25C468.99 568.49 469.89 570.06 471 570.75C472.43 571.64 472.99 573.07 472.98 575.75C472.97 577.96 472.21 580.32 471.13 581.5C469.79 582.98 468.99 586.51 468.09 595C467.42 601.33 466.22 610.55 465.44 615.5C464.66 620.45 463.13 627.88 462.05 632C460.93 636.27 459.31 640.041 458.29 640.771C457.31 641.46 456.049 642.01 455.5 641.97C454.949 641.94 453.95 642.49 453.27 643.21C452.59 643.92 451.6 648.1 450.1 660.5L453.53 665.5C455.55 668.44 456.96 671.73 456.97 673.5C456.97 675.15 456.05 679.2 454.91 682.5C453.77 685.8 451.969 690.41 450.919 692.75C449.859 695.09 449 697.45 449 698C449 698.55 446.7 704.29 443.89 710.75C441.07 717.21 436.86 727.45 434.52 733.5C432.19 739.55 427.72 749.9 424.6 756.5C421.48 763.1 418.43 769.4 417.83 770.5C416.91 772.17 417.12 772.74 419.11 773.99C420.43 774.81 422.74 776.72 424.25 778.24C426.43 780.43 427 781.93 427 785.5C427 787.98 426.34 792.36 425.53 795.25C424.72 798.14 422.88 801.63 421.45 803C419.49 804.87 417.409 805.63 413.169 806C407.74 806.48 407.49 806.63 407.16 809.5C406.98 811.15 407.36 815.2 408.02 818.5C408.68 821.8 409.68 826.08 410.25 828C410.81 829.92 411.61 832.4 412.03 833.5C412.44 834.6 414 838.42 415.5 842C417 845.58 419.78 851.88 421.68 856C424.1 861.27 424.919 864.24 424.459 866C424.099 867.38 423.19 872.77 422.44 878C421.68 883.23 421.05 889.52 421.03 892C421.01 894.48 420.43 900.44 418.5 914.03L412.25 914.01C408.81 914.01 405.79 913.66 405.54 913.25C405.29 912.839 405.76 909.35 406.59 905.5C407.41 901.65 408.54 895.35 409.1 891.5C409.65 887.65 409.809 881.13 409.459 877C409.099 872.88 408.21 867.25 407.47 864.5C406.73 861.75 405.7 858.15 405.19 856.5C404.67 854.85 403.18 851.35 401.88 848.73C400.57 846.11 399.16 843.97 398.75 843.98C398.34 843.992 398.24 846.141 398.53 848.75C398.82 851.36 399.57 855.75 400.18 858.5C400.8 861.25 402.14 865.41 403.15 867.75C404.17 870.09 405.01 873.24 405.01 874.75C405.02 876.26 404.15 880.2 403.07 883.5C402 886.8 399.8 894.45 398.18 900.5C396.56 906.55 394.45 915.55 393.5 920.5C392.55 925.45 391.37 930.29 390.88 931.25C390.39 932.23 388.35 933.27 386.25 933.61C384.19 933.95 381.039 933.95 379.25 933.61C377.3 933.24 376 932.4 376 931.5C376 930.67 376.869 928.09 377.919 925.75C378.979 923.41 380.53 917.23 381.36 912C382.18 906.77 383.34 898.11 383.93 892.75C384.52 887.39 385 878.5 385 873C385 867.5 384.54 860.64 383.97 857.75C383.4 854.86 382.42 850.7 381.79 848.5C381.17 846.3 380.3 844.05 379.88 843.5C379.45 842.95 378.76 845.2 378.33 848.5C377.91 851.8 377.57 857.2 377.59 860.5C377.61 863.8 377.98 868.98 378.41 872C379.12 876.86 378.92 878.02 376.7 882C375.32 884.48 373.1 889.2 371.78 892.5C370.46 895.8 368.31 902.33 367.01 907C365.7 911.67 364.15 915.83 363.57 916.23C362.979 916.64 359.459 916.98 355.75 916.98C352.04 916.99 348.77 916.55 348.5 916C348.23 915.45 348.99 913.09 350.19 910.75C351.4 908.41 352.759 904.92 353.209 903C353.669 901.08 354.71 895.9 355.52 891.5C356.54 885.98 357 876.59 357 861.25C357 844.71 356.59 837.01 355.4 831.25C354.51 826.99 353.61 822.94 353.4 822.25C353.1 821.31 352.31 821.42 350.25 822.69C348.74 823.631 346.489 825.431 345.25 826.69C344.01 827.961 342.16 830.46 341.14 832.25C340.12 834.04 338.49 837.75 337.52 840.5C336.56 843.25 335.15 848.88 334.4 853C333.65 857.13 333.03 862.19 333.02 864.25C333 867.8 332.84 867.99 330.01 867.75C328.37 867.61 327.02 867.84 327.01 868.25C327 868.66 327.51 870.24 328.14 871.75C328.77 873.26 329.87 875.85 330.6 877.5C331.32 879.15 332.21 882.52 332.58 885C332.94 887.48 332.7 892.88 332.04 897C331.39 901.13 329.72 908.77 328.33 914C326.95 919.23 324.23 928.23 322.29 934C320.35 939.77 318.03 945.61 317.13 946.96C316.18 948.39 315.21 952.75 314.81 957.46C314.43 961.88 313.799 970.23 313.419 976C312.809 985.1 312.99 987.44 314.81 993.5C315.97 997.35 317.63 1003.65 318.5 1007.5C319.379 1011.35 320.819 1016.97 321.709 1020C322.589 1023.03 323.699 1025.95 324.169 1026.5C324.649 1027.05 325.02 1028.4 325.01 1029.5C325 1030.6 325.66 1032.51 326.49 1033.75C327.38 1035.08 329.02 1036 330.5 1036C331.879 1036 334.46 1037 336.25 1038.21C338.04 1039.43 340.09 1041.12 340.81 1041.96C341.53 1042.81 344.45 1048.11 347.31 1053.75C350.16 1059.38 353.169 1065.29 354 1066.88C354.83 1068.46 357.48 1070.83 359.9 1072.13C362.31 1073.43 366.93 1077.31 370.15 1080.75C373.39 1084.22 377.46 1090.01 379.29 1093.75C381.1 1097.46 383.54 1103.65 384.72 1107.5C385.9 1111.35 387.41 1116.97 388.09 1120C389.11 1124.55 389.08 1126.07 387.91 1128.79C386.63 1131.78 386.119 1132.08 382.25 1132.04C378.23 1132 377.97 1132.18 377.41 1135.25C377.08 1137.04 376.17 1140.53 375.37 1143C374.57 1145.47 371.43 1152.45 368.38 1158.5C365.33 1164.55 362.079 1170.33 361.169 1171.33C360.149 1172.45 358.719 1172.96 357.5 1172.63C356.209 1172.28 354.089 1169.16 351.5 1163.79C347.92 1156.37 347.47 1155.81 347.18 1158.5C347.01 1160.15 347.23 1163.85 347.68 1166.73C348.21 1170.08 348.139 1172.02 347.5 1172.12C346.949 1172.21 344.699 1172.19 342.5 1172.07C340.299 1171.96 335.799 1170.93 332.5 1169.8C329.199 1168.67 323.799 1166.53 320.5 1165.06C317.199 1163.59 311.579 1160.42 308 1158.03C304.419 1155.63 297.899 1150.15 285.5 1138.02L279.5 1138C276.2 1137.98 273 1137.64 272.4 1137.23C271.79 1136.83 270.81 1135.6 270.22 1134.5C269.62 1133.4 268.84 1128.9 268.48 1124.5C268.09 1119.72 268.29 1114.09 268.97 1110.5C269.61 1107.2 270.22 1099.1 270.35 1092.5C270.53 1082.54 270.97 1079.48 272.959 1074.5C274.269 1071.2 276.26 1067.15 277.39 1065.5C278.52 1063.85 280.47 1061.71 281.72 1060.75C283.46 1059.41 284 1057.99 284 1054.75C284 1052.08 284.98 1048.64 286.64 1045.5C289.25 1040.54 289.269 1040.37 288.709 1024.5C288.399 1015.7 287.44 1005.13 286.57 1001C285.7 996.88 284.51 990.8 283.91 987.5C283.32 984.2 282.34 979.25 281.74 976.5C281.13 973.75 279.4 968.8 277.89 965.5C276.38 962.2 273.09 957.25 270.57 954.5C268.05 951.75 264.02 946.58 261.61 943C259.2 939.42 256.05 934.48 254.61 932C253.17 929.52 248.509 920.52 244.25 912C236.63 896.77 236.5 896.37 236.52 889C236.53 884.88 237.12 877.9 237.83 873.5C238.54 869.1 239.58 862.58 240.15 859C240.72 855.42 242.05 847.77 243.11 842C244.17 836.23 246.219 825.42 247.669 818C250.099 805.53 250.22 803.78 249.2 795C248.59 789.77 247.65 782.58 247.1 779C246.56 775.42 245.67 769.8 245.13 766.5C244.59 763.2 242.51 753.98 240.5 746C238.49 738.02 234 723.17 230.52 713C227.03 702.83 221.05 685.5 217.24 674.5C213.42 663.5 208.54 650.77 206.4 646.22C204.25 641.67 202.27 637.95 202 637.95C201.729 637.952 201.17 639.201 200.76 640.73C200.36 642.251 199.1 646.88 197.97 651C196.83 655.13 195.53 660.3 195.06 662.5C194.6 664.7 193.1 672.35 191.72 679.5C190.35 686.65 188.72 695.76 188.11 699.75C187.5 703.74 186.57 710.04 186.04 713.75C185.52 717.46 184.63 725 184.08 730.5C183.53 736 182.61 748.15 182.03 757.5C181.45 766.85 180.98 780.13 181 787C181.01 793.88 181.51 802.42 182.13 806C182.78 809.84 185.57 817.61 188.95 825C192.09 831.88 195.679 840.2 196.919 843.5C198.169 846.8 200.46 852.65 202 856.5C203.55 860.35 206.21 867.1 207.91 871.5C209.62 875.9 211.01 880.06 211.01 880.75C211 881.44 211.45 882 212 882C212.55 882 212.99 882.56 212.98 883.25C212.97 883.94 213.7 886.08 214.61 888C215.82 890.56 216.07 892.7 215.55 896C215.16 898.48 213.82 903.65 212.58 907.5C211.34 911.35 208.68 918.33 206.68 923C204.68 927.67 200.71 935.77 197.87 941C195.02 946.23 191.65 952.52 190.38 955C188.55 958.54 187.81 962.39 186.91 973C186.23 981 186.02 993.02 186.4 1002.5C186.76 1011.3 187.67 1022.33 188.44 1027C189.2 1031.67 190.11 1036.63 190.45 1038C190.92 1039.89 192.34 1040.96 196.29 1042.4C199.37 1043.52 203.54 1046.23 206.5 1049.02C209.599 1051.95 213.02 1056.71 215.5 1061.54C218.939 1068.24 219.49 1070.19 219.41 1075.42C219.36 1078.76 218.63 1082.85 217.79 1084.5C216.939 1086.15 214.21 1089.75 211.73 1092.5C209.16 1095.34 204.78 1098.69 196 1103L191.75 1100.83C188.35 1099.1 186.399 1098.77 182 1099.2C178.98 1099.5 174.479 1100.71 172 1101.88C169.52 1103.06 166.939 1104.02 166.25 1104.01C165.56 1104.01 165.01 1104.34 165.02 1104.75C165.04 1105.16 163.69 1105.84 162.02 1106.25C159.75 1106.81 158.89 1107.68 158.56 1109.75C158.32 1111.26 157.87 1114.64 157.56 1117.25C157.01 1121.91 156.91 1122.03 152.25 1123.42C149.639 1124.2 144.349 1126.01 140.5 1127.44C136.23 1129.03 131.159 1130.11 127.5 1130.2C122.94 1130.33 120.599 1129.84 117.75 1128.18C114.9 1126.52 113.459 1126.22 111.75 1126.94C110.508 1127.46 104.549 1128.76 98.4995 1129.84C92.4495 1130.93 83.6794 1132.28 78.9995 1132.86C74.3294 1133.43 65.9993 1134.4 60.4995 1135.01C54.9996 1135.62 48.2494 1136.54 45.4995 1137.06C42.7496 1137.57 39.1494 1137.63 37.4995 1137.18C35.6798 1136.69 34.3797 1135.6 34.1997 1134.43C34.03 1133.37 35.0401 1131.15 36.4399 1129.5C38.1399 1127.51 38.5762 1126.39 37.7495 1126.15C37.0589 1125.96 34.0191 1126.96 30.9995 1128.38C27.9796 1129.79 24.4895 1130.96 23.2495 1130.97C22.0097 1130.99 20.9995 1130.55 20.9995 1130C20.9995 1129.45 21.8296 1127.09 22.8296 1124.75C23.8396 1122.41 27.5195 1116.22 30.9995 1111C34.4895 1105.78 40.0604 1098.13 43.3804 1094C46.7003 1089.88 51.5697 1084.25 54.1997 1081.5C57.5097 1078.03 58.9797 1075.66 58.9897 1073.75C58.9897 1072.24 59.9401 1069.09 61.1001 1066.75C62.2501 1064.41 66.8702 1058.78 71.3501 1054.24C76.7829 1048.74 80.2493 1045.99 81.7495 1045.99C82.9894 1046 86.5896 1044.61 89.7495 1042.9C92.9088 1041.2 95.9485 1039.46 96.4995 1039.03C97.0495 1038.6 101.77 1035.99 107 1033.23C112.229 1030.47 120.549 1026.81 125.5 1025.11C130.449 1023.41 135.509 1022.01 136.75 1022.01C138.049 1022 139.199 1021.26 139.459 1020.25C139.709 1019.29 140.56 1015.35 141.35 1011.5C142.13 1007.65 143.27 1000.45 143.88 995.5C144.49 990.55 145.44 981.33 145.99 975C146.54 968.67 147 960.01 147 955.75C147 948.86 146.68 947.53 144.12 943.75C142.53 941.41 139.84 936.8 138.15 933.5C136.45 930.2 135.04 927.05 135.02 926.5C135 925.95 134.2 923.56 133.24 921.19C132.09 918.36 130.99 917.01 130 917.25C129.179 917.45 126.479 916.27 124 914.63C121.52 912.98 119.269 911.37 119 911.05C118.728 910.729 116.019 908.459 113 906C109.98 903.54 107.27 901.29 107 901.01C106.727 900.718 103.688 898.129 100.25 895.24C96.8096 892.36 94.0198 890.34 94.0298 890.75C94.0498 891.16 96.5298 894.54 99.5298 898.25C102.54 901.96 105.02 905.56 105.04 906.25C105.06 906.94 103.82 908.03 102.29 908.69C100.759 909.34 98.1493 910.13 96.4995 910.44C94.8499 910.74 93.0207 910.66 92.4204 910.25C91.8304 909.84 89.3604 906.63 86.9204 903.13C84.4904 899.63 81.0097 894.68 79.1997 892.13C77.3796 889.58 72.5496 882.21 68.4497 875.75C61.2398 864.38 60.9997 863.8 60.9897 857.75C60.9797 854.31 60.3097 849.02 59.4897 846C58.6697 842.98 56.8099 838.25 55.3599 835.5C53.8999 832.75 52.2597 829.83 51.6997 829C50.9798 827.93 51.2903 825.48 52.8003 820.5C53.9603 816.65 55.0495 811.73 55.4995 805.63L48.9995 804.29C45.4296 803.55 40.9294 802.13 38.9995 801.14C37.0797 800.14 34.8804 798.02 34.1304 796.42C33.3704 794.81 32.4695 790.52 31.4995 780.26L35.2495 776.63C37.3095 774.63 39.01 772.44 39.02 771.75C39.03 771.06 38.6303 770.05 38.1304 769.5C37.6304 768.95 35.55 763.77 33.52 758C31.48 752.23 28.3403 743 26.5503 737.5C24.7603 732 21.8398 722.77 20.0698 717C18.2998 711.23 16.4399 704.92 15.9399 703C15.4399 701.08 13.7204 694.77 12.1304 689C10.5404 683.23 8.74967 675.8 8.15967 672.5C7.56967 669.2 6.85029 664.02 6.55029 661C6.06029 655.95 6.30025 655.07 9.51025 650.25C12.4402 645.85 12.9995 644.11 12.9995 639.5C12.9995 634.91 12.7095 634.01 11.2495 634.04C10.2896 634.07 8.98977 633.51 8.35986 632.79C7.72986 632.08 6.48986 629.36 5.60986 626.75C4.71987 624.14 3.33025 618.74 2.51025 614.75C1.69025 610.76 0.750411 601.65 0.42041 594.5C0.0904102 587.35 0.299903 576.77 0.899902 571C1.51989 564.99 2.61975 559.54 3.48975 558.25C4.31968 557.01 6.23957 555.55 7.74951 555C10.4495 554.02 10.5198 553.78 11.7798 541.25C12.4798 534.24 13.4795 524.67 13.9995 520C14.5195 515.33 15.2201 508.58 15.5601 505C15.8901 501.42 16.5603 494.9 17.0503 490.5C17.5303 486.1 18.3804 478.9 18.9204 474.5C19.4704 470.1 20.3997 462.9 20.9897 458.5C21.5797 454.1 22.4697 447.57 22.9497 444C23.4397 440.43 24.7895 430.98 25.9595 423C27.1195 415.02 28.7295 405.35 29.5396 401.5C30.3396 397.65 30.9995 393.04 30.9995 391.25C30.9995 389.46 31.5596 386.91 32.2495 385.57C33.0095 384.09 33.9998 383.41 34.7798 383.82C35.4898 384.2 36.7203 386.75 37.5103 389.5C38.3103 392.25 40.3501 399.45 42.0601 405.5C43.7701 411.55 46.21 419.65 47.48 423.5C48.76 427.35 50.5895 432.3 51.5396 434.5C52.4995 436.7 54.6802 441.34 56.3901 444.81C58.0999 448.279 60.2893 451.989 61.2495 453.06C62.4694 454.419 63.5296 454.75 64.7495 454.17C65.7094 453.71 68.2996 452.58 70.4995 451.65C73.7695 450.27 75.4195 448.46 79.4995 441.76C82.2487 437.251 84.6083 433.212 84.7495 432.78C84.8895 432.35 82.3699 428.06 79.1499 423.25C75.9399 418.44 72.1595 411.35 70.7495 407.5C69.3395 403.65 66.9898 397.35 65.5298 393.5C63.8798 389.17 62.6303 383.45 62.2603 378.5C61.8003 372.43 62.04 369.41 63.27 366C64.36 362.96 67.18 359.23 71.9399 354.5C75.8199 350.65 79.0003 347.05 79.0103 346.5C79.0202 345.95 78.1799 343.7 77.1499 341.5C76.1199 339.3 74.3397 333.68 73.1997 329C72.0597 324.32 70.5499 317.35 69.8599 313.5C69.1299 309.47 68.5696 298.22 68.5396 287C68.5096 270.19 68.7599 266.88 70.3599 263C71.3898 260.52 73.4099 257.02 74.8599 255.2C77.1698 252.32 78.0699 251.921 81.9995 251.98C84.7594 252.03 88.8196 253.17 92.4995 254.93C96.1695 256.69 102 261.05 107.51 266.15C112.46 270.74 119.21 277.59 122.51 281.36C125.8 285.14 128.95 288.74 129.5 289.36C130.049 289.99 132.52 293.09 135 296.26C138.78 301.1 139.74 301.82 140.97 300.76C141.78 300.07 143.13 298.959 143.97 298.31C144.811 297.649 148.42 294.969 152 292.34C155.579 289.72 163.07 283.06 168.66 277.54C174.25 272.02 180.68 264.57 182.94 261C185.2 257.43 187.04 253.94 187.03 253.25C187.01 252.34 184.59 252.01 178.25 252.04C171.25 252.08 169.199 251.75 168 250.4C167.01 249.28 166.569 246.97 166.709 243.6C166.83 240.8 168.11 235.569 172.2 225.5L169.85 224C168.56 223.18 166.23 221.15 164.68 219.5C163.13 217.85 160.68 214.47 159.25 212C157.51 209 156.487 205.5 156.18 201.5C155.91 197.98 156.27 193.85 157.04 191.5C157.76 189.3 160.25 185.47 162.57 183C165.18 180.22 169.42 177.29 173.65 175.33C177.42 173.59 181.85 171.67 186.5 169.96L186.56 146.23C186.59 133.181 187.17 118.45 187.83 113.5C188.5 108.55 189.46 102.25 189.98 99.5C190.49 96.75 191.42 91.58 192.06 88C192.69 84.42 194.27 77.45 195.56 72.5C196.86 67.55 198.79 60.8 199.86 57.5C200.92 54.2 202.55 49.47 203.49 47C204.42 44.5201 205.57 41.6001 206.04 40.5C206.51 39.4 209 34 211.56 28.5C214.12 23 218.25 15.13 220.73 11C223.21 6.88001 225.93 2.71 226.77 1.75C227.61 0.790054 228.68 6.63414e-05 229.15 0ZM108.22 878C107.52 878 106.67 878.79 106.33 879.75C105.88 881.04 108.261 883.99 115.38 891C120.7 896.23 125.22 900.27 125.43 900C125.64 899.729 125.57 897.48 125.29 895C124.83 891.06 124.14 890 119.76 886.5C117 884.3 113.57 881.49 112.12 880.25C110.67 879.01 108.92 878 108.22 878ZM133.97 445.5C133.37 447.15 131.28 454.57 129.34 462C127.39 469.43 125.42 477.3 124.94 479.5C124.47 481.7 122.48 489.8 120.53 497.5C118.58 505.2 116.97 512.17 116.97 513C116.96 513.83 117.7 516.08 118.61 518C119.89 520.7 120.1 522.76 119.52 527C119.1 530.02 117.93 534.98 116.91 538C115.89 541.02 115.02 544.63 114.99 546C114.96 547.38 115.86 549.4 117 550.5C118.53 551.98 119.06 553.73 119.03 557.25C119.01 559.86 118.44 563.24 117.77 564.75C117.09 566.26 115.29 568.74 113.77 570.25L111 573C114.15 577.26 115.06 579.85 115.06 581.5C115.05 583.15 114.36 586.19 113.52 588.25C112.69 590.31 110.76 593.13 109.25 594.5C106.86 596.68 106.66 597.26 107.75 599C108.44 600.1 109.28 602.69 109.62 604.75C110.07 607.46 109.65 609.82 108.12 613.25C106.86 616.06 104.63 618.92 102.63 620.25C99.5704 622.3 99.1496 623.18 98.0396 630C97.3696 634.13 96.4295 639.98 95.9595 643C95.4895 646.02 94.6501 651.88 94.1001 656C93.5401 660.13 92.5902 668.45 91.9702 674.5C91.3502 680.55 90.4101 689.1 89.8901 693.5C89.3601 697.9 88.6095 715.5 88.2095 732.61L87.4995 763.71C96.0195 764.68 99.5295 765.76 100.79 766.73C102.85 768.32 103.13 769.55 103.57 779C103.96 787.39 103.76 789.95 102.53 791.75C101.69 792.99 100.209 794.011 99.2495 794.021C98.2895 794.021 96.8194 794.45 95.9995 794.97C94.7097 795.78 94.8797 796.68 97.2495 801.45C99.6895 806.37 99.9299 807.71 99.3599 813.25C99.0099 816.69 97.7796 821.52 96.6196 824C95.4697 826.48 94.5496 830.3 94.5796 832.5C94.6296 835.24 95.7803 838.38 98.2603 842.5C100.25 845.8 103.82 851.13 106.19 854.35C108.56 857.57 114.77 864.24 120 869.18C125.219 874.119 129.769 877.79 130.11 877.33C130.44 876.87 133.06 870.42 135.93 863C138.8 855.58 141.639 848.15 142.25 846.5C142.86 844.85 144.56 840.8 146.04 837.5C147.52 834.2 149.02 830.6 149.37 829.5C149.76 828.32 148.78 824.04 146.97 819C145.29 814.33 143.259 809.49 142.459 808.25C141.66 807.01 141 804.99 141.01 803.75C141.02 802.51 141.64 799.48 142.4 797C143.16 794.52 144.56 790.48 145.51 788C146.83 784.55 146.98 782.92 146.18 781C145.6 779.62 143.33 773.55 141.13 767.5C138.93 761.45 135.05 749.98 132.51 742C129.97 734.02 127.04 724.35 126 720.5C124.97 716.65 123.61 711.92 123 710C122.38 708.08 121.23 704.14 120.44 701.25C119.63 698.28 119 691.55 118.99 685.75C118.99 680.11 119.63 671.23 120.42 666C121.21 660.77 122.57 652.9 123.44 648.5C124.31 644.1 125.45 638.92 125.97 637C126.49 635.08 127.58 630.8 128.38 627.5C129.19 624.2 131.66 614.98 133.88 607C136.1 599.02 139.32 588.45 141.04 583.5C142.76 578.55 144.84 572.92 145.66 571C146.49 569.08 147.58 566.71 148.08 565.75C148.59 564.79 148.63 563.44 148.18 562.75C147.73 562.06 146.85 559.7 146.22 557.5C145.6 555.3 144.52 551.02 143.84 548C143.09 544.72 142.57 535.04 142.54 524C142.52 513.81 143.13 500.56 143.9 494.5C144.66 488.45 146.12 481.14 147.15 478.25C148.17 475.361 149.449 473.001 150 473C150.549 473 151.45 473.9 152 475C152.55 476.1 153.01 480.26 153.02 484.25C153.03 488.24 153.68 496 154.46 501.5C155.24 507 156.6 515.1 157.48 519.5C158.35 523.9 159.45 528.4 159.92 529.5C160.38 530.6 161.17 532.62 161.68 534C162.55 536.35 162.78 536.1 165.48 530C167.06 526.42 168.76 521.7 169.26 519.5C169.77 517.3 170.41 511.9 170.7 507.5C171.05 502.09 170.68 496.91 169.56 491.5C168.65 487.1 167 481.48 165.88 479C164.77 476.52 161.9 471.8 159.51 468.5C157.12 465.2 150.64 458 145.12 452.5L135.08 442.5L133.97 445.5ZM322.74 450.04C322.05 450.06 320.37 451.3 318.99 452.8C317.62 454.29 314.69 456.86 312.5 458.51C310.299 460.15 306.249 462.85 303.5 464.5C300.739 466.15 295.57 469.03 291.99 470.91C288.42 472.78 284.25 475.14 282.74 476.15C281.23 477.17 279.77 478 279.49 478C279.219 478.001 276.849 479.41 274.24 481.13C271.63 482.85 266.79 487.06 263.49 490.5C260.19 493.93 256.5 498.71 255.29 501.12C254.09 503.53 252.45 507.52 251.67 510C250.88 512.48 249.96 516.64 249.62 519.25C249.23 522.17 249.38 524 249.99 524C250.54 524 253.49 521.64 256.55 518.75C259.61 515.86 263.99 510.84 266.3 507.58C268.6 504.32 273.64 498.31 277.49 494.21C281.34 490.12 285.62 485.07 286.99 482.99C288.37 480.91 290.73 477.81 292.24 476.1C293.75 474.4 296.23 472.54 297.74 471.99C299.25 471.43 300.72 471.23 300.99 471.54C301.27 471.85 300.91 475.12 300.2 478.8C299.49 482.49 297.53 490 295.85 495.5C294.18 501 292.14 507.52 291.33 510C290.51 512.48 289.12 516.08 288.22 518C287.33 519.92 286.32 521.73 285.99 522C285.649 522.271 283.94 525.54 282.18 529.25C280.43 532.96 278.99 536.23 278.99 536.5C278.99 536.77 277.55 539.36 275.79 542.25C274.03 545.14 272.34 547.73 272.04 548C271.739 548.271 269.87 550.521 267.88 553C265.89 555.48 262.83 559.08 261.09 561C258.79 563.53 258.09 565.06 258.58 566.5C258.96 567.6 260.36 570.98 261.71 574C263.05 577.02 265.96 584 268.16 589.5C270.37 595 273.22 602.65 274.51 606.5C275.79 610.35 278.64 619.8 280.84 627.5C283.05 635.2 286.3 647.58 288.06 655C289.83 662.42 293.02 673.9 295.16 680.5C297.76 688.57 299.03 694.3 299.02 698C299.01 701.02 298.07 708 296.94 713.5C295.8 719 294.42 725.98 293.88 729C293.34 732.02 292.44 736.75 291.89 739.5C291.34 742.25 290.49 746.3 289.99 748.5C289.49 750.7 288.34 755.42 287.43 759C286.52 762.58 285.57 766.85 285.32 768.5C284.98 770.74 285.58 772.39 287.68 774.99C289.23 776.91 291.07 779.61 291.77 780.99C292.48 782.37 293.03 785.52 292.99 788C292.95 791.57 294.36 795.51 299.82 807C303.61 814.98 307.4 823.08 308.24 825C309.09 826.92 310.95 831.09 312.38 834.25C313.73 837.212 314.842 839.876 314.976 840.42L315.003 840.58C315.136 841.124 316.238 843.788 317.56 846.75C319.96 852.11 320.22 852.36 321.44 850.5C322.16 849.4 323.43 846.48 324.27 844C325.11 841.52 326.52 835.34 327.39 830.25C328.27 825.16 329 819.09 329.01 816.75C329.02 814.41 329.35 812.02 329.76 811.42C330.161 810.83 334.54 808.22 339.49 805.61C344.439 803.011 349.949 799.561 351.74 797.94C353.53 796.32 355.01 794.66 355.02 794.25C355.04 793.84 354.25 792.76 353.27 791.86C352.29 790.96 350.86 788.04 350.08 785.36C348.9 781.29 348.88 779.69 349.97 775.5C350.69 772.75 351.91 769.6 352.68 768.5C353.45 767.4 355.3 765.72 356.79 764.76C358.27 763.8 361.18 763.01 363.24 763.01L366.99 763C366.99 724.25 366.55 707.49 366.01 700.75C365.47 694.01 364.55 683.55 363.96 677.5C363.37 671.45 362.45 663.58 361.9 660C361.36 656.42 360.44 650.8 359.87 647.5C359.3 644.2 358.3 639.38 357.66 636.79C356.81 633.38 355.73 631.66 353.74 630.54C352.23 629.7 350.13 627.76 349.07 626.25C348.01 624.74 346.81 621.7 346.41 619.5C345.83 616.32 346.12 614.73 347.84 611.75L349.99 608C345.97 605.29 343.95 603.04 342.9 601.25C341.79 599.36 340.99 596.12 340.99 593.5C340.99 591.02 341.67 587.65 342.49 586C343.93 583.13 343.88 582.94 341.49 581.5C340.12 580.67 338.089 578.54 337 576.75C335.83 574.85 335 571.74 335 569.25C334.99 566.4 335.73 564.01 337.24 561.99L339.49 558.99C335.11 546.21 333.56 540.25 333.24 537.5C332.69 532.84 332.93 532.07 336.82 526.25C339.21 522.67 340.99 518.83 340.98 517.25C340.97 515.74 340.09 511.58 339.01 508C337.93 504.42 335.65 495.43 333.94 488C332.23 480.57 329.95 471.35 328.88 467.5C327.81 463.65 326.27 458.14 325.46 455.25C324.65 452.36 323.43 450.02 322.74 450.04Z"
        fill="currentColor" />
</svg>