<svg width="639" height="479" viewBox="0 0 639 479" fill="currentColor"
    xmlns="http://www.w3.org/2000/svg">
    <path
        d="M333.5 1.95947C338.01 0.609608 341.611 0.289917 348 0.649902C352.68 0.909904 357.511 1.32007 358.75 1.56006C359.99 1.80004 361.01 2.33961 361.01 2.74951C361.02 3.15951 357.31 4.49958 344.5 7.95947L353 7.48975C357.681 7.22971 366.901 6.35952 373.5 5.53955C380.101 4.71956 391.801 3.73964 413.5 2.65967L421.25 6.82959C425.509 9.11889 428.998 11.3386 429 11.7495C429.01 12.1595 422.37 12.19 414.25 11.8101C406.142 11.4401 398.823 11.4999 398 11.9497C397.09 12.4397 401.4 13.1901 409 13.8501C415.88 14.4401 424.651 15.6403 428.5 16.5103C432.351 17.3803 438.881 19.1603 443 20.4702C447.13 21.7902 452.521 23.7303 455 24.8003C457.81 26.0104 461.101 28.6698 463.75 31.8696C466.09 34.689 468 37.4487 468 37.9995C468 38.5492 467.77 38.999 467.5 38.9995C467.23 38.9995 463.74 37.36 459.75 35.3501C455.761 33.3402 449.571 30.6299 446 29.3198C442.431 28.02 439.391 27.1902 439.25 27.48C439.11 27.76 441.14 29.1794 443.75 30.6294C446.361 32.0694 450.751 34.5902 453.5 36.2202C456.251 37.8502 462.551 40.5498 467.5 42.1997C472.45 43.8597 480.101 46.8795 484.5 48.9194C488.9 50.9494 494.86 54.1701 497.74 56.0601C501.74 58.68 503.47 60.6298 504.99 64.2495C506.1 66.8595 506.89 69.2102 506.75 69.4702C506.61 69.7299 504.7 68.7395 502.5 67.2798C500.301 65.8099 495.8 63.1403 492.5 61.3403C489.201 59.5409 486.052 58.0411 485.5 58.0103C484.95 57.9703 488.1 61.5201 500.5 73.8501L505.5 72.3101C508.44 71.4102 512.35 70.9799 515 71.2798C517.479 71.5598 521.75 72.9101 524.5 74.27C527.249 75.6399 530.979 78.2794 532.79 80.1294C534.599 81.9793 537.079 85.5295 538.29 87.9995C540.05 91.5795 540.53 94.4498 540.82 111.5L546.37 117C551.189 121.779 551.929 123.02 552 126.5C552.07 129.92 552.9 131.37 557.67 136.5C562.9 142.119 563.21 142.74 562.63 146.25C562.03 149.839 562.24 150.21 567.53 154.75C572.3 158.849 572.99 159.88 572.53 162.25C572.1 164.479 572.81 165.89 576.25 169.66C578.589 172.22 585.11 178.52 590.75 183.66C597.949 190.219 601.739 192.999 603.5 193C604.879 193 608.81 191.35 612.25 189.32C615.69 187.3 620.92 183.82 623.88 181.57C626.84 179.33 630.11 176.819 631.15 176C632.189 175.18 633.279 174.73 633.58 175C633.87 175.27 633.63 179.33 633.04 184C632.45 188.679 631.69 193.629 631.35 195C630.76 197.36 630.92 197.31 634.35 194C636.34 192.07 638.31 190.85 638.74 191.27C639.16 191.69 638.68 194.84 637.67 198.27C636.66 201.7 633.87 209.45 631.47 215.5C629.07 221.549 625 232.8 622.43 240.5C619.86 248.199 616.909 256.64 614 264L619.04 261.25C621.81 259.74 626.31 256.81 629.04 254.75C631.769 252.69 634.669 251 635.5 251C636.389 251 637.41 252.53 638.01 254.75C638.94 258.209 638.8 258.68 636.26 260.79C634.74 262.05 628.56 266.1 622.52 269.79C616.47 273.48 609.95 277.24 608.02 278.14C606.08 279.04 602.809 281.86 600.75 284.39C597.81 288 597 289.86 597 297L601.75 294.91C604.359 293.75 608.409 291.5 610.75 289.91C613.089 288.31 615.25 287.11 615.56 287.25C615.86 287.39 615.85 289.75 614.93 297.5L605.83 302.5C600.82 305.249 596.521 308.179 596.26 309C596 309.83 597.5 313.65 599.59 317.5C602.86 323.509 603.41 325.42 603.45 331C603.49 336.279 603 338.35 600.87 342C599.42 344.479 596.23 348.98 593.77 352C591.32 355.019 589.09 358.179 588.82 359C588.55 359.83 590.75 365.68 593.71 372C596.67 378.329 600.529 385.839 602.29 388.7C605.219 393.46 605.89 393.96 610 394.52C612.479 394.86 616.299 395.97 618.5 396.99C621.139 398.21 623.089 400.06 624.25 402.419C625.209 404.389 625.999 406.899 626 408C626 409.099 626.96 412.36 628.12 415.25C629.29 418.139 629.969 421.289 629.62 422.25C629.24 423.32 627.94 424.02 626.25 424.04C624.74 424.069 622.98 423.509 622.36 422.79C621.73 422.08 619.25 421.21 616.86 420.86C614.46 420.51 611.709 419.95 610.75 419.61C609.41 419.14 608.699 419.831 607.75 422.51C606.78 425.25 605.939 426.03 604 426.06C602.63 426.08 600.829 425.369 600 424.5C599.169 423.63 597.599 422.94 596.5 422.97C595.399 423 592.359 422.34 589.75 421.51C585.28 420.09 584.829 420.12 582 422C580.33 423.109 579 424.89 579 426C579 427.1 578.44 427.99 577.75 427.99C577.059 427.98 575.47 427.64 574.21 427.24C572.94 426.83 571.72 425.83 571.48 425C571.25 424.17 569.58 422.97 567.78 422.32C565.97 421.66 563.94 420.54 563.26 419.82C562.58 419.09 561.91 415.34 561.76 411.48C561.52 405.03 561.77 404.04 564.73 399.48C567.82 394.7 567.95 394.09 567.98 384.25C567.99 377.37 567.47 372.439 566.38 369.25C565.49 366.639 563.82 362.479 562.67 360C561.52 357.519 559.21 353.349 557.54 350.709C555.87 348.08 554.269 345.939 554 345.959C553.724 345.982 548.546 347.932 542.5 350.3C536.45 352.67 529.9 355.7 527.94 357.05C525.98 358.4 520.8 362.3 516.44 365.72C512.07 369.14 504.859 374.54 492.33 383.5L492.8 395C493.07 401.519 492.71 410.829 491.99 416.5C490.78 425.919 490.82 426.7 492.68 430C493.77 431.919 495.63 436.09 496.83 439.25C498.02 442.409 499 447.249 499 450C499 454.409 498.54 455.5 491.25 463.5L492.2 470.5C492.71 474.349 492.99 477.609 492.82 477.75C492.64 477.89 490.02 478.289 487 478.629C482.92 479.089 481.23 478.899 480.45 477.879C479.87 477.119 478.83 474.249 478.13 471.5C477.43 468.75 476.33 465.879 475.68 465.129C475.03 464.379 471.69 462.459 468.25 460.879C464.81 459.299 461.33 456.99 460.5 455.75C459.68 454.509 458.4 451.479 457.65 449C456.33 444.64 456.16 444.49 451.9 444.19C449.48 444.02 446.491 444.14 445.25 444.44C444.011 444.75 443.001 445.67 443 446.5C443 447.329 442 449.46 440.78 451.25C439.56 453.04 438.1 454.99 437.53 455.59C436.959 456.18 434.93 457.49 433 458.5C431.071 459.499 427.25 460.82 424.5 461.44C420.07 462.42 419.1 463.15 412.5 472.93L406.75 472.959C403.56 472.979 401 472.55 401 472C401.001 471.449 401.451 468.749 402 466C402.89 461.57 402.76 460.629 400.84 457.75C399.16 455.22 398.81 453.609 399.28 450.5C399.6 448.3 400.24 445.4 400.69 444.05C401.47 441.69 401.38 441.63 398 442.36C396.071 442.77 391.57 445.28 388 447.94C384.431 450.6 379.251 453.56 376.5 454.51C373.47 455.55 368.11 456.28 362.9 456.37C354.55 456.5 354.15 456.61 349.4 460.3C345.02 463.7 344.07 464.04 340.5 463.48C338.301 463.14 335.711 462.66 334.75 462.43C333.79 462.19 333 461.33 333 460.5C333.001 459.669 334.13 457.309 335.52 455.25C336.91 453.189 340.47 449.019 343.44 446C346.42 442.98 349.51 438.919 350.31 437C351.12 435.08 353.06 431.97 354.64 430.1C356.21 428.23 359.52 425.339 362 423.669C364.481 422.009 372.352 418.789 392.5 412.37L396.5 404.24C398.7 399.76 401.71 394.841 403.19 393.3C404.67 391.76 408.38 389.15 411.43 387.5C414.63 385.77 417.17 383.649 417.44 382.5C417.7 381.4 417.72 380.269 417.49 380C417.258 379.731 414.919 380.821 412.28 382.44C409.65 384.06 403.939 388.11 399.58 391.44C395.23 394.77 388.7 400.95 385.08 405.16C381.46 409.369 376.931 413.639 375 414.66C372.161 416.15 368.67 416.57 356.5 416.85C342.381 417.18 341.32 417.34 338.5 419.629C336.501 421.243 334.5 421.96 332.5 421.78C330.05 421.55 329.55 421.09 329.75 419.25C329.97 417.23 329.57 417 325.75 417.03C323.411 417.05 320.601 417.73 319.5 418.55C318.401 419.37 316.491 420.03 315.25 420.02C314.01 420.01 312.77 419.55 312.5 419C312.231 418.449 312.681 416.879 313.5 415.5C314.83 413.28 314.83 412.939 313.5 412.5C312.681 412.23 310.65 412.45 309 413C307.001 413.666 305.334 413.666 304 413C302.1 412.05 302.09 411.86 303.63 409.25C304.521 407.739 308.351 403.459 312.13 399.75C316.74 395.22 320.231 392.67 322.75 392.01C324.81 391.46 327.2 391.01 328.05 391.01C328.9 391 330.16 390.439 330.85 389.75C331.651 388.96 336.921 388.25 345.3 387.82C353.19 387.42 360.211 386.51 362.75 385.57C365.091 384.71 369.361 382.81 372.25 381.36C375.141 379.91 380.651 376.57 384.5 373.95C388.35 371.32 393.071 367.82 398.5 363.15L394.5 361.48C392.301 360.55 385.55 357.46 379.5 354.6C373.451 351.74 366.481 348.01 364 346.31C361.521 344.61 357.02 342.13 354 340.8C348.661 338.45 348.42 338.17 345.75 331.19C343.91 326.37 343 322.11 343 318.25C342.99 312.63 343.14 312.309 349.89 304C353.68 299.32 359.65 292.749 363.14 289.379C366.64 286.009 372.881 280.47 377 277.07C381.52 273.34 386.291 270.35 389 269.55C392.22 268.59 393 268.04 391.75 267.61C390.79 267.27 390.23 266.55 390.5 266C390.772 265.449 394.492 264.469 398.75 263.83C406.48 262.66 406.49 262.659 403 261.5C399.6 260.38 399.57 260.32 402 259.69C403.382 259.32 410.801 259.02 418.5 259.01C429.83 259 433.16 258.659 435.94 257.25C437.83 256.29 439.54 255.05 439.73 254.5C439.919 253.948 436.349 249.879 431.79 245.45C424.1 237.98 423.07 237.32 417.5 236.24C414.201 235.6 409.811 234.83 407.75 234.54C404.451 234.06 403.95 234.27 403.57 236.25C403.23 238.02 402.75 238.32 401.32 237.65C400.32 237.19 398.941 236.63 398.25 236.4C397.561 236.18 397.001 236.68 397 237.5C397 238.319 396.44 239.01 395.75 239.02C395.061 239.03 393.6 238.21 392.5 237.19C391.401 236.17 388.93 234.52 387 233.51C385.071 232.5 378.77 228.48 373 224.59C365.3 219.39 357.94 212.97 345.41 200.5C335.66 190.81 325.99 180.149 322.91 175.709C319.932 171.422 317.273 167.954 317 167.99C316.73 168.03 309.52 172.76 301 178.5C292.481 184.229 284.76 189.509 283.86 190.209C282.96 190.919 280.41 196 278.19 201.5C275.98 206.999 273 214.089 271.58 217.25C270.16 220.408 269.001 223.227 269 223.5C269 223.77 269.68 224 270.5 224C271.32 224 272.019 224.56 272.04 225.25C272.07 225.94 270.05 228.75 263.04 236.5L269.31 237.5L265.41 241.03C263.259 242.97 252.5 250.57 241.5 257.919C230.5 265.269 217.07 274.71 211.65 278.89C206.23 283.08 196.78 290.5 190.65 295.4C184.52 300.29 175.001 308.15 169.5 312.86C164.001 317.57 154.06 326.839 147.42 333.459C138.911 341.929 134.66 346.98 133.07 350.5C131.83 353.249 131.04 356.399 131.32 357.5C131.59 358.599 132.79 364.23 133.97 370C135.93 379.549 136.5 380.91 144.35 389.5L143.79 399.5C143.49 404.999 142.59 411.079 141.79 413C140.51 416.089 139.7 416.65 134.92 417.74C131.941 418.43 125.68 419.25 121 419.57C116.111 419.9 109.741 419.65 106 418.98C102.431 418.34 97.9308 417.79 96.0005 417.77C94.0705 417.74 89.91 418.13 80.98 419.5L81.0005 409L75.2505 409.02C72.0907 409.03 67.7006 409.56 65.5005 410.2C63.3006 410.84 60.2606 412.18 58.7505 413.18C57.2413 414.18 55.7817 414.999 55.5005 415C55.2205 415 53.6103 416.01 51.9204 417.25C49.0604 419.339 47.79 419.5 34.5005 419.5C21.2205 419.5 19.9403 419.339 17.0903 417.25C14.0805 415.06 13.8799 415.04 9.25049 416.629C4.72049 418.189 4.43998 418.179 3.22998 416.379C2.54008 415.349 1.96998 414.159 1.97998 413.75C1.99062 413.339 3.13088 411.879 4.50049 410.5C5.8803 409.13 7.00049 407.769 7.00049 407.5C6.99932 407.23 5.64954 407.23 4.00049 407.5C1.93081 407.849 0.770606 407.53 0.250488 406.47C-0.249512 405.45 0.480488 403.96 2.50049 401.95C5.37996 399.07 5.40993 398.96 3.25049 398.98C2.01049 398.99 0.799824 398.66 0.569824 398.25C0.330087 397.839 0.439931 397.029 0.819824 396.459C1.19062 395.879 5.10101 392.63 9.50049 389.23C16.9503 383.48 17.8605 383.05 22.7505 383.03C25.6401 383.01 28.3403 382.48 28.7505 381.84C29.2705 381.04 31.5105 380.89 36.0005 381.35C39.5805 381.72 45.2006 382.29 48.5005 382.62C54.44 383.22 54.5501 383.18 59.8999 378.86C62.8699 376.46 66.0903 373.82 67.0503 373C68.0202 372.179 69.0902 369.699 69.4302 367.5C69.7702 365.299 70.45 359.229 70.9399 354C71.43 348.77 72.6003 342.249 73.5503 339.5C74.5004 336.749 77.1302 331.419 79.3901 327.66C81.6502 323.89 87.4601 316.02 92.3101 310.16C97.15 304.3 102.39 296.799 103.94 293.5C105.5 290.199 107.68 284.799 108.78 281.5C109.88 278.199 112 270.769 113.49 265C114.98 259.23 116.52 253.819 116.92 253C117.321 252.179 119.19 250.709 121.07 249.75C124.34 248.07 124.51 248.07 124.81 249.75C124.98 250.709 124.61 253.07 123.99 255C123.36 256.93 123.11 258.61 123.43 258.75C123.74 258.889 125.42 255.959 127.16 252.25C128.89 248.54 131.3 242.569 132.52 239C133.73 235.429 135.7 227.999 136.91 222.5C138.11 217 139.3 211.489 139.55 210.25C139.801 208.989 141.651 207.03 143.75 205.8C145.81 204.601 148.099 203.581 148.83 203.55C149.57 203.52 151.76 201.48 153.72 199C155.67 196.52 158.83 193.149 160.74 191.5C163.95 188.74 164.12 188.3 162.96 186C162.26 184.629 161.15 180.799 160.48 177.5C159.82 174.2 158.11 169.699 156.7 167.5C155.28 165.3 153.8 162.149 153.4 160.5C153.01 158.849 151.18 155.249 149.34 152.5C147.5 149.75 145.99 146.489 146 145.25C146.001 144.01 146.681 142.319 147.5 141.5C148.51 140.489 149 137.959 149.01 133.75C149.01 130.309 149.47 124.799 150.02 121.5C150.58 118.18 151.92 114.499 153.02 113.25C154.11 112.01 155.451 111 156 111C156.55 111 157 112.35 157 114C157 115.65 157.56 119.03 158.25 121.51C158.94 123.99 159.77 125.68 160.09 125.26C160.42 124.84 161.63 122.03 162.78 119C163.94 115.979 166.46 109.229 168.39 104C170.33 98.7795 173.44 90.8994 175.31 86.4995C177.18 82.0996 179.62 76.6995 180.73 74.4995C181.84 72.2995 184.94 68.7197 187.63 66.5298C190.31 64.3499 192.72 62.3298 193 62.0298C193.283 61.7381 197.102 58.7385 201.5 55.3696C205.901 51.9896 213.101 47.0002 217.5 44.2603C221.901 41.5302 230.001 37.0102 235.5 34.2202C241 31.4402 248.201 27.96 251.5 26.48C254.801 25.01 259.981 22.9201 263 21.8501C266.021 20.7801 273.681 18.5498 280 16.8999C286.32 15.2499 296.001 13.0595 301.5 12.0396C307 11.0095 315.101 8.72942 319.5 6.95947C323.9 5.1995 330.201 2.94943 333.5 1.95947ZM455 325C441.44 325.19 432.999 325.83 427.5 326.53C422 327.24 415.249 328.29 412.5 328.87C409.75 329.449 407.171 330.279 406.76 330.709C406.36 331.149 406.91 333.08 407.99 335C409.06 336.93 410.75 340.03 411.72 341.9C412.7 343.77 414.63 346.09 416 347.06C417.379 348.03 420.64 349.76 423.25 350.91C425.859 352.06 429.239 353.02 430.75 353.05C432.95 353.08 434.39 351.93 437.92 347.3C440.35 344.11 444.45 339.03 447.02 336C449.59 332.98 452.43 329.259 453.34 327.75L455 325Z"
        fill="currentColor" />
</svg>