<svg width="446" height="459" viewBox="0 0 446 459" fill="currentColor"
    xmlns="http://www.w3.org/2000/svg">
    <path
        d="M329.832 0.00976562C331.862 0.00984267 337.802 0.670541 343.031 1.48047C348.261 2.30043 355.231 3.6798 358.531 4.5498C361.831 5.42977 367.901 7.29975 372.031 8.71973C376.151 10.1397 384.392 13.8302 390.342 16.9102C396.292 20.0002 403.262 24.4704 405.842 26.8604C408.422 29.2404 412.271 32.8404 414.401 34.8604C416.531 36.8703 419.961 40.9996 422.021 44.0195C424.091 47.0394 427.102 51.7695 428.712 54.5195C430.322 57.2694 432.422 61.5395 433.372 64.0195C435.062 68.4295 435.051 68.5999 432.811 72.8398C431.421 75.4698 430.041 76.9298 429.281 76.5898C428.531 76.2506 427.031 77.7302 425.552 80.2695C424.132 82.6994 423.062 86.1195 423.052 88.2695C423.042 90.8493 423.571 92.3001 424.781 92.9102C426.421 93.7402 426.431 94.0302 424.901 97.6602C423.791 100.3 423.552 102.23 424.151 103.77C424.791 105.409 425.851 106.019 428.031 106.02C429.811 106.02 431.231 106.63 431.531 107.52C431.801 108.339 431.062 110.48 429.872 112.27C428.692 114.059 425.422 117.71 422.622 120.38C419.822 123.06 416.521 125.64 415.281 126.13C414.041 126.62 412.021 127.01 410.781 127C409.541 127 407.982 126.66 407.302 126.25C406.632 125.85 404.922 122.37 403.502 118.52C402.082 114.67 399.931 109.97 398.731 108.09C397.521 106.2 396.301 104.24 396.031 103.75C395.761 103.25 394.071 103.56 392.281 104.43C390.492 105.3 389.032 106.7 389.031 107.52C389.031 108.339 390.721 110.46 392.781 112.21C396.141 115.07 396.522 115.88 396.452 119.96C396.392 122.73 395.361 126.49 393.811 129.52C392.411 132.269 389.661 136.54 387.691 139.02C385.731 141.499 382.992 144.869 381.622 146.52C380.252 148.169 377.082 152.56 374.582 156.27C372.082 159.979 370.032 163.699 370.031 164.52C370.031 165.339 370.481 166.019 371.031 166.02C371.581 166.02 372.242 166.81 372.502 167.77C372.762 168.73 376.922 173.45 381.752 178.25C386.582 183.05 393.231 188.63 396.531 190.65C399.831 192.68 404.781 195.59 407.531 197.12C410.281 198.65 414.201 201.4 416.231 203.21C418.271 205.03 419.961 207.079 419.981 207.77C420.011 208.459 420.481 209.019 421.031 209.02C421.581 209.02 423.491 210.5 425.281 212.32C427.071 214.13 430.551 218.47 433.031 221.96C435.511 225.46 438.911 230.16 440.601 232.42C442.291 234.67 444.201 237.529 444.851 238.77C445.501 240.01 445.801 241.249 445.531 241.52C445.261 241.79 438.731 238.87 431.031 235.02C423.331 231.17 413.201 225.539 408.531 222.52C403.861 219.5 398.762 215.779 397.212 214.27C395.652 212.759 392.851 209.269 390.991 206.52C389.121 203.769 382.841 196.789 377.031 191.02C371.221 185.25 364.681 179.67 358.531 176.76L355.031 179.1C353.101 180.38 349.731 181.8 347.531 182.25C345.331 182.7 339.931 183.45 335.531 183.92C331.131 184.38 323.261 185.55 318.031 186.52C312.801 187.49 305.011 189.24 300.722 190.4C296.422 191.57 292.823 192.95 292.722 193.47C292.612 193.99 295.451 196.12 299.031 198.21C302.601 200.29 308.011 202.96 311.031 204.12C315.891 205.99 317.812 206.17 327.531 205.63C333.821 205.28 341.101 205.47 344.531 206.07C347.831 206.65 353.901 208.19 358.031 209.5C362.151 210.8 367.452 212.92 369.792 214.2C372.131 215.47 373.84 216.749 373.592 217.02C373.332 217.29 370.062 216.97 366.332 216.31C362.592 215.64 353.901 215.09 347.031 215.09C336.943 215.08 334.862 215.32 336.241 216.3C337.171 216.97 341.451 219.98 345.741 222.98C350.021 225.98 356.681 231.46 360.531 235.17C364.381 238.869 367.201 242.269 366.792 242.71C366.392 243.16 358.522 240.3 349.292 236.37C340.072 232.44 332.421 229.4 332.281 229.62C332.142 229.841 332.892 231.48 333.941 233.27C334.991 235.059 339.491 240.57 343.941 245.52C348.39 250.468 352.028 254.857 352.031 255.27C352.031 255.68 351.241 256.01 350.281 256C349.321 255.99 346.511 255.07 344.031 253.97C341.551 252.87 339.421 251.98 339.281 251.99C339.147 252.022 341.515 257.088 344.531 263.271C347.561 269.46 350.821 275.449 351.781 276.59C352.741 277.74 354.091 279.65 354.781 280.84C355.471 282.04 356.031 284.371 356.031 286.021C356.031 287.671 354.461 292.391 352.531 296.521C350.601 300.64 348.471 304.03 347.781 304.05C347.091 304.06 344.731 305.43 342.531 307.09C340.331 308.74 335.601 311.971 332.031 314.271C328.461 316.561 321.481 320.59 316.531 323.21C311.581 325.83 305.051 329.16 302.031 330.6C299.011 332.05 293.381 334.35 289.531 335.71C285.681 337.07 278.821 339.38 274.271 340.85C269.731 342.32 266.021 344.081 266.021 344.771C266.033 345.462 269.522 349.371 273.781 353.46C278.041 357.56 285.131 363.67 289.531 367.05C293.931 370.42 301.131 374.97 305.531 377.16C309.931 379.35 315.101 381.53 317.031 382.01C318.961 382.5 323.901 383.81 328.031 384.94C332.151 386.06 336.43 387 337.531 387.021C338.631 387.041 342.362 389.631 352.092 398.521L352.222 409.521C352.342 419.58 352.121 420.971 349.691 425.771C348.011 429.08 345.921 431.571 344.031 432.521C342.381 433.35 339.341 434.3 337.281 434.64C335.211 434.99 331.741 434.71 329.531 434.03C327.331 433.34 323.792 431.15 321.662 429.15C319.542 427.151 317.172 424.061 316.412 422.271C315.652 420.481 315.031 417.44 315.031 412.021L309.781 412.05C305.981 412.08 304.091 411.59 302.932 410.3C302.061 409.32 299.581 405.6 297.441 402.021C295.291 398.441 293.081 395 292.531 394.36C291.981 393.72 289.051 389.9 286.031 385.86C283.011 381.821 278.272 376.271 275.502 373.521C272.732 370.771 266.742 365.37 262.182 361.521C257.632 357.671 251.572 353.02 248.722 351.2C245.862 349.37 241.051 346.61 238.031 345.06C235.011 343.52 229.032 340.96 224.752 339.39C220.464 337.81 216.985 336.181 217.002 335.771C217.012 335.361 218.601 334.35 220.531 333.521C222.561 332.651 227.081 332.02 231.281 332.01C235.271 332.01 242.351 331.57 247.031 331.05C251.711 330.52 259.801 328.7 265.031 327C270.261 325.3 277.681 322.09 281.531 319.86C285.381 317.631 289.091 314.96 289.781 313.91C290.471 312.87 291.711 312.021 292.531 312.021C293.351 312.021 294.031 311.57 294.031 311.021C294.031 310.471 296.511 306.76 299.531 302.771C302.561 298.781 305.021 294.852 305.002 294.021C304.982 293.191 305.772 291.76 306.752 290.84C307.732 289.92 309.771 288.68 311.281 288.09C312.791 287.5 314.03 286.571 314.031 286.021C314.031 285.471 308.971 280.48 302.781 274.92C296.591 269.37 290.631 264.47 289.531 264.05C288.431 263.63 286.181 262.16 284.531 260.79C282.881 259.41 279.051 256.71 276.031 254.79C273.011 252.86 265.581 248.81 259.531 245.8C253.481 242.78 245.831 239.14 242.531 237.71C239.231 236.28 236.262 235.43 235.932 235.82C235.601 236.201 234.551 239.45 233.611 243.02C232.661 246.59 230.572 253.571 228.952 258.521C227.342 263.47 224.791 269.4 223.281 271.69C221.771 273.981 217.831 278.94 214.531 282.72C211.231 286.49 207.181 291.3 205.531 293.41C203.881 295.52 201.181 298.8 199.531 300.71C197.881 302.61 193.601 305.92 190.031 308.06C186.451 310.19 181.281 314.11 178.531 316.75C175.781 319.4 169.661 325.6 164.941 330.54C160.211 335.48 154.841 341.771 152.991 344.521C151.141 347.271 147.501 354.021 144.901 359.521C142.301 365.021 138.751 373.791 137.021 379.021C135.251 384.38 133.622 391.781 133.292 396.021C132.752 402.84 133.041 404.611 136.521 415.521C140.071 426.66 140.251 427.811 139.071 431.521C138.371 433.72 137.292 436.56 136.672 437.83C136.042 439.11 134.521 440.34 133.281 440.58C132.041 440.82 130.351 442.371 129.531 444.021C128.701 445.67 128.031 447.691 128.031 448.521C128.031 449.35 127.691 450.01 127.281 449.99C126.871 449.981 125.851 451.101 125.031 452.49C124.201 453.88 121.951 455.66 120.031 456.45C118.101 457.23 115.401 458.1 114.031 458.38C112.651 458.66 109.731 458.57 107.531 458.18C105.331 457.8 101.951 456.44 100.031 455.17C98.1013 453.89 95.4119 451.2 94.0419 449.19C91.8819 446.01 91.5419 444.41 91.5419 437.2C91.5319 430.3 91.2311 428.72 89.7811 427.95C88.8214 427.44 88.0218 426.01 88.0116 424.771C88.0016 423.531 88.4915 420.94 89.1015 419.021C89.7014 417.101 91.1713 413.6 92.3612 411.24C94.1112 407.8 95.7015 406.4 100.531 404.07C104.891 401.96 107.311 399.98 109.391 396.84C110.961 394.47 114.871 387.12 118.071 380.521C121.281 373.921 125.311 364.251 127.031 359.021C128.761 353.791 130.761 348.171 131.481 346.521C132.191 344.871 133.572 340.15 134.542 336.021C135.512 331.901 136.692 327.731 137.172 326.771C137.682 325.721 139.141 325.03 140.781 325.05C143.361 325.07 143.712 324.53 146.412 316.3C148.002 311.47 151.152 303.56 153.412 298.73C157.042 290.991 158.011 289.72 161.531 288.1C163.731 287.09 167.551 285.95 170.031 285.57C172.511 285.19 175.211 284.691 176.031 284.48C176.851 284.26 177.832 282.38 178.202 280.3C178.582 278.22 179.552 272.7 180.372 268.021C181.192 263.341 182.161 257.04 182.521 254.02C182.881 251 183.362 247.839 183.592 247.02C183.951 245.71 179.978 245.51 152.271 245.45C134.811 245.41 112.211 245.02 102.031 244.58C89.6613 244.05 78.221 244.18 67.5311 244.99C58.7313 245.65 48.8311 246.87 45.5311 247.71C42.2313 248.55 38.7411 249.64 37.7811 250.13C36.8215 250.62 36.042 251.58 36.0517 252.27C36.0717 252.96 39.6612 255.541 44.0311 258.021C48.4011 260.501 51.9916 262.861 52.0116 263.271C52.0229 263.681 53.7222 264.75 55.7811 265.64C57.841 266.54 62.2312 269.35 65.5311 271.89C68.8311 274.44 74.6811 279.441 78.5311 283.021C82.3811 286.591 87.9415 291.991 90.8915 295.021C93.8415 298.04 97.2819 302.101 98.5419 304.021C99.792 305.941 102.332 309.14 104.182 311.12C106.022 313.1 109.381 317.38 111.651 320.62C113.921 323.87 116.961 328.881 118.401 331.771C119.851 334.66 120.921 337.66 120.781 338.44C120.62 339.359 116.64 336.879 109.531 331.42C103.481 326.78 96.5011 321.81 94.0311 320.38C91.5511 318.95 87.281 316.52 84.5311 314.99C81.7811 313.45 76.601 310.56 73.0311 308.55C69.461 306.55 62.2509 302.88 57.0311 300.39C51.8009 297.9 40.3309 292.31 31.5311 287.97C21.1014 282.83 13.3315 278.24 9.22157 274.8C4.98184 271.26 2.41159 268.2 1.39149 265.521C0.341495 262.751 -0.0279584 258.9 0.202042 253.02C0.492046 245.69 1.03156 243.489 4.14149 237.02C6.13152 232.9 9.56167 227.499 11.7616 225.02C14.0617 222.43 19.3315 218.53 24.1513 215.84C28.7608 213.26 33.8806 210.841 35.5311 210.45C37.1811 210.07 39.2111 209.2 40.0311 208.52C40.8511 207.84 44.6812 206.28 48.5311 205.06C52.381 203.83 58.6811 201.96 62.5311 200.91C66.381 199.85 73.1311 198.33 77.5311 197.52C81.9311 196.72 87.5819 196.05 90.0819 196.04C92.5818 196.03 95.0619 195.62 95.5819 195.12C96.1025 194.63 100.802 193.32 106.031 192.21C111.251 191.1 121.601 189.22 129.031 188.03C136.46 186.84 143.43 185.661 144.531 185.4C145.631 185.14 150.131 184.31 154.531 183.56C158.931 182.81 165.011 181.53 168.031 180.71C171.051 179.9 177.131 178.44 181.531 177.48C185.931 176.521 191.781 175.14 194.531 174.41C197.281 173.68 203.801 171.75 209.031 170.13C214.261 168.51 220.302 166.59 222.452 165.85C224.612 165.12 226.552 164.069 226.762 163.52C226.97 162.968 223.4 158.209 218.842 152.95C214.272 147.68 207.971 140.03 204.851 135.95C201.721 131.86 197.541 125.82 195.561 122.52C193.392 118.92 192.071 115.519 192.241 114.02C192.401 112.65 193.182 111.52 193.972 111.52C194.762 111.52 196.892 114 198.702 117.02C200.522 120.04 203.921 124.64 206.271 127.24C208.611 129.84 211.541 132.43 212.781 132.99C214.391 133.73 217.521 133.59 223.781 132.51C228.591 131.69 234.781 130.4 237.531 129.66C240.281 128.91 249.281 126.17 257.531 123.57C265.781 120.96 276.801 116.78 282.031 114.27C287.261 111.77 295.351 107.16 308.531 98.3604L323.531 97.7598C333.381 97.3598 340.931 96.4997 345.531 95.2598C349.381 94.2198 355.011 92.2498 363.531 88.3799L364.712 78.9502C365.592 71.9602 365.612 68.3595 364.792 65.0195C364.182 62.5392 361.001 56.0193 357.731 50.5195C354.461 45.0194 348.172 35.1193 343.752 28.5195C339.342 21.9196 334.061 14.4895 332.031 12.0195C330.001 9.54959 327.591 6.27943 326.682 4.76953C325.772 3.25962 325.282 1.56949 325.582 1.01953C325.883 0.469765 327.793 0.0197625 329.832 0.00976562ZM269.231 142.3C267.751 142.28 263.161 143.14 259.031 144.2C254.901 145.26 251.191 146.33 250.781 146.57C250.372 146.821 250.822 148.371 251.781 150.01C252.741 151.659 253.76 153.008 254.031 153.02C254.301 153.03 258.131 150.979 262.531 148.479C266.931 145.97 270.851 143.57 271.231 143.13C271.621 142.69 270.721 142.31 269.231 142.3Z"
        fill="currentColor" />
</svg>