<svg width="70" height="77" viewBox="0 0 70 77" fill="currentColor" xmlns="http://www.w3.org/2000/svg">
<path d="M34.6188 47.0161C56.3181 46.9161 57.9187 47.1163 60.4186 49.0161C62.9045 50.7372 63.1956 53.8148 63.2164 64.9204C63.2168 64.9467 63.2193 64.9731 63.2193 64.9995V71.9995C63.2193 74.7608 60.9806 76.9993 58.2193 76.9995H11.2193C8.45792 76.9995 6.21935 74.7609 6.21935 71.9995V66.4995L6.11876 57.6157C6.01877 51.716 6.21901 51.0157 8.81896 49.1157C11.3189 47.1158 12.8194 47.0161 34.6188 47.0161ZM4.41857 25.0161C6.01857 25.0161 7.41935 25.6161 7.71935 26.5161C8.01931 27.3165 8.21934 31.7163 8.21935 36.3159C8.21935 43.9159 8.01857 44.7159 5.41857 47.3159C3.1187 49.8158 2.71915 51.1161 2.51915 57.1157C2.3192 60.9147 1.71927 64.0145 1.21935 64.0161C0.619351 64.0161 0.119156 56.9162 0.0191512 45.2163C-0.0808488 34.8163 0.219347 26.0163 0.719347 25.7163C1.21943 25.3164 2.81882 25.0162 4.41857 25.0161ZM61.7193 25.6157C62.2199 25.2159 64.0206 25.0162 68.7193 25.5161L69.0192 44.7163C69.1191 57.1135 68.8191 64.0132 68.2193 64.0161C67.7193 64.0161 67.1192 60.9157 67.0192 57.1157C66.7192 51.116 66.3191 49.8159 64.0192 47.3159C61.4192 44.716 61.2188 43.8161 61.1188 35.4165C60.9188 30.4165 61.3193 26.0157 61.7193 25.6157ZM34.7193 0.0161032C44.819 -0.0838855 46.1194 0.215941 51.2193 2.81591C55.1191 4.81584 57.5192 6.91587 59.5192 10.1157C61.0191 12.5156 62.6191 16.1157 63.0192 18.1157C63.6191 21.2155 63.419 21.8159 61.7193 22.3159C60.6194 22.7159 59.1192 24.1161 58.5192 25.5161C57.8192 26.9161 57.2193 31.6161 57.2193 44.0161H12.2193V36.0161C12.2193 31.6164 11.7191 27.0167 11.0192 25.7163C10.4192 24.5163 9.01857 22.8161 7.91857 22.0161C6.51876 20.9162 6.11882 19.8159 6.61876 17.5161C6.91874 15.9162 8.61869 12.4165 10.4186 9.91649C12.4186 7.01649 15.5193 4.31571 18.7193 2.61571C23.219 0.215934 24.7197 0.0161032 34.7193 0.0161032Z" fill="currentColor"/>
</svg>
